<svg version="1.2" xmlns="http://www.w3.org/2000/svg" viewBox="0 0 621 1346" width="621" height="1346"><defs><linearGradient id="P" gradientUnits="userSpaceOnUse"/><linearGradient id="g1" x2="1" href="#P" gradientTransform="matrix(0,-1345.304,619.826,0,-1149.05,1345.301)"><stop stop-color="#4837d4"/><stop offset="1" stop-color="#6369ff"/></linearGradient><linearGradient id="g2" x2="1" href="#P" gradientTransform="matrix(69.473,-77.172,64.255,57.845,357.483,549.286)"><stop stop-color="#fead0b"/><stop offset="1" stop-color="#ffff79"/></linearGradient><linearGradient id="g3" x2="1" href="#P" gradientTransform="matrix(10.847,-94.657,96.911,11.105,368.861,604.938)"><stop stop-color="#d4d4d4"/><stop offset="1" stop-color="#fefefe"/></linearGradient><linearGradient id="g4" x2="1" href="#P" gradientTransform="matrix(-35.596,-87.221,89.071,-36.351,461.338,615.855)"><stop stop-color="#d4d4d4"/><stop offset="1" stop-color="#fefefe"/></linearGradient><linearGradient id="g5" x2="1" href="#P" gradientTransform="matrix(-39.699,-0.238,.138,-22.965,422.274,631.492)"><stop stop-color="#d4d4d4"/><stop offset="1" stop-color="#fff"/></linearGradient><linearGradient id="g6" x2="1" href="#P" gradientTransform="matrix(-53.05,-96.511,98.18,-53.967,234.752,596.233)"><stop stop-color="#d4d4d4"/><stop offset="1" stop-color="#fefefe"/></linearGradient><linearGradient id="g7" x2="1" href="#P" gradientTransform="matrix(-30.418,-32.907,31.638,-29.245,499.187,634.491)"><stop stop-color="#d4d4d4"/><stop offset="1" stop-color="#f9f9f9"/></linearGradient><linearGradient id="g8" x2="1" href="#P" gradientTransform="matrix(45.191,1.349,-1.092,36.591,116.22,600.298)"><stop stop-color="#f9f9f9"/><stop offset="1" stop-color="#ccc"/></linearGradient><linearGradient id="g9" x2="1" href="#P" gradientTransform="matrix(-35.069,-24.137,19.939,-28.969,237.732,637.314)"><stop stop-color="#d4d4d4"/><stop offset="1" stop-color="#f9f9f9"/></linearGradient><linearGradient id="g10" x2="1" href="#P" gradientTransform="matrix(0,-20.464,405.418,0,296.815,646.099)"><stop offset=".01" stop-color="#e3e3e3"/><stop offset="1" stop-color="#d4d4d4"/></linearGradient></defs><style>.a{fill:url(#g1)}.b{fill:url(#g2)}.c{fill:#d4d4d4}.d{fill:url(#g3)}.e{fill:url(#g4)}.f{fill:url(#g5)}.g{fill:url(#g6)}.h{fill:url(#g7)}.i{fill:url(#g8)}.j{fill:url(#g9)}.k{fill:url(#g10)}</style><path class="a" d="m81 0h459.8c44.2 0 80 35.8 80 80v1185.3c0 44.2-35.8 80-80 80h-459.8c-44.2 0-80-35.8-80-80v-1185.3c0-44.2 35.8-80 80-80z"/><path class="b" d="m357.5 549.3c7.2 7.1 15.4 13.2 24.5 18-0.4-9.2 1.1-13.4 0.4-24.3-14.7-2.3-29-7.6-41.2-14.7 4.5 7.7 10 14.7 16.3 21zm-16.3-21c12.2 7.1 26.5 12.4 41.2 14.7-0.9-12.2-0.1-24.5-0.7-36.7-17.6 2.3-36.9-0.9-52.6-9.3 2.3 11.2 6.5 21.8 12.1 31.3zm-12.1-31.3c15.7 8.4 35 11.6 52.6 9.3-0.2-3.5-0.4-7-0.9-10.4q-6.7 1.1-13.8 1.1c-14.2 0-27.7-3.5-39.4-9.8q0.5 5 1.5 9.8zm52.9 70.3c8.9 4.8 18.6 8.3 28.9 10.2 5.6-12.2 11.5-23.3 14.6-37.4-13.7 4.5-28.6 5.2-43.1 2.9 0.7 10.9-0.8 15.1-0.4 24.3zm0.4-24.3c14.5 2.3 29.4 1.6 43.1-2.9 0.9-4.2 1.5-8.7 1.8-13.5 1-15.3 2.5-27.5 1.7-39.9-12.6 11.1-29.8 17.4-47.3 19.6 0.6 12.2-0.2 24.5 0.7 36.7zm-0.7-36.7c17.5-2.2 34.7-8.5 47.3-19.6-0.3-4.8-0.9-9.6-2-14.6-12.3 12.3-28.3 20.9-46.2 23.8 0.5 3.4 0.7 6.9 0.9 10.4zm29.2 71.2c6.3 1.2 12.9 1.9 19.5 1.9 16.5 0 32-3.8 45.8-10.7 8-22.3 7.8-43.4 14.8-73.8q-1.1 0.2-2.2 0.3c-3.3 7.1-10.2 12.8-17.4 20.3-5.7 6-13.6 9.9-21.2 14.5-7.9 4.8-16.6 7.3-24.7 10.1-3.1 14.1-9 25.2-14.6 37.4zm16.4-50.9c-0.3 4.8-0.9 9.3-1.8 13.5 8.1-2.8 16.8-5.3 24.7-10.1 7.6-4.6 15.5-8.5 21.2-14.5 7.2-7.5 14.1-13.2 17.4-20.3q1.1-0.1 2.2-0.3c7.4-32.1 5.5-65.8-16.2-95.8-1.1-0.2-2.3-0.2-3.4-0.4-1.8-0.1-3.9 0.2-5.7 0.1 3.5 8.9 0.4 17.9 0.3 28.3 0 2.6-1.2 5-1.5 7.6-0.9 9.1-6.9 16.8-10.6 25-5 10.8-16.1 19.1-24.9 27 0.8 12.4-0.7 24.6-1.7 39.9zm1.7-39.9c8.8-7.9 19.9-16.2 24.9-27 3.7-8.2 9.7-15.9 10.6-25 0.3-2.6 1.5-5 1.5-7.6 0.1-10.4 3.2-19.4-0.3-28.3 1.8 0.1 3.9-0.2 5.7-0.1 1.1 0.2 2.3 0.2 3.4 0.4-6.2-8.6-14-16.8-23.7-24.7q-4.6-0.9-9.3-1.4c6.3 11.8 9.8 25.2 9.8 39.5 0 23.2-9.4 44.3-24.6 59.6 1.1 5 1.7 9.8 2 14.6zm47.2 82c10.2-5 19.5-11.7 27.4-19.6 14.4-14.4 24.6-33 28.5-53.8-7.5-3.6-21.2-2.6-41.1-0.4-7 30.4-6.8 51.5-14.8 73.8zm14.8-73.8c19.9-2.2 33.6-3.2 41.1 0.4 1.2-6.3 1.9-12.8 1.9-19.4 0-20.7-6.1-39.9-16.5-56.1-12.9-12.6-22.7-17.6-42.7-20.7 21.7 30 23.6 63.7 16.2 95.8zm-16.2-95.8c20 3.1 29.8 8.1 42.7 20.7-4-6.1-8.5-11.8-13.6-16.9-14.2-14.2-32.4-24.3-52.8-28.5 9.7 7.9 17.5 16.1 23.7 24.7z"/><path class="c" d="m226.7 606.3c2.2 45 41.4 36.5 87.5 34.3 46.1-2.3 81.7 2.5 79.6-42.5-2.1-45-41.3-79.6-87.4-77.4-46.1 2.3-81.8 40.6-79.7 85.6z"/><path class="d" d="m391.4 547c1 22.5-7.3 43.3-21.8 58.8-12.2 13.1-28.7 22.4-47.5 25.6-0.2-22.2 1.3-51-0.1-81-0.9-17.7-2.7-34.9-4.4-50.6 21.5 0.4 47.3 3.5 63 10.7 6.3 10.8 10.2 23.2 10.8 36.5zm-10.8-36.5c-15.7-7.2-41.5-10.3-63-10.7-1.2-10.9-2.4-21-3.2-30 19 1.3 36.4 8.9 49.8 20.8 6.4 5.7 12 12.4 16.4 19.9zm-58.6 39.9c1.4 30-0.1 58.8 0.1 81q-5.1 0.9-10.4 1.2c-23.1 1.1-44.4-7-60.2-21-15.8-14-26.1-33.9-27.2-56.4-0.6-13.3 2-26 7.3-37.4 17.7-10.2 47.2-16.5 73.3-17.8 4-0.2 8.8-0.3 12.7-0.2 1.7 15.7 3.5 32.9 4.4 50.6zm-4.4-50.6c-3.9-0.1-8.7 0-12.7 0.2-26.1 1.3-55.6 7.6-73.3 17.8 3.7-7.8 8.5-15.1 14.4-21.4 14.5-15.5 34.9-25.6 58-26.7q5.3-0.3 10.4 0.1c0.8 9 2 19.1 3.2 30z"/><path class="e" d="m475.9 578.4c0.6 14.6-4.8 28-14.1 38-7.9 8.5-18.7 14.5-30.9 16.6-0.1-26.3 0.5-52.3-2.2-78.6 14.8 0 31.6 1.8 42.5 5 2.7 5.8 4.3 12.3 4.7 19zm-4.7-19c-10.9-3.2-27.7-5-42.5-5-1-9.4-2-18.2-2.7-25.8 12.3 0.8 23.6 5.8 32.3 13.5 5.4 4.8 9.8 10.6 12.9 17.3zm-40.3 73.6q-3.2 0.5-6.5 0.7c-14.9 0.7-28.6-4.5-38.8-13.5-10.2-9.1-16.9-21.9-17.6-36.4-0.3-6.8 0.7-13.4 2.8-19.5 18.1-7.1 38.6-9.8 57.9-9.9 2.7 26.3 2.1 52.3 2.2 78.6zm-2.2-78.6c-19.3 0.1-39.8 2.8-57.9 9.9 2.4-6.9 6.3-13.2 11.2-18.5 9.3-10 22.5-16.5 37.4-17.3q3.4-0.1 6.6 0.1c0.7 7.6 1.7 16.4 2.7 25.8z"/><path class="f" d="m438.7 630.7c0.8 16.2-5.5-3.5-15.9 7.6-9.6 10.3-24.9-1.9-40-0.3-1.2-30.7 0.9-7.5-1.5-38.2 17.6-0.4 38.1 1.8 50.8 6.7 3.9 7.3 6.2 15.5 6.6 24.2zm-6.6-24.2c-12.7-4.9-33.2-7.1-50.8-6.7-0.7-8.9-1.4-17.2-1.8-24.7 15.2 0.1 29.2 5.8 39.7 15.1 5.2 4.7 9.6 10.2 12.9 16.3zm-49.3 31.5c-1.2 0.2-3.5 2.3-4.7 2.3-16.6 0.8-27.1 9.3-38.5-0.7-11.3-10.1-20.1 13.2-20.9-2.9-0.4-8.8 1.2-17.2 4.4-24.8 17.4-8.7 38.8-11.7 58.2-12.1 2.4 30.7 0.3 7.5 1.5 38.2zm-1.5-38.2c-19.4 0.4-40.8 3.4-58.2 12.1 2.7-6.5 6.5-12.4 11.3-17.5 10.3-11.1 25-18.4 41.6-19.2q1.7-0.1 3.5-0.1c0.4 7.5 1.1 15.8 1.8 24.7z"/><path class="g" d="m250.9 553.9c0.7 16.2-5.3 31.1-15.6 42.2-10.4 11.2-25.1 18.4-41.6 19.3q-3.2 0.1-6.3 0c-1.3-16.1-4-36.5-5-58.1-0.5-10.7-0.6-21.1-0.6-30.8 20.8-1.9 43.5-1.2 63.4 5.2 3.3 6.8 5.3 14.3 5.7 22.2zm-5.7-22.2c-19.9-6.4-42.6-7.1-63.4-5.2 0.1-10 0.2-19.4 0.1-27.5q3-0.5 6.2-0.6c16.6-0.8 31.9 5 43.2 15 5.8 5.1 10.6 11.3 13.9 18.3zm-62.8 25.6c1 21.6 3.7 42 5 58.1-14.2-0.8-27.1-6.3-37-15.1-11.3-10-18.8-24.3-19.5-40.5-0.4-7.9 0.9-15.6 3.5-22.7 11.9-5.1 30.8-9.1 47.4-10.6 0 9.7 0.1 20.1 0.6 30.8zm-0.6-30.8c-16.6 1.5-35.5 5.5-47.4 10.6 2.7-7.2 6.8-13.9 12.1-19.5 9-9.7 21.4-16.5 35.4-18.6 0.1 8.1 0 17.5-0.1 27.5z"/><path class="h" d="m500 621.8c0.5 10.2 0.7 13.4 0 14.8-7.9 1.6-23.6 0.8-31.6 2.5 0.4-19.4 2.2-17.6-0.2-36.9 9.5 0.2 20.6 1.6 27.6 4.3 2.4 4.6 3.9 9.8 4.2 15.3zm-4.2-15.3c-7-2.7-18.1-4.1-27.6-4.3-0.7-5.6-1.4-10.8-1.9-15.4 8.1 0.9 15.5 4.2 21.3 9.4 3.3 2.9 6.1 6.4 8.2 10.3zm-27.4 32.6c-1.9 0.4-5.2 1.5-7.2 1.6-10.5 0.5-18.2 3.6-25.4-2.7-7.2-6.4-11.3-2.2-11.8-12.5-0.2-5.5 0.8-10.8 2.8-15.6 12.3-6.2 27.8-8 41.4-7.7 2.4 19.3 0.6 17.5 0.2 36.9zm-0.2-36.9c-13.6-0.3-29.1 1.5-41.4 7.7 1.7-4.1 4.1-7.9 7.1-11.1 6.6-7 15.9-11.6 26.4-12.2q3-0.1 6 0.2c0.5 4.6 1.2 9.8 1.9 15.4z"/><path class="i" d="m163.9 613.1c0.4 10.2-1.9 16.4-8.4 23.5-6.6 7-13.2 0.9-23.7 1.4-2.3 0.1-8.7-0.2-11-0.4-2.3-16.8-4.8-19.2-4.5-36.3 15.2-1.3 30.4-0.9 45.5 1.4 1.2 3.3 1.9 6.8 2.1 10.4zm-2.1-10.4c-15.1-2.3-30.3-2.7-45.5-1.4 0.2-8.2 0.7-16 0.9-22.4q3.4-0.8 6.9-0.9c10.5-0.6 20.2 3.1 27.4 9.5 4.6 4.1 8.2 9.3 10.3 15.2zm-41 34.9c-7.8-1.1-20.6 3.9-26.2-1-2.5-1.7-6.2-9.5-6.7-19.7-0.2-3.7 0.2-7.2 1.1-10.6 7.2-1.9 17.6-4.1 27.3-5-0.3 17.1 2.2 19.5 4.5 36.3zm-4.5-36.3c-9.7 0.9-20.1 3.1-27.3 5 1.5-6.1 4.6-11.6 8.8-16.2 5.1-5.4 11.8-9.4 19.4-11.2-0.2 6.4-0.7 14.2-0.9 22.4z"/><path class="j" d="m255 639.8c0.6 14.5-4.8-5-14.1 5-15.4-2.1-25-4.7-39.9-4-1.2-26.2 0 1.9-1.2-24.3 17.9-0.8 37.8 1.1 50.7 4.6 2.6 5.8 4.1 12.1 4.5 18.7zm-4.5-18.7c-12.9-3.5-32.8-5.4-50.7-4.6-0.5-9.7-0.9-18.7-1.3-26.6 14.9-0.8 28.7 4.5 38.9 13.5 5.5 4.9 10 10.9 13.1 17.7zm-49.5 19.7c-14.9 0.7-17.2 6.7-27.4-2.3-10.3-9-23.8 13.9-24.5-0.6-0.3-6.6-1.3-5.9 0.7-11.8 12.5-4.8 32.1-8.7 50-9.6 1.2 26.2 0-1.9 1.2 24.3zm-1.2-24.3c-17.9 0.9-37.5 4.8-50 9.6 2.4-7.1 6.3-13.5 11.3-18.9 9.3-10 22.5-16.6 37.4-17.3 0.4 7.9 0.8 16.9 1.3 26.6z"/><path class="k" d="m500 636.6c-1.4 3.4-90.7 9.5-202.7 9.5-111.9 0-202.7-4.3-202.7-9.5 0-2.2 43.7-10.5 54-5.9 7-6.2 92.2-7.4 105.2 0.3 10.9-2.9 50.3-3.2 65.4-1.1 8-2.3 65.9-7 105.4-0.3 66.3-1 75.9 5.8 75.4 7z"/></svg>