<svg version="1.2" xmlns="http://www.w3.org/2000/svg" viewBox="0 0 620 1346" width="620" height="1346"><defs><linearGradient id="P" gradientUnits="userSpaceOnUse"/><linearGradient id="g1" x2="1" href="#P" gradientTransform="matrix(0,-1345.304,619.826,0,-1149.961,1345.873)"><stop stop-color="#f7b241"/><stop offset="1" stop-color="#fdc843"/></linearGradient><linearGradient id="g2" x2="1" href="#P" gradientTransform="matrix(0,-129.47,92.367,0,308.245,521.27)"><stop stop-color="#fead0b"/><stop offset="1" stop-color="#fffffd"/></linearGradient><linearGradient id="g3" x2="1" href="#P" gradientTransform="matrix(90.602,-90.602,64.638,64.638,365.336,542.713)"><stop stop-color="#fead0b"/><stop offset="1" stop-color="#fffffd"/></linearGradient><linearGradient id="g4" x2="1" href="#P" gradientTransform="matrix(129.47,0,0,92.367,389.276,598.791)"><stop stop-color="#fead0b"/><stop offset="1" stop-color="#fffffd"/></linearGradient><linearGradient id="g5" x2="1" href="#P" gradientTransform="matrix(90.602,90.602,-64.638,64.638,367.834,655.883)"><stop stop-color="#fead0b"/><stop offset="1" stop-color="#fffffd"/></linearGradient><linearGradient id="g6" x2="1" href="#P" gradientTransform="matrix(0,129.47,-92.367,0,311.755,679.822)"><stop stop-color="#fead0b"/><stop offset="1" stop-color="#fffffd"/></linearGradient><linearGradient id="g7" x2="1" href="#P" gradientTransform="matrix(-90.602,90.602,-64.638,-64.638,254.664,658.38)"><stop stop-color="#fead0b"/><stop offset="1" stop-color="#fffffd"/></linearGradient><linearGradient id="g8" x2="1" href="#P" gradientTransform="matrix(-129.47,0,0,-92.367,230.724,602.302)"><stop stop-color="#fead0b"/><stop offset="1" stop-color="#fffffd"/></linearGradient><linearGradient id="g9" x2="1" href="#P" gradientTransform="matrix(-90.602,-90.602,64.638,-64.638,252.166,545.21)"><stop stop-color="#fead0b"/><stop offset="1" stop-color="#fffffd"/></linearGradient><linearGradient id="g10" x2="1" href="#P" gradientTransform="matrix(96.818,36.606,-26.116,69.072,368.474,622.669)"><stop stop-color="#fead0b"/><stop offset="1" stop-color="#fffffd"/></linearGradient><linearGradient id="g11" x2="1" href="#P" gradientTransform="matrix(42.512,94.204,-67.207,30.329,336.327,659.439)"><stop stop-color="#fead0b"/><stop offset="1" stop-color="#fffffd"/></linearGradient><linearGradient id="g12" x2="1" href="#P" gradientTransform="matrix(-36.607,96.818,-69.072,-26.116,287.878,661.931)"><stop stop-color="#fead0b"/><stop offset="1" stop-color="#fffffd"/></linearGradient><linearGradient id="g13" x2="1" href="#P" gradientTransform="matrix(-94.203,42.512,-30.329,-67.207,251.107,629.784)"><stop stop-color="#fead0b"/><stop offset="1" stop-color="#fffffd"/></linearGradient><linearGradient id="g14" x2="1" href="#P" gradientTransform="matrix(-96.818,-36.606,26.116,-69.072,248.615,581.335)"><stop stop-color="#fead0b"/><stop offset="1" stop-color="#fffffd"/></linearGradient><linearGradient id="g15" x2="1" href="#P" gradientTransform="matrix(-42.512,-94.204,67.207,-30.329,280.763,544.564)"><stop stop-color="#fead0b"/><stop offset="1" stop-color="#fffffd"/></linearGradient><linearGradient id="g16" x2="1" href="#P" gradientTransform="matrix(36.606,-96.818,69.072,26.116,329.212,542.072)"><stop stop-color="#fead0b"/><stop offset="1" stop-color="#fffffd"/></linearGradient><linearGradient id="g17" x2="1" href="#P" gradientTransform="matrix(94.203,-42.512,30.329,67.207,365.982,574.219)"><stop stop-color="#fead0b"/><stop offset="1" stop-color="#fffffd"/></linearGradient><linearGradient id="g18" x2="1" href="#P" gradientTransform="matrix(110.193,-119.839,119.839,110.193,235.828,674.719)"><stop stop-color="#fead0b"/><stop offset="1" stop-color="#ffff79"/></linearGradient><linearGradient id="g19" x2="1" href="#P" gradientTransform="matrix(-15.741,0,0,-15.741,430.636,600.546)"><stop stop-color="#feae0c"/><stop offset="1" stop-color="#ffef64"/></linearGradient></defs><style>.a{fill:url(#g1)}.b{fill:url(#g2)}.c{fill:url(#g3)}.d{fill:url(#g4)}.e{fill:url(#g5)}.f{fill:url(#g6)}.g{fill:url(#g7)}.h{fill:url(#g8)}.i{fill:url(#g9)}.j{fill:url(#g10)}.k{fill:url(#g11)}.l{fill:url(#g12)}.m{fill:url(#g13)}.n{fill:url(#g14)}.o{fill:url(#g15)}.p{fill:url(#g16)}.q{fill:url(#g17)}.r{fill:url(#g18)}.s{mix-blend-mode:soft-light;fill:url(#g19)}</style><path class="a" d="m80.1 0.6h459.8c44.2 0 80 35.8 80 80v1185.3c0 44.2-35.8 80-80 80h-459.8c-44.2 0-80-35.8-80-80v-1185.3c0-44.2 35.8-80 80-80z"/><path class="b" d="m264.2 508.1c-4.2 4.2-1.1 7.3 4.9 9.6 6 2.5 12.3 3.3 16.7 3.7 4.6 0.3 8-0.1 10.7-0.1 4.8 0.3 8.1 0.1 11.7 0.1 0-9.8 0-21.1 0-26.8 0-5.7 0-10.1 0-31.8-5.7 0-9.5 4.7-23.6 19.2-7 15.4-16.7 21.8-20.4 26.1zm37.8-87.6c-2.1 12.3-3.6 30.7-17.4 61.5 14.1-14.5 17.9-19.2 23.6-19.2 0-43.6 0-62 0-71-1 0-2 1.8-2.8 5.4-1.1 4.3-1.7 10.8-3.4 23.3zm6.2 74.1c0 5.7 0 17 0 26.8 3.7 0 7 0.2 11.7-0.1 3 0 6.5 0.4 11.2 0.1 4.7-0.4 11-1.2 17-3.7 6-2.3 9-5.4 4.7-9.6-3.8-4.3-14-10.7-20.9-26.1-14.2-14.5-18-19.2-23.7-19.2 0 21.7 0 26.1 0 31.8zm0-31.8c5.7 0 9.5 4.7 23.7 19.2-13.8-30.8-15.4-49.2-17.4-61.5-1.7-12.5-2.3-19-3.4-23.3-0.8-3.6-1.8-5.4-2.9-5.4 0 9 0 27.4 0 71z"/><path class="c" d="m343 502.8c-5.9 0-6 4.4-3.3 10.2 2.5 6 6.3 11.1 9.2 14.5 3.1 3.4 5.6 5.6 7.6 7.5 3.1 3.6 5.7 5.8 8.2 8.4 7-7 14.9-15 19-19 4-4 7.1-7.2 22.5-22.5-4.1-4-10.1-3.4-30.3-3.2-15.8 6-27.2 3.7-32.9 4.1zm88.7-35.2c-10.2 7.2-24.3 19.2-55.8 31.1 20.2-0.2 26.2-0.8 30.3 3.2 30.8-30.9 43.8-43.8 50.2-50.2-0.8-0.8-2.7-0.2-5.9 1.8-3.8 2.3-8.8 6.4-18.8 14.1zm-48 56.8c-4.1 4-12 12-19 19 2.6 2.5 4.8 5 8.3 8.2 2.1 2 4.4 4.8 7.9 7.9 3.6 3 8.6 6.9 14.6 9.4 5.9 2.6 10.2 2.5 10.2-3.5 0.3-5.7-2.4-17.4 3.6-33.2 0.3-20.3 0.9-26.2-3.1-30.3-15.4 15.3-18.5 18.5-22.5 22.5zm22.5-22.5c4 4.1 3.4 10 3.1 30.3 12-31.6 23.9-45.6 31.2-55.8 7.6-10 11.8-15.1 14.1-18.9 2-3.1 2.5-5 1.8-5.8-6.4 6.4-19.4 19.3-50.2 50.2z"/><path class="d" d="m402.5 554.7c-4.3-4.1-7.4-1.1-9.6 5-2.5 6-3.4 12.2-3.7 16.7-0.3 4.6 0 7.9 0 10.7-0.3 4.7 0 8.1-0.1 11.7 9.9 0 21.1 0 26.9 0 5.6 0 10.1 0 31.8 0-0.1-5.7-4.7-9.5-19.2-23.7-15.4-6.9-21.8-16.6-26.1-20.4zm87.6 37.8c-12.4-2-30.8-3.5-61.5-17.4 14.5 14.2 19.1 18 19.2 23.7 43.6 0 61.9 0 70.9 0 0-1.1-1.7-2.1-5.3-2.9-4.3-1-10.9-1.7-23.3-3.4zm-74.1 6.3c-5.8 0-17 0-26.9 0 0.1 3.6-0.2 7 0.1 11.7 0 2.9-0.3 6.4 0 11.2 0.4 4.6 1.2 11 3.7 16.9 2.2 6 5.3 9 9.6 4.8 4.3-3.9 10.7-14 26.1-21 14.5-14.1 19.1-17.9 19.2-23.6-21.7 0-26.2 0-31.8 0zm31.8 0c-0.1 5.7-4.7 9.5-19.2 23.6 30.7-13.8 49.1-15.3 61.5-17.4 12.4-1.6 19-2.3 23.3-3.3 3.6-0.9 5.3-1.8 5.3-2.9-9 0-27.3 0-70.9 0z"/><path class="e" d="m407.8 633.5c-0.1-5.9-4.4-5.9-10.3-3.3-6 2.5-11 6.4-14.4 9.2-3.5 3.1-5.6 5.7-7.6 7.6-3.5 3.2-5.7 5.7-8.3 8.2 7 7 14.9 15 19 19 4 4 7.1 7.2 22.5 22.5 3.9-4.1 3.4-10 3.1-30.3-6-15.8-3.6-27.2-4-32.9zm35.2 88.7c-7.3-10.2-19.2-24.2-31.2-55.8 0.3 20.3 0.8 26.2-3.1 30.3 30.8 30.9 43.8 43.8 50.2 50.2 0.7-0.8 0.2-2.7-1.8-5.8-2.3-3.8-6.5-8.9-14.1-18.9zm-56.8-48c-4.1-4-12-12-19-19-2.5 2.6-5.1 4.8-8.2 8.4-2.1 2.1-4.8 4.3-8 7.9-3 3.5-6.9 8.6-9.3 14.6-2.7 5.8-2.6 10.1 3.4 10.1 5.8 0.3 17.4-2.3 33.3 3.7 20.2 0.2 26.2 0.8 30.3-3.2-15.4-15.3-18.5-18.5-22.5-22.5zm22.5 22.5c-4.1 4-10.1 3.4-30.3 3.2 31.5 11.9 45.6 23.9 55.8 31.1 9.9 7.7 15 11.8 18.8 14.1 3.2 2 5.1 2.6 5.9 1.8-6.4-6.4-19.4-19.3-50.2-50.2z"/><path class="f" d="m355.8 693c4.2-4.2 1.1-7.3-4.9-9.6-6-2.5-12.3-3.3-16.7-3.7-4.6-0.3-8 0.1-10.7 0.1-4.8-0.3-8.1-0.1-11.7-0.1 0 9.8 0 21.1 0 26.8 0 5.7 0 10.1 0 31.8 5.7 0 9.5-4.7 23.6-19.2 7-15.4 16.7-21.8 20.4-26.1zm-37.8 87.6c2.1-12.3 3.6-30.7 17.4-61.5-14.1 14.5-17.9 19.2-23.6 19.2 0 43.6 0 62 0 71 1 0 2-1.8 2.8-5.4 1.1-4.3 1.7-10.8 3.4-23.3zm-6.2-74.1c0-5.7 0-17 0-26.8-3.7 0-7-0.2-11.7 0.1-3 0-6.5-0.4-11.2-0.1-4.7 0.4-11 1.2-17 3.7-6 2.3-9 5.4-4.7 9.6 3.8 4.3 14 10.7 20.9 26.1 14.2 14.5 18 19.2 23.7 19.2 0-21.7 0-26.1 0-31.8zm0 31.8c-5.7 0-9.5-4.7-23.7-19.2 13.8 30.8 15.4 49.2 17.4 61.5 1.7 12.5 2.3 19 3.4 23.3 0.8 3.6 1.8 5.4 2.9 5.4 0-9 0-27.4 0-71z"/><path class="g" d="m277 698.3c5.9 0 6-4.4 3.3-10.2-2.5-6.1-6.3-11.1-9.2-14.5-3.1-3.4-5.6-5.6-7.6-7.5-3.1-3.6-5.7-5.8-8.2-8.4-7 7-14.9 15-19 19-4 4-7.1 7.2-22.5 22.5 4.1 4 10.1 3.4 30.3 3.2 15.8-6 27.2-3.7 32.9-4.1zm-88.7 35.2c10.2-7.2 24.3-19.2 55.8-31.1-20.2 0.2-26.2 0.8-30.3-3.2-30.8 30.9-43.8 43.8-50.2 50.2 0.8 0.8 2.7 0.2 5.9-1.8 3.8-2.3 8.8-6.4 18.8-14.1zm48-56.8c4.1-4 12-12 19-19-2.6-2.5-4.8-5-8.3-8.2-2.1-2-4.4-4.8-7.9-7.9-3.6-3-8.6-6.9-14.6-9.4-5.9-2.6-10.2-2.5-10.2 3.5-0.3 5.7 2.4 17.4-3.6 33.2-0.3 20.3-0.9 26.2 3.1 30.3 15.4-15.3 18.5-18.5 22.5-22.5zm-22.5 22.5c-4-4.1-3.4-10-3.1-30.3-12 31.5-23.9 45.6-31.2 55.8-7.6 10-11.8 15.1-14.1 18.9-2 3.1-2.5 5-1.8 5.8 6.4-6.4 19.4-19.3 50.2-50.2z"/><path class="h" d="m217.5 646.4c4.3 4.1 7.4 1 9.6-5 2.5-6 3.4-12.2 3.7-16.7 0.3-4.6 0-7.9 0-10.7 0.3-4.7 0-8.1 0.1-11.7-9.9 0-21.1 0-26.9 0-5.6 0-10.1 0-31.8 0 0.1 5.7 4.7 9.5 19.2 23.7 15.4 6.9 21.8 16.6 26.1 20.4zm-87.6-37.8c12.4 2 30.8 3.5 61.5 17.4-14.5-14.2-19.1-18-19.2-23.7-43.6 0-61.9 0-70.9 0 0 1.1 1.7 2.1 5.3 2.9 4.3 1 10.9 1.7 23.3 3.4zm74.1-6.3c5.8 0 17 0 26.9 0-0.1-3.6 0.2-7-0.1-11.7 0-2.9 0.3-6.5 0-11.2-0.4-4.6-1.2-11-3.7-17-2.2-5.9-5.3-8.9-9.6-4.7-4.3 3.9-10.7 14-26.1 21-14.5 14.1-19.1 17.9-19.2 23.6 21.7 0 26.2 0 31.8 0zm-31.8 0c0.1-5.7 4.7-9.5 19.2-23.6-30.7 13.8-49.1 15.3-61.5 17.4-12.4 1.6-19 2.3-23.3 3.3-3.6 0.9-5.3 1.8-5.3 2.9 9 0 27.3 0 70.9 0z"/><path class="i" d="m212.2 567.6c0.1 5.9 4.4 5.9 10.3 3.3 6-2.5 11-6.4 14.4-9.2 3.5-3.1 5.6-5.7 7.6-7.6 3.5-3.2 5.7-5.7 8.3-8.2-7-7-14.9-15-19-19-4-4-7.1-7.2-22.5-22.5-3.9 4-3.4 10-3.1 30.3 6 15.8 3.6 27.2 4 32.9zm-35.2-88.7c7.3 10.2 19.2 24.2 31.2 55.8-0.3-20.3-0.8-26.3 3.1-30.3-30.8-30.9-43.8-43.8-50.2-50.2-0.7 0.8-0.2 2.7 1.8 5.8 2.3 3.8 6.5 8.9 14.1 18.9zm56.8 48c4.1 4 12 12 19 19 2.5-2.6 5.1-4.9 8.2-8.4 2.1-2.1 4.8-4.3 8-7.9 3-3.5 6.9-8.6 9.3-14.6 2.7-5.8 2.6-10.1-3.4-10.1-5.8-0.3-17.4 2.3-33.3-3.7-20.2-0.2-26.2-0.8-30.3 3.2 15.4 15.3 18.5 18.5 22.5 22.5zm-22.5-22.5c4.1-4 10.1-3.4 30.3-3.2-31.5-11.9-45.6-23.9-55.8-31.2-9.9-7.6-15-11.7-18.8-14-3.2-2-5.1-2.6-5.9-1.8 6.4 6.4 19.4 19.3 50.2 50.2z"/><path class="j" d="m390.9 593.9c-2.1-4.3-5.2-2.9-8.6 0.9-3.6 3.8-6 8.3-7.6 11.5-1.5 3.4-2.2 6-3 8.1-1.5 3.4-2.3 6-3.3 8.7 7.4 2.8 15.8 6 20.1 7.6 4.2 1.6 7.6 2.9 23.8 9 1.6-4.3-0.8-8.4-7.6-23.1-9.6-9.6-11.7-18.7-13.8-22.7zm54.9 53.1c-8.7-5-22-11.3-41.1-30.4 6.8 14.7 9.2 18.8 7.6 23.1 32.7 12.4 46.5 17.6 53.2 20.2 0.3-0.9-0.7-2.1-3.2-3.7-2.9-2-7.6-4.4-16.5-9.2zm-57.3-16.3c-4.3-1.6-12.7-4.8-20.1-7.6-1 2.7-2.2 5.2-3.3 8.8-0.8 2.2-2.1 4.8-3.2 8.4-1 3.6-2.2 8.6-2 13.8 0 5.1 1.4 8.2 5.8 6.2 4.4-1.7 12-7.4 25.5-8.3 14.9-6.5 19.5-8 21.1-12.3-16.2-6.1-19.6-7.4-23.8-9zm23.8 9c-1.6 4.3-6.2 5.8-21.1 12.3 27-1.6 41.2 2.4 51.1 4.4 9.8 2.3 14.9 3.6 18.4 4.1 2.9 0.4 4.5 0.2 4.8-0.6-6.7-2.6-20.5-7.8-53.2-20.2z"/><path class="k" d="m372.5 654.5c1.6-4.5-1.6-5.8-6.8-5.4-5.2 0.1-10 1.6-13.4 2.8-3.5 1.3-5.8 2.6-7.8 3.5-3.5 1.4-5.9 2.7-8.6 3.8 3.3 7.2 7 15.4 8.9 19.6 1.8 4.2 3.3 7.4 10.5 23.3 4.1-2 5.3-6.6 10.9-21.8 0-13.6 5-21.5 6.3-25.8zm1.3 76.4c-2.6-9.7-7.6-23.6-7.6-50.6-5.6 15.2-6.8 19.8-10.9 21.8 14.3 31.8 20.4 45.2 23.4 51.8 0.7-0.3 0.9-1.9 0.3-4.9-0.7-3.5-2.3-8.4-5.2-18.1zm-29-52.1c-1.9-4.2-5.6-12.4-8.9-19.6-2.6 1.2-5.1 2.2-8.5 3.9-2.1 1-4.8 1.9-8.2 3.7-3.2 1.8-7.6 4.5-11.2 8.3-3.6 3.6-4.7 6.9-0.2 8.6 4.2 1.8 13.7 3.2 23.9 12.2 15.1 5.9 19.4 8 23.6 6.2-7.2-15.9-8.7-19.1-10.5-23.3zm10.5 23.3c-4.2 1.8-8.5-0.3-23.6-6.2 20.2 17.8 27.4 30.8 32.9 39.1 5.4 8.6 8 13.1 10.2 15.9 1.8 2.4 3.1 3.4 3.9 3-3-6.6-9.1-20-23.4-51.8z"/><path class="l" d="m316.7 684.3c4.3-2 2.9-5.2-1-8.6-3.8-3.5-8.2-5.9-11.5-7.5-3.4-1.5-5.9-2.2-8-3-3.5-1.6-6.1-2.3-8.8-3.4-2.8 7.4-5.9 15.8-7.6 20.1-1.6 4.3-2.8 7.6-9 23.9 4.3 1.6 8.5-0.9 23.2-7.7 9.6-9.6 18.6-11.6 22.7-13.8zm-53.2 55c5-8.7 11.4-22.1 30.5-41.2-14.7 6.8-18.9 9.3-23.2 7.7-12.4 32.7-17.6 46.4-20.1 53.2 0.8 0.3 2-0.7 3.7-3.2 2-3 4.3-7.7 9.1-16.5zm16.3-57.4c1.7-4.3 4.8-12.7 7.6-20.1-2.7-1-5.1-2.1-8.8-3.2-2.2-0.9-4.7-2.1-8.4-3.2-3.5-1.1-8.5-2.2-13.7-2.1-5.1 0-8.2 1.5-6.3 5.9 1.7 4.3 7.5 12 8.3 25.5 6.5 14.9 8.1 19.4 12.3 21.1 6.2-16.3 7.4-19.6 9-23.9zm-9 23.9c-4.2-1.7-5.8-6.2-12.3-21.1 1.7 27-2.4 41.2-4.4 51-2.2 9.8-3.6 14.9-4 18.4-0.4 3-0.2 4.6 0.6 4.9 2.5-6.8 7.7-20.5 20.1-53.2z"/><path class="m" d="m256.1 666c4.5 1.6 5.7-1.7 5.4-6.8-0.2-5.2-1.6-10.1-2.8-13.4-1.3-3.5-2.7-5.8-3.6-7.8-1.3-3.6-2.6-6-3.8-8.6-7.2 3.2-15.4 6.9-19.6 8.8-4.1 1.9-7.4 3.4-23.2 10.5 1.9 4.1 6.6 5.4 21.8 11 13.6 0 21.4 4.9 25.8 6.3zm-76.5 1.2c9.7-2.6 23.7-7.5 50.7-7.5-15.2-5.6-19.9-6.9-21.8-11-31.9 14.4-45.3 20.4-51.9 23.4 0.4 0.8 2 0.9 4.9 0.3 3.5-0.6 8.5-2.3 18.1-5.2zm52.1-29c4.2-1.9 12.4-5.6 19.6-8.8-1.2-2.7-2.1-5.2-3.9-8.5-1-2.2-1.9-4.9-3.7-8.2-1.8-3.3-4.5-7.7-8.3-11.2-3.6-3.6-6.8-4.8-8.5-0.3-1.9 4.2-3.2 13.7-12.2 23.9-5.9 15.1-8.1 19.4-6.2 23.6 15.8-7.1 19.1-8.6 23.2-10.5zm-23.2 10.5c-1.9-4.2 0.3-8.5 6.2-23.6-17.9 20.3-30.8 27.4-39.2 33-8.5 5.3-13.1 7.9-15.9 10.1-2.4 1.8-3.3 3.1-3 3.9 6.6-3 20-9 51.9-23.4z"/><path class="n" d="m226.2 610.1c2 4.3 5.2 2.9 8.6-0.9 3.6-3.8 6-8.3 7.5-11.5 1.6-3.4 2.3-6 3-8.1 1.6-3.4 2.4-6 3.4-8.7-7.4-2.8-15.8-6-20.1-7.6-4.2-1.6-7.6-2.9-23.9-9-1.5 4.3 0.9 8.4 7.7 23.1 9.6 9.6 11.7 18.7 13.8 22.7zm-54.9-53.1c8.7 5 22 11.4 41.1 30.4-6.8-14.7-9.2-18.8-7.7-23.1-32.6-12.4-46.4-17.6-53.2-20.1-0.3 0.8 0.8 2 3.3 3.6 2.9 2 7.6 4.4 16.5 9.2zm57.3 16.3c4.3 1.6 12.7 4.8 20.1 7.6 1-2.7 2.2-5.2 3.3-8.8 0.8-2.2 2-4.8 3.2-8.4 1-3.6 2.2-8.6 2-13.8 0-5.1-1.5-8.2-5.9-6.2-4.3 1.7-11.9 7.4-25.5 8.3-14.8 6.5-19.4 8-21.1 12.3 16.3 6.1 19.7 7.4 23.9 9zm-23.9-9c1.7-4.3 6.3-5.8 21.1-12.3-26.9 1.6-41.1-2.4-51-4.4-9.8-2.3-14.9-3.6-18.4-4.1-3-0.4-4.5-0.2-4.9 0.7 6.8 2.5 20.6 7.7 53.2 20.1z"/><path class="o" d="m244.6 549.5c-1.6 4.5 1.6 5.8 6.7 5.4 5.3-0.1 10.1-1.6 13.5-2.8 3.4-1.3 5.8-2.6 7.8-3.5 3.5-1.4 5.9-2.7 8.6-3.8-3.3-7.2-7-15.4-8.9-19.6-1.8-4.2-3.3-7.4-10.5-23.3-4.1 2-5.3 6.6-10.9 21.8 0 13.6-5 21.5-6.3 25.8zm-1.3-76.4c2.6 9.7 7.6 23.6 7.6 50.6 5.6-15.2 6.8-19.8 10.9-21.8-14.3-31.8-20.4-45.2-23.4-51.8-0.7 0.3-0.9 1.9-0.3 4.9 0.7 3.5 2.3 8.4 5.2 18.1zm29 52.1c1.9 4.2 5.6 12.4 8.9 19.6 2.6-1.2 5.1-2.2 8.5-3.9 2.1-1 4.8-1.9 8.2-3.7 3.2-1.8 7.6-4.5 11.2-8.3 3.6-3.6 4.7-6.9 0.2-8.6-4.2-1.8-13.7-3.2-23.9-12.1-15.1-6-19.4-8.1-23.6-6.3 7.2 15.9 8.7 19.1 10.5 23.3zm-10.5-23.3c4.2-1.8 8.5 0.3 23.6 6.3-20.2-17.9-27.4-30.9-32.9-39.2-5.4-8.6-8-13.1-10.2-15.9-1.8-2.4-3.1-3.4-3.9-3 3 6.6 9.1 20 23.4 51.8z"/><path class="p" d="m300.4 519.7c-4.3 2-2.9 5.2 1 8.6 3.8 3.6 8.2 6 11.5 7.5 3.3 1.5 5.9 2.2 8 3 3.5 1.6 6.1 2.3 8.7 3.4 2.8-7.4 6-15.8 7.7-20.1 1.6-4.3 2.8-7.6 9-23.9-4.3-1.5-8.5 0.9-23.2 7.7-9.6 9.6-18.7 11.6-22.7 13.8zm53.2-55c-5.1 8.7-11.4 22.1-30.5 41.2 14.7-6.8 18.9-9.2 23.2-7.7 12.3-32.7 17.5-46.4 20.1-53.2-0.8-0.3-2 0.7-3.7 3.2-2 3-4.3 7.7-9.1 16.5zm-16.3 57.4c-1.7 4.3-4.9 12.7-7.7 20.1 2.8 1 5.2 2.1 8.8 3.2 2.3 0.9 4.8 2.1 8.4 3.2 3.6 1.1 8.6 2.2 13.8 2.1 5.1 0 8.2-1.5 6.3-5.9-1.7-4.3-7.5-12-8.3-25.5-6.5-14.9-8.1-19.4-12.3-21.1-6.2 16.3-7.4 19.6-9 23.9zm9-23.9c4.2 1.7 5.8 6.2 12.3 21.1-1.7-27 2.4-41.2 4.3-51 2.3-9.8 3.7-14.9 4.1-18.4 0.4-3 0.2-4.6-0.6-4.9-2.6 6.8-7.8 20.5-20.1 53.2z"/><path class="q" d="m361 538c-4.5-1.6-5.7 1.7-5.4 6.8 0.2 5.2 1.6 10.1 2.8 13.4 1.3 3.5 2.7 5.8 3.6 7.9 1.3 3.5 2.6 5.9 3.8 8.5 7.2-3.2 15.4-6.9 19.6-8.8 4.1-1.9 7.4-3.4 23.2-10.5-1.9-4.1-6.6-5.4-21.8-11-13.6 0-21.4-4.9-25.8-6.3zm76.5-1.2c-9.7 2.6-23.7 7.5-50.7 7.5 15.2 5.6 19.9 6.9 21.8 11 31.9-14.4 45.3-20.4 51.9-23.4-0.4-0.8-2-0.9-4.9-0.3-3.5 0.6-8.5 2.3-18.1 5.2zm-52.1 29c-4.2 1.9-12.4 5.6-19.6 8.8 1.2 2.7 2.1 5.2 3.9 8.5 1 2.2 1.9 4.9 3.7 8.3 1.8 3.2 4.5 7.6 8.2 11.1 3.7 3.6 6.9 4.8 8.6 0.3 1.9-4.2 3.2-13.7 12.2-23.9 5.9-15.1 8-19.4 6.2-23.6-15.8 7.1-19.1 8.6-23.2 10.5zm23.2-10.5c1.8 4.2-0.3 8.5-6.2 23.6 17.9-20.2 30.8-27.4 39.2-33 8.5-5.3 13.1-7.9 15.9-10.1 2.4-1.8 3.3-3.1 3-3.9-6.6 3-20 9-51.9 23.4z"/><path class="r" d="m235.8 674.7c19 19 45.2 30.7 74.2 30.7 9.7 0 19.1-1.3 28.1-3.8q3.2-17.1 5.5-34.3c-9.8 1.9-22.7 3.5-33.1 3.6-31.1 0.1-68.5-3.8-91.1-17.5 4.6 7.8 10.1 15 16.4 21.3zm-30.7-74.2c0 19.3 5.2 37.4 14.3 52.9 22.6 13.7 60 17.6 91.1 17.5 10.4-0.1 23.3-1.7 33.1-3.6 4.8-37.3 6.1-74.8 2.4-112.4-44.9-3.8-91.6-1.3-135.1 11.1-3.7 10.8-5.8 22.4-5.8 34.5zm5.8-34.5c43.5-12.4 90.2-14.9 135.1-11.1-2-20.7-5-40-7.9-55.4-9-2.5-18.4-3.8-28.1-3.8-29 0-55.2 11.7-74.2 30.7-11 11-19.6 24.5-24.9 39.6zm127.2 135.6c17.7-4.9 33.5-14.3 46.1-26.9 6.3-6.3 11.8-13.5 16.4-21.3-14.1 9.3-37.8 10.4-57 13.9q-2.3 17.2-5.5 34.3zm5.5-34.3c19.2-3.5 42.9-4.6 57-13.9 9.1-15.5 14.3-33.6 14.3-52.9 0-12.1-2.1-23.7-5.8-34.5-16.9-4.8-41.2-9.3-63.1-11.1 3.7 37.6 2.4 75.1-2.4 112.4zm2.4-112.4c21.9 1.8 46.2 6.3 63.1 11.1-5.3-15.1-13.9-28.6-24.9-39.6-12.6-12.6-28.4-22-46.1-26.9 2.9 15.4 5.9 34.7 7.9 55.4z"/><path fill-rule="evenodd" class="s" d="m313 721.1c0.9 0 2.2 0 3.7-0.1q2.2-0.2 5.1-0.4c2-0.2 4.2-0.5 6.6-0.8q1.8-0.3 3.9-0.7 1-0.2 2-0.4 1-0.2 2.1-0.5c1.5-0.3 3-0.6 4.5-1q2.3-0.7 4.8-1.4 2.5-0.8 5.1-1.7c1.8-0.6 3.5-1.4 5.4-2.1 1.8-0.7 3.6-1.6 5.6-2.5 1.9-0.9 3.8-1.9 5.7-2.9q1.5-0.8 3-1.7c1-0.6 2-1.1 3-1.8 1.9-1.2 4-2.5 6-3.9 4-2.8 8-6.2 12.1-9.8q6-5.5 11.6-12.3c7.5-9.2 14.4-20.2 19.4-33.1 4.9-12.9 8-27.7 8-43.5q-0.8 0-0.8 0c0 15.7-3.1 30.4-8 43.2-4.9 12.8-11.8 23.8-19.2 32.9q-5.6 6.7-11.6 12.2c-4 3.6-8 6.9-12 9.7-2 1.4-4 2.7-6 3.9-0.9 0.7-2 1.2-2.9 1.8q-1.5 0.9-2.9 1.7c-2 1-3.9 2-5.8 2.9-1.9 0.8-3.7 1.7-5.5 2.5-1.9 0.7-3.6 1.4-5.3 2q-2.7 0.9-5.1 1.7-2.5 0.7-4.8 1.4c-1.5 0.4-3 0.7-4.5 1q-1 0.3-2.1 0.5-1 0.2-2 0.4-2 0.4-3.8 0.7c-2.4 0.3-4.6 0.6-6.6 0.8q-2.9 0.2-5.1 0.4c-1.5 0.1-2.7 0.1-3.7 0.1q-2.9 0.1-2.9 0.1 0 0 0 0.8 0 0 3-0.1zm-3 0.1q0-0.8 0-0.8 0 0 0 0 0 0 0 0.8 0 0 0 0zm-111.5-74.5c6.1 14.6 15 28 26.2 39.1 11.2 11.2 24.5 20.2 39.1 26.2 14.6 6.1 30.4 9.2 46.2 9.2q0-0.8 0-0.8c-15.7 0-31.4-3.1-45.9-9.1-14.5-6.1-27.7-14.9-38.8-26-11.1-11.1-20-24.4-26-38.9-6-14.5-9.1-30.2-9.1-45.8q0 0-0.8 0c0 15.7 3.1 31.5 9.1 46.1zm-9.1-46.1q0.8 0 0.8 0 0-0.1 0-0.1 0 0-0.8 0 0 0 0 0.1zm74.4-111.5c-14.6 6-27.9 15-39.1 26.1-11.2 11.2-20.1 24.6-26.2 39.2-6 14.6-9.1 30.4-9.1 46.1q0.8 0 0.8 0c0-15.6 3.1-31.3 9.1-45.8 6-14.5 14.9-27.8 26-38.9 11.1-11.1 24.3-20 38.8-26 14.5-6 30.2-9.1 45.9-9.1q0 0 0-0.8c-15.8 0-31.6 3.1-46.2 9.2zm46.2-9.2q0 0.8 0 0.8 0 0 0 0 0 0 0-0.8 0 0 0 0zm112.6 77.2c-5-12.9-11.9-23.9-19.4-33.1q-5.6-6.8-11.6-12.3c-4.1-3.6-8.1-7-12.1-9.8-2-1.4-4.1-2.7-6-3.9-1-0.7-2-1.2-3-1.8q-1.5-0.9-3-1.7c-1.9-1-3.8-2-5.7-2.9-2-0.9-3.8-1.8-5.6-2.5-1.9-0.7-3.6-1.5-5.4-2.1q-2.6-0.9-5.1-1.7-2.5-0.7-4.8-1.4c-1.5-0.4-3-0.7-4.5-1.1q-1.1-0.2-2.1-0.4-1-0.2-2-0.4-2.1-0.4-3.9-0.7c-2.4-0.3-4.6-0.6-6.6-0.8q-2.9-0.2-5.1-0.4c-1.5-0.1-2.8-0.1-3.7-0.1q-3-0.1-3-0.1 0 0.8 0 0.8 0 0 2.9 0.1c1 0 2.2 0 3.7 0.1q2.2 0.2 5.1 0.4c2 0.2 4.2 0.5 6.6 0.8q1.8 0.3 3.8 0.7 1 0.2 2 0.4 1.1 0.2 2.1 0.4c1.5 0.4 3 0.7 4.5 1.1q2.3 0.7 4.8 1.4 2.4 0.8 5.1 1.7c1.7 0.6 3.4 1.3 5.3 2 1.8 0.8 3.6 1.7 5.5 2.5 1.9 0.9 3.8 1.9 5.8 2.9q1.4 0.8 2.9 1.7c0.9 0.6 2 1.1 2.9 1.7 2 1.3 4 2.6 6 4 4 2.8 8 6.1 12 9.7q6 5.5 11.6 12.2c7.4 9.1 14.3 20.1 19.2 32.9 4.9 12.8 8 27.5 8 43.1q0 0 0.8 0c0-15.7-3.1-30.5-8-43.4zm-109.7 163.2c1 0 2.2 0 3.7-0.1q2.2-0.2 5.1-0.4c2-0.2 4.2-0.5 6.6-0.8q1.8-0.3 3.8-0.7 1-0.2 2-0.4 1.1-0.2 2.1-0.5c1.5-0.3 3-0.6 4.5-1q2.3-0.7 4.8-1.4 2.4-0.8 5.1-1.7c1.7-0.6 3.4-1.3 5.3-2 1.8-0.8 3.6-1.7 5.5-2.5 1.9-0.9 3.8-1.9 5.8-2.9q1.4-0.8 2.9-1.7c0.9-0.6 2-1.1 2.9-1.8 2-1.2 4-2.5 6-3.9 4-2.8 8-6.1 12-9.7q6-5.5 11.6-12.2c7.4-9.1 14.3-20.1 19.2-32.9 4.9-12.8 8-27.5 8-43.2q-0.4 0-0.8 0c0 15.6-3.1 30.2-8 42.9-4.8 12.7-11.7 23.6-19 32.6q-5.6 6.8-11.5 12.2c-4 3.6-8 6.9-12 9.6-1.9 1.5-4 2.7-5.9 4-1 0.6-2 1.1-2.9 1.7q-1.5 0.8-2.9 1.7c-2 1-3.9 2-5.7 2.9-1.9 0.8-3.7 1.7-5.5 2.4-1.9 0.7-3.6 1.4-5.3 2q-2.6 0.9-5 1.7-2.5 0.7-4.8 1.4c-1.5 0.4-3 0.7-4.4 1.1q-1.1 0.2-2.1 0.4-1.1 0.2-2 0.4-2 0.3-3.8 0.7c-2.4 0.3-4.6 0.6-6.5 0.8q-3 0.2-5.1 0.4c-1.5 0-2.7 0-3.7 0.1q-2.9 0.1-2.9 0.1 0 0.4 0 0.8 0 0 2.9-0.1zm-2.9 0.1q0-0.4 0-0.8 0 0 0 0 0 0.4 0 0.8 0 0 0 0zm-110.7-74c6 14.5 14.9 27.8 26 38.9 11.1 11.1 24.3 19.9 38.8 26 14.5 6 30.2 9.1 45.9 9.1q0-0.4 0-0.8c-15.5-0.1-31.2-3.1-45.6-9.1-14.4-6-27.5-14.8-38.5-25.8-11.1-11-19.9-24.2-25.9-38.6-5.9-14.4-9-30-9-45.5q-0.4 0-0.8 0c0 15.6 3.1 31.3 9.1 45.8zm-9.1-45.8q0.4 0 0.8 0 0-0.1 0-0.1-0.4 0-0.8 0 0 0 0 0.1zm73.9-110.8c-14.5 6-27.7 14.9-38.8 26-11.1 11.1-20 24.4-26 38.9-6 14.5-9.1 30.2-9.1 45.8q0.4 0 0.8 0c0-15.5 3.1-31.1 9-45.5 6-14.4 14.8-27.6 25.9-38.6 11-11 24.1-19.8 38.5-25.8 14.4-6 30.1-9.1 45.6-9.1q0-0.4 0-0.8c-15.7 0-31.4 3.1-45.9 9.1zm45.9-9.1q0 0.4 0 0.8 0 0 0 0 0-0.4 0-0.8 0 0 0 0zm111.8 76.7c-4.9-12.8-11.8-23.8-19.2-32.9q-5.6-6.7-11.6-12.2c-4-3.6-8-6.9-12-9.7-2-1.4-4-2.7-6-4-0.9-0.6-2-1.1-2.9-1.7q-1.5-0.9-2.9-1.7c-2-1-3.9-2-5.8-2.9-1.9-0.8-3.7-1.7-5.5-2.5-1.9-0.7-3.6-1.4-5.3-2q-2.7-0.9-5.1-1.7-2.5-0.7-4.8-1.4c-1.5-0.4-3-0.7-4.5-1.1q-1-0.2-2.1-0.4-1-0.2-2-0.4-2-0.4-3.8-0.7c-2.4-0.3-4.6-0.6-6.6-0.8q-2.9-0.2-5.1-0.4c-1.5-0.1-2.7-0.1-3.7-0.1q-2.9-0.1-2.9-0.1 0 0.4 0 0.8 0 0 2.9 0.1c1 0 2.2 0 3.7 0.1q2.1 0.2 5.1 0.4c1.9 0.2 4.1 0.5 6.5 0.8q1.8 0.3 3.8 0.7 0.9 0.2 2 0.4 1 0.2 2.1 0.4c1.4 0.4 2.9 0.7 4.4 1.1q2.3 0.7 4.8 1.4 2.4 0.8 5 1.6c1.7 0.7 3.4 1.4 5.3 2.1 1.8 0.7 3.6 1.6 5.5 2.4 1.8 0.9 3.7 1.9 5.7 2.9q1.4 0.8 2.9 1.7c0.9 0.6 1.9 1.1 2.9 1.7 1.9 1.3 4 2.5 5.9 4 4 2.7 8 6 12 9.6q5.9 5.4 11.5 12.1c7.3 9.1 14.2 20 19 32.7 4.9 12.7 8 27.3 8 42.8q0.4 0 0.8 0c0-15.6-3.1-30.3-8-43.1zm-108.9 162.1c1-0.1 2.2-0.1 3.7-0.1q2.1-0.2 5.1-0.4c1.9-0.2 4.1-0.5 6.5-0.8q1.8-0.4 3.8-0.7 0.9-0.2 2-0.4 1-0.2 2.1-0.4c1.4-0.4 2.9-0.7 4.4-1.1q2.3-0.7 4.8-1.4 2.4-0.8 5-1.7c1.7-0.6 3.4-1.3 5.3-2 1.8-0.7 3.6-1.6 5.5-2.4 1.8-0.9 3.7-1.9 5.7-2.9q1.4-0.9 2.9-1.7c0.9-0.6 1.9-1.1 2.9-1.7 1.9-1.3 4-2.5 5.9-4 4-2.7 8-6 12-9.6q5.9-5.4 11.5-12.2c7.3-9 14.2-19.9 19-32.6 4.9-12.7 8-27.3 8-42.9q-0.4 0-0.8 0c0 15.5-3.1 30-7.9 42.6-4.9 12.7-11.6 23.4-18.9 32.4q-5.6 6.7-11.5 12.1c-3.9 3.6-7.9 6.8-11.8 9.6-2 1.4-4 2.6-5.9 3.9-1 0.6-2 1.1-3 1.7q-1.4 0.8-2.8 1.6c-2 1-3.8 2-5.7 2.9-1.9 0.9-3.7 1.7-5.5 2.4-1.8 0.7-3.5 1.5-5.2 2.1q-2.6 0.8-5 1.7-2.4 0.7-4.7 1.3c-1.5 0.4-3 0.7-4.4 1.1q-1.1 0.2-2.1 0.4-1 0.2-2 0.4-2 0.3-3.7 0.7c-2.4 0.3-4.6 0.6-6.5 0.8q-2.9 0.2-5.1 0.3c-1.4 0.1-2.6 0.1-3.6 0.2q-2.9 0-2.9 0 0 0.4 0 0.9 0 0 2.9-0.1zm-2.9 0.1q0-0.5 0-0.9 0 0 0 0 0 0.4 0 0.9 0 0 0 0zm-110-73.5c6 14.4 14.8 27.6 25.9 38.6 11 11 24.1 19.8 38.5 25.8 14.4 6 30.1 9 45.6 9.1q0-0.5 0-0.9c-15.4 0-30.9-3-45.2-9-14.3-5.9-27.4-14.6-38.4-25.6-10.9-10.9-19.7-24-25.6-38.3-5.9-14.3-9-29.8-9-45.2q-0.4 0-0.8 0c0 15.5 3.1 31.1 9 45.5zm-9-45.5q0.4 0 0.8 0 0-0.1 0-0.1-0.4 0-0.8 0 0 0 0 0.1zm73.4-110c-14.4 6-27.5 14.8-38.5 25.8-11.1 11-19.9 24.2-25.9 38.6-5.9 14.4-9 30-9 45.5q0.4 0 0.8 0c0-15.4 3.1-30.9 9-45.2 5.9-14.3 14.7-27.4 25.6-38.3 11-11 24.1-19.7 38.4-25.7 14.3-5.9 29.8-8.9 45.2-8.9q0-0.5 0-0.9c-15.5 0-31.2 3.1-45.6 9.1zm45.6-9.1q0 0.4 0 0.9 0 0 0 0 0-0.5 0-0.9 0 0 0 0zm111 76.2c-4.8-12.7-11.7-23.6-19-32.7q-5.6-6.7-11.5-12.1c-4-3.6-8-6.9-12-9.6-1.9-1.5-4-2.7-5.9-4-1-0.6-2-1.1-2.9-1.7q-1.5-0.9-2.9-1.7c-2-1-3.9-2-5.7-2.9-1.9-0.8-3.7-1.7-5.5-2.4-1.9-0.7-3.6-1.4-5.3-2.1q-2.6-0.8-5-1.6-2.5-0.7-4.8-1.4c-1.5-0.4-3-0.7-4.4-1.1q-1.1-0.2-2.1-0.4-1.1-0.2-2-0.4-2-0.4-3.8-0.7c-2.4-0.3-4.6-0.6-6.5-0.8q-3-0.2-5.1-0.4c-1.5-0.1-2.7-0.1-3.7-0.1q-2.9-0.1-2.9-0.1 0 0.4 0 0.9 0 0 2.9 0c1 0.1 2.2 0.1 3.6 0.1q2.2 0.2 5.1 0.4c1.9 0.2 4.1 0.5 6.5 0.8q1.7 0.3 3.7 0.7 1 0.2 2 0.4 1 0.2 2.1 0.4c1.4 0.4 2.9 0.7 4.4 1.1q2.3 0.6 4.7 1.3 2.4 0.8 5 1.7c1.7 0.6 3.4 1.3 5.2 2 1.8 0.8 3.6 1.6 5.5 2.5 1.9 0.9 3.7 1.9 5.7 2.8q1.4 0.9 2.8 1.7c1 0.6 2 1.1 3 1.7 1.9 1.3 3.9 2.5 5.9 3.9 3.9 2.8 7.9 6 11.8 9.6q5.9 5.4 11.5 12.1c7.3 9 14 19.7 18.9 32.4 4.8 12.6 7.9 27.1 7.9 42.5q0.4 0 0.8 0c0-15.5-3.1-30.1-8-42.8zm-108.1 161c1-0.1 2.2-0.1 3.6-0.2q2.2-0.1 5.1-0.3c1.9-0.2 4.1-0.5 6.5-0.8q1.7-0.4 3.7-0.7 1-0.2 2-0.4 1-0.2 2.1-0.4c1.4-0.4 2.9-0.7 4.4-1.1q2.3-0.6 4.7-1.3 2.4-0.9 5-1.7c1.7-0.6 3.4-1.4 5.2-2.1 1.8-0.7 3.6-1.5 5.5-2.4 1.9-0.9 3.7-1.9 5.7-2.9q1.4-0.8 2.8-1.6c1-0.6 2-1.1 3-1.7 1.9-1.3 3.9-2.5 5.9-3.9 3.9-2.8 7.9-6 11.8-9.6q5.9-5.4 11.5-12.1c7.3-9 14-19.7 18.9-32.4 4.8-12.6 7.9-27.1 7.9-42.6q-0.4 0-0.8 0c0 15.4-3.1 29.8-7.9 42.3-4.8 12.6-11.5 23.3-18.8 32.2q-5.5 6.6-11.3 12c-4 3.5-7.9 6.8-11.8 9.5-1.9 1.4-3.9 2.6-5.9 3.9-0.9 0.6-1.9 1.1-2.9 1.7q-1.4 0.8-2.8 1.6c-1.9 1-3.8 2-5.6 2.9-1.9 0.8-3.7 1.7-5.5 2.4-1.8 0.7-3.5 1.4-5.2 2q-2.5 0.9-4.9 1.7-2.5 0.7-4.7 1.3c-1.5 0.4-3 0.7-4.4 1.1q-1 0.2-2.1 0.4-1 0.2-1.9 0.4-2 0.3-3.8 0.7c-2.4 0.3-4.5 0.6-6.4 0.8q-2.9 0.2-5 0.3c-1.5 0.1-2.7 0.1-3.6 0.2q-2.9 0-2.9 0 0 0.4 0 0.8 0 0 2.9 0zm-2.9 0q0-0.4 0-0.8 0 0 0 0 0 0.4 0 0.8 0 0 0 0zm-109.2-72.9c5.9 14.3 14.7 27.4 25.6 38.3 11 11 24.1 19.7 38.4 25.6 14.3 6 29.8 9 45.2 9q0-0.4 0-0.8c-15.3 0-30.7-3-44.9-8.9-14.2-5.9-27.2-14.6-38.1-25.5-10.9-10.8-19.6-23.8-25.4-38-5.9-14.2-9-29.6-9-44.9q-0.4 0-0.8 0c0 15.4 3.1 30.9 9 45.2zm-9-45.2q0.4 0 0.8 0 0-0.1 0-0.1-0.4 0-0.8 0 0 0 0 0.1zm73-109.3c-14.3 6-27.4 14.7-38.4 25.7-10.9 10.9-19.7 24-25.6 38.3-5.9 14.3-9 29.8-9 45.2q0.4 0 0.8 0c0-15.3 3.1-30.7 9-44.9 5.8-14.2 14.5-27.2 25.4-38 10.9-10.9 23.9-19.6 38.1-25.5 14.2-5.9 29.6-8.9 44.9-8.9q0-0.4 0-0.8c-15.4 0-30.9 3-45.2 8.9zm45.2-8.9q0 0.4 0 0.8 0 0 0 0 0-0.4 0-0.8 0 0 0 0zm110.3 75.6c-4.9-12.7-11.6-23.4-18.9-32.4q-5.6-6.7-11.5-12.1c-3.9-3.6-7.9-6.8-11.8-9.6-2-1.4-4-2.6-5.9-3.9-1-0.6-2-1.1-3-1.7q-1.4-0.8-2.8-1.7c-2-0.9-3.8-1.9-5.7-2.8-1.9-0.9-3.7-1.7-5.5-2.5-1.8-0.7-3.5-1.4-5.2-2q-2.6-0.9-5-1.7-2.4-0.7-4.7-1.3c-1.5-0.4-3-0.7-4.4-1.1q-1.1-0.2-2.1-0.4-1-0.2-2-0.4-2-0.4-3.7-0.7c-2.4-0.3-4.6-0.6-6.5-0.8q-2.9-0.2-5.1-0.4c-1.4 0-2.6 0-3.6-0.1q-2.9 0-2.9 0 0 0.4 0 0.8 0 0 2.9 0c0.9 0.1 2.1 0.1 3.6 0.2q2.1 0.1 5 0.3c1.9 0.2 4 0.5 6.4 0.8q1.8 0.4 3.8 0.7 0.9 0.2 1.9 0.4 1.1 0.2 2.1 0.4c1.4 0.4 2.9 0.7 4.4 1.1q2.2 0.6 4.7 1.3 2.4 0.8 4.9 1.7c1.7 0.6 3.4 1.3 5.2 2 1.8 0.7 3.6 1.6 5.5 2.4 1.8 0.9 3.7 1.9 5.6 2.9q1.4 0.8 2.8 1.6c1 0.6 2 1.1 2.9 1.7 2 1.3 4 2.5 5.9 3.9 3.9 2.7 7.8 6 11.8 9.5q5.8 5.3 11.3 12c7.3 8.9 14 19.6 18.8 32.2 4.8 12.5 7.9 26.9 7.9 42.2q0.4 0 0.8 0c0-15.4-3.1-29.9-7.9-42.5zm-107.4 159.9c0.9-0.1 2.1-0.1 3.6-0.2q2.1-0.1 5-0.3c1.9-0.2 4-0.5 6.4-0.8q1.8-0.4 3.8-0.7 0.9-0.2 1.9-0.4 1.1-0.2 2.1-0.4c1.4-0.4 2.9-0.7 4.4-1.1q2.2-0.6 4.7-1.3 2.4-0.8 4.9-1.7c1.7-0.6 3.4-1.3 5.2-2 1.8-0.7 3.6-1.6 5.5-2.4 1.8-0.9 3.7-1.9 5.6-2.9q1.4-0.8 2.8-1.6c1-0.6 2-1.1 2.9-1.7 2-1.3 4-2.5 5.9-3.9 3.9-2.7 7.8-6 11.8-9.5q5.8-5.4 11.3-12c7.3-8.9 14-19.6 18.8-32.2 4.8-12.5 7.9-26.9 7.9-42.3q-0.4 0-0.8 0c0 15.3-3 29.6-7.8 42-4.8 12.5-11.5 23.1-18.7 32q-5.5 6.6-11.3 11.9c-3.9 3.5-7.7 6.7-11.7 9.4-1.9 1.5-3.9 2.7-5.8 3.9-0.9 0.6-1.9 1.2-2.9 1.7q-1.4 0.8-2.8 1.6c-1.9 1-3.7 2-5.6 2.9-1.8 0.8-3.6 1.7-5.4 2.4-1.7 0.7-3.5 1.4-5.1 2q-2.6 0.8-5 1.6-2.4 0.7-4.6 1.4c-1.5 0.4-3 0.7-4.4 1q-1 0.2-2 0.5-1 0.2-2 0.3-1.9 0.4-3.7 0.7c-2.4 0.3-4.5 0.6-6.4 0.8q-2.8 0.2-5 0.4c-1.4 0-2.6 0-3.5 0.1q-2.9 0-2.9 0 0 0.4 0 0.8 0 0 2.9 0zm-2.9 0q0-0.4 0-0.8 0 0 0 0 0 0.4 0 0.8 0 0 0 0zm-108.4-72.4c5.8 14.2 14.5 27.2 25.4 38 10.9 10.9 23.9 19.6 38.1 25.5 14.2 5.9 29.6 8.9 44.9 8.9q0-0.4 0-0.8c-15.2 0-30.5-3-44.6-8.8-14.1-5.9-27.1-14.5-37.8-25.3-10.8-10.8-19.5-23.7-25.3-37.8-5.9-14.1-8.9-29.4-8.9-44.6q-0.4 0-0.8 0c0 15.3 3.1 30.7 9 44.9zm-9-44.9q0.4 0 0.8 0 0-0.1 0-0.1-0.4 0-0.8 0 0 0 0 0.1zm72.5-108.5c-14.2 5.9-27.2 14.6-38.1 25.5-10.9 10.8-19.6 23.8-25.4 38-5.9 14.2-9 29.6-9 44.9q0.4 0 0.8 0c0-15.2 3-30.5 8.9-44.6 5.8-14.1 14.5-27 25.3-37.8 10.7-10.8 23.7-19.4 37.8-25.3 14.1-5.8 29.4-8.8 44.6-8.8q0-0.4 0-0.8c-15.3 0-30.7 3-44.9 8.9zm44.9-8.9q0 0.4 0 0.8 0 0 0 0 0-0.4 0-0.8 0 0 0 0zm109.5 75.1c-4.8-12.6-11.5-23.3-18.8-32.2q-5.5-6.7-11.3-12c-4-3.5-7.9-6.8-11.8-9.5-1.9-1.4-3.9-2.6-5.9-3.9-0.9-0.6-1.9-1.1-2.9-1.7q-1.4-0.8-2.8-1.6c-1.9-1-3.8-2-5.6-2.9-1.9-0.8-3.7-1.7-5.5-2.4-1.8-0.7-3.5-1.4-5.2-2q-2.5-0.9-4.9-1.7-2.5-0.7-4.7-1.3c-1.5-0.4-3-0.7-4.4-1.1q-1-0.2-2.1-0.4-1-0.2-1.9-0.4-2-0.3-3.8-0.7c-2.4-0.3-4.5-0.6-6.4-0.8q-2.9-0.2-5-0.3c-1.5-0.1-2.7-0.1-3.6-0.2q-2.9 0-2.9 0 0 0.4 0 0.8 0 0 2.9 0c0.9 0.1 2.1 0.1 3.5 0.1q2.2 0.2 5 0.4c1.9 0.2 4 0.5 6.4 0.8q1.8 0.3 3.7 0.7 1 0.1 2 0.3 1 0.3 2 0.5c1.4 0.3 2.9 0.6 4.4 1q2.2 0.7 4.6 1.4 2.4 0.8 5 1.6c1.6 0.6 3.4 1.3 5.1 2 1.8 0.7 3.6 1.6 5.4 2.4 1.9 0.9 3.7 1.9 5.6 2.8q1.4 0.8 2.8 1.7c1 0.5 2 1.1 2.9 1.7 1.9 1.2 3.9 2.4 5.8 3.8 4 2.7 7.8 6 11.7 9.4q5.8 5.4 11.3 12c7.2 8.8 13.9 19.5 18.7 32 4.8 12.4 7.8 26.7 7.8 41.9q0.4 0 0.8 0c0-15.3-3.1-29.7-7.9-42.2zm-106.6 158.8c0.9-0.1 2.1-0.1 3.5-0.1q2.2-0.2 5-0.4c1.9-0.2 4-0.5 6.4-0.8q1.8-0.3 3.7-0.7 1-0.1 2-0.3 1-0.3 2-0.5c1.4-0.3 2.9-0.6 4.4-1q2.2-0.7 4.6-1.4 2.4-0.8 5-1.6c1.6-0.6 3.4-1.3 5.1-2 1.8-0.7 3.6-1.6 5.4-2.4 1.9-0.9 3.7-1.9 5.6-2.9q1.4-0.8 2.8-1.6c1-0.5 2-1.1 2.9-1.7 1.9-1.2 3.9-2.4 5.8-3.9 4-2.7 7.8-5.9 11.7-9.4q5.8-5.3 11.3-11.9c7.2-8.9 13.9-19.5 18.7-32 4.8-12.4 7.8-26.7 7.8-42q-0.4 0-0.8 0c0 15.2-3 29.4-7.7 41.7-4.8 12.4-11.4 23-18.6 31.8q-5.4 6.6-11.2 11.9c-3.9 3.4-7.7 6.6-11.6 9.3-1.9 1.4-3.9 2.6-5.8 3.8-0.9 0.7-1.9 1.2-2.8 1.7q-1.5 0.9-2.9 1.7c-1.9 0.9-3.7 1.9-5.5 2.8-1.8 0.8-3.6 1.6-5.4 2.4-1.7 0.6-3.4 1.4-5.1 1.9q-2.5 0.9-4.9 1.7-2.4 0.7-4.6 1.3c-1.5 0.4-2.9 0.7-4.3 1q-1.1 0.3-2.1 0.5-1 0.2-1.9 0.4-2 0.3-3.7 0.6c-2.4 0.3-4.5 0.6-6.4 0.8q-2.8 0.2-4.9 0.4c-1.4 0.1-2.6 0.1-3.6 0.1q-2.8 0.1-2.8 0.1 0 0.4 0 0.7 0 0 2.9 0zm-2.9 0q0-0.3 0-0.7 0 0 0 0 0 0.4 0 0.7 0 0 0 0zm-107.7-71.9c5.8 14.1 14.5 27 25.3 37.8 10.7 10.8 23.7 19.4 37.8 25.3 14.1 5.8 29.4 8.8 44.6 8.8q0-0.3 0-0.7c-15.1 0-30.3-3-44.3-8.8-14-5.9-26.9-14.4-37.6-25.2-10.7-10.7-19.3-23.5-25.1-37.5-5.8-14-8.8-29.2-8.8-44.3q-0.4 0-0.8 0c0 15.2 3 30.5 8.9 44.6zm-8.9-44.6q0.4 0 0.8 0 0-0.1 0-0.1-0.4 0-0.8 0 0 0 0 0.1zm72-107.8c-14.1 5.9-27.1 14.5-37.8 25.3-10.8 10.8-19.5 23.7-25.3 37.8-5.9 14.1-8.9 29.4-8.9 44.6q0.4 0 0.8 0c0-15.1 3-30.3 8.8-44.3 5.8-14 14.4-26.8 25.1-37.5 10.7-10.8 23.6-19.4 37.6-25.2 14-5.8 29.2-8.8 44.3-8.8q0-0.4 0-0.7c-15.2 0-30.5 3-44.6 8.8zm44.6-8.8q0 0.3 0 0.7 0 0 0 0 0-0.4 0-0.7 0 0 0 0zm108.8 74.6c-4.8-12.5-11.5-23.2-18.7-32q-5.5-6.6-11.3-12c-3.9-3.4-7.7-6.7-11.7-9.4-1.9-1.4-3.9-2.6-5.8-3.8-0.9-0.6-1.9-1.2-2.9-1.7q-1.4-0.9-2.8-1.7c-1.9-0.9-3.7-1.9-5.6-2.8-1.8-0.8-3.6-1.7-5.4-2.4-1.7-0.7-3.5-1.4-5.1-2q-2.6-0.8-5-1.6-2.4-0.7-4.6-1.4c-1.5-0.4-3-0.7-4.4-1q-1-0.2-2-0.5-1-0.2-2-0.3-1.9-0.4-3.7-0.7c-2.4-0.3-4.5-0.6-6.4-0.8q-2.8-0.2-5-0.4c-1.4 0-2.6 0-3.5-0.1q-2.9 0-2.9 0 0 0.3 0 0.7 0 0 2.8 0.1c1 0 2.2 0 3.6 0.1q2.1 0.2 4.9 0.4c1.9 0.2 4 0.5 6.4 0.8q1.7 0.3 3.7 0.6 0.9 0.2 1.9 0.4 1 0.2 2.1 0.5c1.4 0.3 2.8 0.6 4.3 1q2.2 0.6 4.6 1.3 2.4 0.8 4.9 1.6c1.7 0.6 3.4 1.4 5.1 2 1.8 0.8 3.6 1.6 5.4 2.4 1.8 0.9 3.6 1.9 5.5 2.8q1.4 0.8 2.9 1.6c0.9 0.6 1.9 1.1 2.8 1.8 1.9 1.2 3.9 2.4 5.8 3.8 3.9 2.7 7.7 5.8 11.6 9.3q5.8 5.3 11.2 11.9c7.2 8.8 13.8 19.3 18.6 31.8 4.7 12.3 7.7 26.5 7.7 41.6q0.4 0 0.8 0c0-15.2-3-29.5-7.8-41.9zm-106 157.7c1 0 2.2 0 3.6-0.1q2.1-0.2 4.9-0.4c1.9-0.2 4-0.5 6.4-0.8q1.7-0.3 3.7-0.6 0.9-0.2 1.9-0.4 1-0.2 2.1-0.5c1.4-0.3 2.8-0.6 4.3-1q2.2-0.6 4.6-1.3 2.4-0.8 4.9-1.7c1.7-0.5 3.4-1.3 5.1-1.9 1.8-0.8 3.6-1.6 5.4-2.4 1.8-0.9 3.6-1.9 5.5-2.8q1.4-0.8 2.9-1.7c0.9-0.5 1.9-1 2.8-1.7 1.9-1.2 3.9-2.4 5.8-3.8 3.9-2.7 7.7-5.9 11.6-9.3q5.8-5.3 11.2-11.9c7.2-8.8 13.8-19.4 18.6-31.8 4.7-12.3 7.7-26.5 7.7-41.7q-0.8 0-1.5 0c-0.1 15-3 29-7.7 41.2-4.7 12.2-11.2 22.6-18.3 31.3q-5.4 6.5-11.1 11.7c-3.8 3.4-7.6 6.6-11.4 9.2-1.9 1.4-3.8 2.6-5.7 3.8-0.9 0.6-1.9 1.1-2.8 1.7q-1.4 0.8-2.8 1.6c-1.9 0.9-3.7 1.9-5.5 2.8-1.8 0.8-3.5 1.6-5.3 2.3-1.7 0.7-3.4 1.4-5 2q-2.5 0.8-4.9 1.6-2.3 0.7-4.5 1.3c-1.5 0.4-2.9 0.7-4.3 1q-1 0.3-2 0.5-1 0.2-1.9 0.3-1.9 0.4-3.6 0.7c-2.4 0.3-4.4 0.6-6.3 0.7q-2.8 0.3-4.9 0.4c-1.4 0.1-2.6 0.1-3.5 0.1q-2.8 0.1-2.8 0.1 0 0.8 0 1.6 0 0 2.8-0.1zm-2.8 0.1q0-0.8 0-1.6 0 0 0 0 0 0.8 0 1.6 0 0 0 0zm-107-71.5c5.8 14 14.4 26.8 25.1 37.5 10.7 10.8 23.6 19.3 37.6 25.2 14 5.8 29.2 8.8 44.3 8.8q0-0.8 0-1.6c-14.9 0-29.9-2.9-43.7-8.7-13.9-5.7-26.5-14.2-37.1-24.8-10.6-10.5-19-23.2-24.8-37-5.7-13.8-8.7-28.8-8.7-43.7q-0.7 0-1.5 0c0 15.1 3 30.3 8.8 44.3zm-8.8-44.3q0.8 0 1.5 0 0-0.1 0-0.1-0.7 0-1.5 0 0 0 0 0.1zm71.5-107.1c-14 5.8-26.9 14.4-37.6 25.2-10.7 10.7-19.3 23.5-25.1 37.5-5.8 14-8.8 29.2-8.8 44.3q0.8 0 1.5 0c0-14.9 3-29.9 8.7-43.7 5.8-13.8 14.2-26.5 24.8-37 10.6-10.6 23.2-19.1 37.1-24.8 13.8-5.8 28.8-8.7 43.7-8.7q0-0.8 0-1.6c-15.1 0-30.3 3-44.3 8.8zm44.3-8.8q0 0.8 0 1.6 0 0 0 0 0-0.8 0-1.6 0 0 0 0zm108.1 74.2c-4.8-12.5-11.4-23-18.6-31.8q-5.4-6.6-11.2-11.9c-3.9-3.5-7.7-6.6-11.6-9.3-1.9-1.4-3.9-2.6-5.8-3.8-0.9-0.7-1.9-1.2-2.8-1.8q-1.5-0.8-2.9-1.6c-1.9-0.9-3.7-1.9-5.5-2.8-1.8-0.8-3.6-1.6-5.4-2.4-1.7-0.6-3.4-1.4-5.1-2q-2.5-0.8-4.9-1.6-2.4-0.7-4.6-1.3c-1.5-0.4-2.9-0.7-4.3-1q-1.1-0.3-2.1-0.5-1-0.2-1.9-0.4-2-0.3-3.7-0.6c-2.4-0.3-4.5-0.6-6.4-0.8q-2.8-0.2-4.9-0.4c-1.4-0.1-2.6-0.1-3.6-0.1q-2.8-0.1-2.8-0.1 0 0.8 0 1.6 0 0 2.8 0.1c0.9 0 2.1 0 3.5 0.1q2.1 0.1 4.9 0.3c1.9 0.2 3.9 0.5 6.3 0.8q1.7 0.3 3.6 0.7 0.9 0.1 1.9 0.3 1 0.2 2 0.5c1.4 0.3 2.8 0.6 4.3 1q2.2 0.6 4.5 1.3 2.4 0.8 4.9 1.6c1.6 0.6 3.3 1.3 5 2 1.8 0.7 3.5 1.5 5.3 2.3 1.8 0.9 3.6 1.8 5.5 2.8q1.4 0.8 2.8 1.6c0.9 0.5 1.9 1.1 2.8 1.7 1.9 1.2 3.8 2.4 5.7 3.8 3.8 2.6 7.6 5.7 11.4 9.2q5.7 5.2 11.1 11.7c7.1 8.7 13.6 19.1 18.3 31.3 4.7 12.2 7.6 26.2 7.7 41.1q0.7 0 1.5 0c0-15.1-3-29.3-7.7-41.6zm-105.3 155.8c0.9 0 2.1 0 3.5-0.1q2.1-0.1 4.9-0.4c1.9-0.1 3.9-0.4 6.3-0.7q1.7-0.3 3.6-0.7 0.9-0.1 1.9-0.3 1-0.2 2-0.5c1.4-0.3 2.8-0.6 4.3-1q2.2-0.6 4.5-1.3 2.4-0.8 4.9-1.6c1.6-0.6 3.3-1.3 5-2 1.8-0.7 3.5-1.5 5.3-2.3 1.8-0.9 3.6-1.9 5.5-2.8q1.4-0.8 2.8-1.6c0.9-0.6 1.9-1.1 2.8-1.7 1.9-1.2 3.8-2.4 5.7-3.8 3.8-2.6 7.6-5.8 11.4-9.2q5.7-5.2 11.1-11.7c7.1-8.7 13.6-19.1 18.3-31.3 4.7-12.2 7.6-26.2 7.7-41.2q-1.6 0-3.2 0c0 14.6-2.8 28.2-7.4 40-4.6 12-10.9 22.1-17.8 30.5q-5.2 6.3-10.8 11.4c-3.7 3.4-7.4 6.4-11.1 9-1.8 1.3-3.7 2.5-5.6 3.7-0.8 0.6-1.8 1.1-2.7 1.6q-1.4 0.8-2.7 1.5c-1.8 1-3.6 1.9-5.3 2.7-1.8 0.8-3.5 1.6-5.2 2.3-1.7 0.7-3.3 1.4-4.9 1.9q-2.4 0.9-4.7 1.6-2.3 0.7-4.4 1.3c-1.4 0.4-2.8 0.7-4.2 1q-0.9 0.2-1.9 0.4-1 0.2-1.9 0.4-1.8 0.3-3.5 0.6c-2.3 0.3-4.3 0.6-6.1 0.7q-2.7 0.2-4.8 0.4c-1.3 0.1-2.5 0.1-3.4 0.1q-2.7 0.1-2.7 0.1 0 1.5 0 3.1 0 0 2.8-0.1zm-2.8 0.1q0-1.6 0-3.1 0 0 0 0 0 1.5 0 3.1 0 0 0 0zm-105.6-70.5c5.8 13.8 14.2 26.5 24.8 37 10.6 10.6 23.2 19.1 37.1 24.8 13.8 5.8 28.8 8.7 43.7 8.7q0-1.6 0-3.1c-14.5 0-29.1-2.9-42.5-8.5-13.5-5.5-25.8-13.8-36.1-24.1-10.3-10.3-18.5-22.6-24.1-36-5.6-13.5-8.4-28-8.4-42.5q-1.6 0-3.2 0c0 14.9 3 29.9 8.7 43.7zm-8.7-43.7q1.6 0 3.2 0 0-0.1 0-0.1-1.6 0-3.2 0 0 0 0 0.1zm70.6-105.6c-13.9 5.7-26.5 14.2-37.1 24.8-10.6 10.5-19 23.2-24.8 37-5.7 13.8-8.7 28.8-8.7 43.7q1.6 0 3.2 0c0-14.5 2.8-29.1 8.4-42.5 5.6-13.4 13.8-25.8 24.1-36 10.3-10.3 22.6-18.6 36.1-24.1 13.4-5.6 28-8.5 42.5-8.5q0-1.5 0-3.1c-14.9 0-29.9 2.9-43.7 8.7zm43.7-8.7q0 1.6 0 3.1 0 0 0 0 0-1.5 0-3.1 0 0 0 0zm106.6 73.1c-4.7-12.2-11.2-22.6-18.3-31.3q-5.4-6.5-11.1-11.7c-3.8-3.5-7.6-6.6-11.4-9.2-1.9-1.4-3.8-2.6-5.7-3.8-0.9-0.6-1.9-1.2-2.8-1.7q-1.4-0.8-2.8-1.6c-1.9-1-3.7-1.9-5.5-2.8-1.8-0.8-3.5-1.6-5.3-2.3-1.7-0.7-3.4-1.4-5-2q-2.5-0.8-4.9-1.6-2.3-0.7-4.5-1.3c-1.5-0.4-2.9-0.7-4.3-1q-1-0.3-2-0.5-1-0.2-1.9-0.3-1.9-0.4-3.6-0.7c-2.4-0.3-4.4-0.6-6.3-0.8q-2.8-0.2-4.9-0.3c-1.4-0.1-2.6-0.1-3.5-0.1q-2.8-0.1-2.8-0.1 0 1.6 0 3.1 0 0 2.7 0.1c0.9 0 2.1 0 3.4 0.1q2.1 0.1 4.8 0.3c1.8 0.2 3.8 0.5 6.1 0.8q1.7 0.3 3.5 0.6 0.9 0.2 1.9 0.4 1 0.2 1.9 0.4c1.4 0.3 2.8 0.6 4.2 1q2.1 0.6 4.4 1.3 2.3 0.7 4.7 1.6c1.6 0.5 3.2 1.2 4.9 1.9 1.7 0.6 3.4 1.5 5.2 2.2 1.7 0.9 3.5 1.8 5.3 2.7q1.3 0.8 2.7 1.6c0.9 0.5 1.9 1 2.7 1.6 1.9 1.2 3.8 2.4 5.6 3.7 3.7 2.6 7.4 5.6 11.1 9q5.6 5.1 10.8 11.3c6.9 8.5 13.2 18.6 17.8 30.6 4.6 11.8 7.4 25.4 7.4 39.9q1.6 0 3.2 0c-0.1-14.9-3-28.9-7.7-41.1zm-103.9 152.2c0.9 0 2.1 0 3.4-0.1q2.1-0.2 4.8-0.4c1.8-0.1 3.8-0.4 6.1-0.7q1.7-0.3 3.5-0.6 0.9-0.2 1.9-0.4 1-0.2 1.9-0.4c1.4-0.3 2.8-0.6 4.2-1q2.1-0.6 4.4-1.3 2.3-0.7 4.7-1.6c1.6-0.5 3.2-1.2 4.9-1.9 1.7-0.7 3.4-1.5 5.2-2.3 1.7-0.8 3.5-1.7 5.3-2.7q1.3-0.7 2.7-1.5c0.9-0.5 1.9-1 2.7-1.6 1.9-1.2 3.8-2.4 5.6-3.7 3.7-2.6 7.4-5.6 11.1-9q5.6-5.1 10.8-11.4c6.9-8.4 13.2-18.5 17.8-30.5 4.6-11.8 7.4-25.4 7.4-40q-1.5 0-3.1 0c0 14.2-2.8 27.4-7.2 38.9-4.4 11.6-10.6 21.4-17.3 29.7q-5.1 6.1-10.5 11c-3.6 3.3-7.2 6.2-10.8 8.7-1.8 1.4-3.6 2.5-5.4 3.6-0.9 0.6-1.8 1.1-2.7 1.6q-1.3 0.8-2.6 1.5c-1.8 0.9-3.5 1.8-5.2 2.6-1.7 0.8-3.3 1.6-5 2.2-1.6 0.7-3.2 1.4-4.7 1.9q-2.4 0.8-4.6 1.5-2.2 0.7-4.3 1.3c-1.4 0.4-2.7 0.6-4 0.9q-1 0.3-1.9 0.5-1 0.1-1.9 0.3-1.8 0.3-3.4 0.6c-2.2 0.3-4.2 0.6-5.9 0.7q-2.7 0.2-4.6 0.4c-1.4 0.1-2.5 0.1-3.3 0.1q-2.7 0.1-2.7 0.1 0 1.5 0 3.1 0 0 2.7-0.1zm-2.7 0.1q0-1.6 0-3.1 0 0 0 0 0 1.5 0 3.1 0 0 0 0zm-102.7-68.6c5.6 13.4 13.8 25.7 24.1 36 10.3 10.3 22.6 18.6 36.1 24.1 13.4 5.6 28 8.5 42.5 8.5q0-1.6 0-3.1c-14.1 0-28.3-2.8-41.3-8.3-13.1-5.4-25.1-13.4-35.1-23.4-10-10-18-21.9-23.4-35-5.4-13.1-8.2-27.2-8.2-41.3q-1.6 0-3.1 0c0 14.5 2.8 29 8.4 42.5zm-8.4-42.5q1.5 0 3.1 0 0-0.1 0-0.1-1.6 0-3.1 0 0 0 0 0.1zm68.6-102.7c-13.5 5.5-25.8 13.8-36.1 24.1-10.3 10.2-18.5 22.6-24.1 36-5.6 13.4-8.4 28-8.4 42.5q1.5 0 3.1 0c0-14.1 2.8-28.2 8.2-41.3 5.4-13.1 13.4-25 23.4-35 10-10 22-18 35.1-23.5 13-5.4 27.2-8.2 41.3-8.2q0-1.5 0-3.1c-14.5 0-29.1 2.9-42.5 8.5zm42.5-8.5q0 1.6 0 3.1 0 0 0 0 0-1.5 0-3.1 0 0 0 0zm103.7 71.2c-4.6-12-10.9-22.1-17.8-30.6q-5.2-6.2-10.8-11.3c-3.7-3.4-7.4-6.4-11.1-9-1.8-1.3-3.7-2.5-5.6-3.7-0.8-0.6-1.8-1.1-2.7-1.6q-1.4-0.8-2.7-1.6c-1.8-0.9-3.6-1.8-5.3-2.7-1.8-0.7-3.5-1.6-5.2-2.2-1.7-0.7-3.3-1.4-4.9-1.9q-2.4-0.9-4.7-1.6-2.3-0.7-4.4-1.3c-1.4-0.4-2.8-0.7-4.2-1q-0.9-0.2-1.9-0.4-1-0.2-1.9-0.4-1.8-0.3-3.5-0.6c-2.3-0.3-4.3-0.6-6.1-0.8q-2.7-0.2-4.8-0.3c-1.3-0.1-2.5-0.1-3.4-0.1q-2.7-0.1-2.7-0.1 0 1.6 0 3.1 0 0 2.7 0.1c0.8 0 1.9 0 3.3 0.1q1.9 0.2 4.6 0.4c1.7 0.1 3.7 0.4 5.9 0.7q1.6 0.3 3.4 0.6 0.9 0.2 1.9 0.3 0.9 0.2 1.9 0.5c1.3 0.3 2.6 0.5 4 0.9q2.1 0.6 4.3 1.3 2.2 0.7 4.6 1.5c1.5 0.5 3.1 1.2 4.7 1.8 1.7 0.7 3.3 1.5 5 2.3 1.7 0.8 3.4 1.7 5.2 2.6q1.3 0.7 2.6 1.5c0.9 0.5 1.8 1 2.7 1.6 1.8 1.1 3.6 2.2 5.4 3.6 3.6 2.5 7.2 5.4 10.8 8.7q5.4 4.9 10.5 11c6.7 8.2 12.9 18.1 17.3 29.7 4.4 11.5 7.2 24.7 7.2 38.8q1.6 0 3.1 0c0-14.5-2.8-28.1-7.4-39.9zm-101 147.9c0.8 0 1.9 0 3.3-0.1q1.9-0.2 4.6-0.4c1.7-0.1 3.7-0.4 5.9-0.7q1.6-0.3 3.4-0.6 0.9-0.2 1.9-0.3 0.9-0.2 1.9-0.5c1.3-0.3 2.6-0.5 4-0.9q2.1-0.6 4.3-1.3 2.2-0.7 4.6-1.5c1.5-0.5 3.1-1.2 4.7-1.9 1.7-0.6 3.3-1.4 5-2.2 1.7-0.8 3.4-1.7 5.2-2.6q1.3-0.7 2.6-1.5c0.9-0.5 1.8-1 2.7-1.6 1.8-1.1 3.6-2.2 5.4-3.6 3.6-2.5 7.2-5.4 10.8-8.7q5.4-4.9 10.5-11c6.7-8.3 12.9-18.1 17.3-29.7 4.4-11.5 7.2-24.7 7.2-38.9q-1.5 0-3.1 0c0 13.8-2.7 26.6-7 37.8-4.3 11.2-10.3 20.8-16.8 28.8q-5 5.9-10.2 10.7c-3.5 3.2-7 6.1-10.5 8.5-1.7 1.3-3.5 2.4-5.2 3.5-0.9 0.5-1.8 1-2.6 1.5q-1.3 0.7-2.6 1.5c-1.7 0.8-3.4 1.7-5 2.5-1.7 0.7-3.3 1.5-4.9 2.2-1.6 0.6-3.1 1.2-4.6 1.8q-2.3 0.7-4.4 1.5-2.2 0.6-4.2 1.1c-1.3 0.4-2.7 0.7-3.9 1q-1 0.2-1.9 0.4-0.9 0.2-1.7 0.3-1.8 0.3-3.4 0.6c-2.1 0.3-4 0.6-5.7 0.7q-2.6 0.2-4.5 0.4c-1.3 0-2.4 0-3.2 0.1q-2.6 0-2.6 0 0 1.6 0 3.2 0 0 2.7-0.1zm-2.7 0.1q0-1.6 0-3.2 0 0 0 0 0 1.6 0 3.2 0 0 0 0zm-99.8-66.7c5.4 13.1 13.4 25 23.4 35 10 10 22 18 35.1 23.4 13 5.5 27.2 8.3 41.3 8.3q0-1.6 0-3.2c-13.7 0-27.5-2.7-40.1-7.9-12.7-5.3-24.4-13.1-34.1-22.8-9.7-9.7-17.5-21.3-22.7-34-5.3-12.7-8-26.4-8-40.1q-1.6 0-3.1 0c0 14.1 2.8 28.2 8.2 41.3zm-8.2-41.3q1.5 0 3.1 0 0-0.1 0-0.1-1.6 0-3.1 0 0 0 0 0.1zm66.7-99.9c-13.1 5.5-25.1 13.5-35.1 23.5-10 10-18 21.9-23.4 35-5.4 13.1-8.2 27.2-8.2 41.3q1.5 0 3.1 0c0-13.7 2.7-27.4 8-40.1 5.2-12.7 13-24.3 22.7-34 9.7-9.7 21.4-17.5 34.1-22.8 12.6-5.2 26.4-7.9 40.1-7.9q0-1.6 0-3.2c-14.1 0-28.3 2.8-41.3 8.2zm41.3-8.2q0 1.6 0 3.2 0 0 0 0 0-1.6 0-3.2 0 0 0 0zm100.8 69.2c-4.4-11.6-10.6-21.5-17.3-29.7q-5.1-6.1-10.5-11c-3.6-3.3-7.2-6.2-10.8-8.7-1.8-1.4-3.6-2.5-5.4-3.6-0.9-0.6-1.8-1.1-2.7-1.6q-1.3-0.8-2.6-1.5c-1.8-0.9-3.5-1.8-5.2-2.6-1.7-0.8-3.3-1.6-5-2.3-1.6-0.6-3.2-1.3-4.7-1.8q-2.4-0.8-4.6-1.5-2.2-0.7-4.3-1.3c-1.4-0.4-2.7-0.6-4-0.9q-1-0.3-1.9-0.5-1-0.1-1.9-0.3-1.8-0.3-3.4-0.6c-2.2-0.3-4.2-0.6-5.9-0.7q-2.7-0.2-4.6-0.4c-1.4-0.1-2.5-0.1-3.3-0.1q-2.7-0.1-2.7-0.1 0 1.6 0 3.2 0 0 2.6 0c0.8 0 1.9 0 3.2 0.1q1.9 0.2 4.5 0.4c1.7 0.1 3.6 0.4 5.7 0.7q1.6 0.3 3.4 0.6 0.8 0.1 1.7 0.3 0.9 0.2 1.9 0.4c1.2 0.3 2.6 0.6 3.9 0.9q2 0.6 4.2 1.2 2.1 0.8 4.4 1.5c1.5 0.6 3 1.2 4.6 1.8 1.6 0.7 3.2 1.4 4.9 2.2 1.6 0.8 3.3 1.7 5 2.5q1.3 0.7 2.6 1.5c0.8 0.5 1.7 1 2.6 1.5 1.7 1.1 3.5 2.2 5.2 3.5 3.5 2.4 7 5.3 10.5 8.5q5.2 4.8 10.2 10.7c6.5 8 12.5 17.6 16.8 28.8 4.3 11.2 7 24 7 37.7q1.6 0 3.1 0c0-14.1-2.8-27.3-7.2-38.8zm-98.2 143.7c0.8-0.1 1.9-0.1 3.2-0.1q1.9-0.2 4.5-0.4c1.7-0.1 3.6-0.4 5.7-0.7q1.6-0.3 3.4-0.6 0.8-0.1 1.7-0.3 0.9-0.2 1.9-0.4c1.2-0.3 2.6-0.6 3.9-1q2-0.5 4.2-1.1 2.1-0.8 4.4-1.5c1.5-0.6 3-1.2 4.6-1.8 1.6-0.7 3.2-1.5 4.9-2.2 1.6-0.8 3.3-1.7 5-2.5q1.3-0.8 2.6-1.5c0.8-0.5 1.7-1 2.6-1.5 1.7-1.1 3.5-2.2 5.2-3.5 3.5-2.4 7-5.3 10.5-8.5q5.2-4.8 10.2-10.7c6.5-8 12.5-17.6 16.8-28.8 4.3-11.2 7-24 7-37.8q-1.6 0-3.1 0c0 13.4-2.7 25.8-6.8 36.7-4.2 10.9-10 20.2-16.3 27.9q-4.8 5.8-9.9 10.4c-3.4 3.1-6.8 5.9-10.2 8.2-1.7 1.3-3.4 2.3-5.1 3.4-0.8 0.6-1.7 1-2.5 1.5q-1.2 0.7-2.5 1.4c-1.6 0.9-3.2 1.7-4.8 2.5-1.7 0.7-3.2 1.5-4.7 2.1-1.6 0.6-3.1 1.2-4.6 1.7q-2.2 0.8-4.2 1.5-2.1 0.6-4.1 1.1c-1.3 0.4-2.6 0.6-3.8 0.9q-0.9 0.3-1.8 0.5-0.9 0.1-1.7 0.3-1.7 0.3-3.2 0.5c-2.1 0.3-4 0.6-5.6 0.7q-2.5 0.2-4.4 0.4c-1.2 0-2.3 0-3.1 0.1q-2.5 0-2.5 0 0 1.6 0 3.1 0 0 2.6 0zm-2.6 0q0-1.5 0-3.1 0 0 0 0 0 1.6 0 3.1 0 0 0 0zm-96.9-64.7c5.2 12.7 13 24.3 22.7 34 9.7 9.7 21.4 17.5 34.1 22.8 12.6 5.2 26.4 7.9 40.1 7.9q0-1.5 0-3.1c-13.3 0-26.7-2.6-39-7.7-12.3-5.1-23.5-12.7-33-22.1-9.4-9.4-16.9-20.7-22-33-5.2-12.3-7.8-25.6-7.8-38.9q-1.5 0-3.1 0c0 13.7 2.7 27.4 8 40.1zm-8-40.1q1.6 0 3.1 0 0-0.1 0-0.1-1.5 0-3.1 0 0 0 0 0.1zm64.8-97c-12.7 5.3-24.4 13.1-34.1 22.8-9.7 9.7-17.5 21.3-22.7 34-5.3 12.7-8 26.4-8 40.1q1.6 0 3.1 0c0-13.3 2.6-26.6 7.8-38.9 5.1-12.3 12.6-23.6 22-33 9.5-9.4 20.7-17 33-22.1 12.3-5.1 25.7-7.7 39-7.7q0-1.6 0-3.1c-13.7 0-27.5 2.7-40.1 7.9zm40.1-7.9q0 1.5 0 3.1 0 0 0 0 0-1.6 0-3.1 0 0 0 0zm97.9 67.1c-4.3-11.2-10.3-20.8-16.8-28.8q-5-5.9-10.2-10.7c-3.5-3.2-7-6.1-10.5-8.5-1.7-1.3-3.5-2.4-5.2-3.5-0.9-0.5-1.8-1-2.6-1.5q-1.3-0.8-2.6-1.5c-1.7-0.8-3.4-1.7-5-2.5-1.7-0.8-3.3-1.5-4.9-2.2-1.6-0.6-3.1-1.2-4.6-1.8q-2.3-0.7-4.4-1.5-2.2-0.6-4.2-1.2c-1.3-0.3-2.7-0.6-3.9-0.9q-1-0.2-1.9-0.4-0.9-0.2-1.7-0.3-1.8-0.3-3.4-0.6c-2.1-0.3-4-0.6-5.7-0.7q-2.6-0.2-4.5-0.4c-1.3-0.1-2.4-0.1-3.2-0.1q-2.6 0-2.6 0 0 1.5 0 3.1 0 0 2.5 0c0.8 0.1 1.9 0.1 3.1 0.1q1.9 0.2 4.4 0.4c1.6 0.1 3.5 0.4 5.6 0.7q1.5 0.2 3.2 0.5 0.8 0.2 1.7 0.3 0.9 0.2 1.8 0.5c1.2 0.2 2.5 0.5 3.8 0.9q2 0.5 4.1 1.1 2 0.7 4.2 1.5c1.5 0.5 3 1.1 4.6 1.7 1.5 0.6 3 1.4 4.7 2.1 1.6 0.8 3.2 1.6 4.8 2.5q1.3 0.7 2.5 1.4c0.8 0.5 1.7 0.9 2.5 1.5 1.7 1.1 3.4 2.1 5.1 3.4 3.4 2.3 6.8 5.1 10.2 8.2q5.1 4.6 9.9 10.4c6.3 7.7 12.1 17 16.3 27.9 4.1 10.9 6.8 23.3 6.8 36.6q1.5 0 3.1 0c0-13.7-2.7-26.5-7-37.7zm-95.4 139.5c0.8-0.1 1.9-0.1 3.1-0.1q1.9-0.2 4.4-0.4c1.6-0.1 3.5-0.4 5.6-0.7q1.5-0.2 3.2-0.5 0.8-0.2 1.7-0.3 0.9-0.2 1.8-0.5c1.2-0.3 2.5-0.5 3.8-0.9q2-0.5 4.1-1.1 2-0.7 4.2-1.5c1.5-0.5 3-1.1 4.6-1.7 1.5-0.6 3-1.4 4.7-2.1 1.6-0.8 3.2-1.6 4.8-2.5q1.3-0.7 2.5-1.4c0.8-0.5 1.7-0.9 2.5-1.5 1.7-1.1 3.4-2.1 5.1-3.4 3.4-2.3 6.8-5.1 10.2-8.2q5.1-4.6 9.9-10.4c6.3-7.7 12.1-17 16.3-27.9 4.1-10.9 6.8-23.3 6.8-36.7q-1.6 0-3.1 0c-0.1 13-2.6 25-6.7 35.5-4 10.6-9.6 19.6-15.7 27.1q-4.7 5.6-9.6 10.1c-3.3 3-6.6 5.7-9.9 8-1.6 1.2-3.3 2.2-4.9 3.3-0.8 0.5-1.7 0.9-2.5 1.4q-1.2 0.7-2.4 1.4c-1.6 0.8-3.1 1.6-4.7 2.4-1.5 0.7-3 1.4-4.5 2-1.5 0.6-3 1.2-4.4 1.7q-2.2 0.7-4.2 1.4-2 0.6-3.9 1.1c-1.3 0.4-2.5 0.6-3.7 0.9q-0.9 0.2-1.7 0.4-0.9 0.1-1.7 0.3-1.6 0.3-3.1 0.6c-2 0.2-3.8 0.5-5.4 0.6q-2.4 0.2-4.2 0.3c-1.3 0.1-2.3 0.1-3.1 0.1q-2.4 0.1-2.4 0.1 0 1.6 0 3.1 0 0 2.5 0zm-2.5 0q0-1.5 0-3.1 0 0 0 0 0 1.6 0 3.1 0 0 0 0zm-94-62.8c5.1 12.3 12.6 23.6 22 33 9.5 9.4 20.7 17 33 22.1 12.3 5.1 25.7 7.7 39 7.7q0-1.5 0-3.1c-12.9 0-25.8-2.5-37.8-7.5-11.9-4.9-22.8-12.3-32-21.4-9.1-9.1-16.4-20.1-21.4-32-4.9-11.9-7.4-24.8-7.5-37.7q-1.5 0-3.1 0c0 13.3 2.6 26.6 7.8 38.9zm-7.8-38.9q1.6 0 3.1 0 0-0.1 0-0.1-1.5 0-3.1 0 0 0 0 0.1zm62.8-94.1c-12.3 5.1-23.5 12.7-33 22.1-9.4 9.4-16.9 20.7-22 33-5.2 12.3-7.8 25.6-7.8 38.9q1.6 0 3.1 0c0.1-12.9 2.6-25.8 7.5-37.7 5-11.9 12.3-22.9 21.4-32 9.2-9.1 20.1-16.5 32-21.4 12-5 24.9-7.5 37.8-7.5q0-1.6 0-3.1c-13.3 0-26.7 2.6-39 7.7zm39-7.7q0 1.5 0 3.1 0 0 0 0 0-1.6 0-3.1 0 0 0 0zm95 65.1c-4.2-10.9-10-20.2-16.3-27.9q-4.8-5.8-9.9-10.4c-3.4-3.1-6.8-5.9-10.2-8.2-1.7-1.3-3.4-2.3-5.1-3.4-0.8-0.6-1.7-1-2.5-1.5q-1.2-0.7-2.5-1.4c-1.6-0.9-3.2-1.7-4.8-2.5-1.7-0.7-3.2-1.5-4.7-2.1-1.6-0.6-3.1-1.2-4.6-1.7q-2.2-0.8-4.2-1.5-2.1-0.6-4.1-1.1c-1.3-0.4-2.6-0.7-3.8-0.9q-0.9-0.3-1.8-0.5-0.9-0.1-1.7-0.3-1.7-0.3-3.2-0.5c-2.1-0.3-4-0.6-5.6-0.7q-2.5-0.2-4.4-0.4c-1.2 0-2.3 0-3.1-0.1q-2.5 0-2.5 0 0 1.5 0 3.1 0 0 2.4 0.1c0.8 0 1.8 0 3.1 0q1.8 0.2 4.2 0.4c1.6 0.1 3.4 0.4 5.4 0.6q1.5 0.3 3.1 0.6 0.8 0.1 1.7 0.3 0.8 0.2 1.7 0.4c1.2 0.3 2.4 0.5 3.7 0.9q1.9 0.5 3.9 1.1 2 0.7 4.2 1.4c1.4 0.5 2.9 1.1 4.4 1.7 1.5 0.6 3 1.3 4.5 2 1.6 0.8 3.1 1.6 4.7 2.4q1.2 0.7 2.4 1.4c0.8 0.5 1.7 0.9 2.5 1.4 1.6 1.1 3.3 2.1 4.9 3.3 3.3 2.3 6.6 5 9.9 8q4.9 4.5 9.6 10.1c6.1 7.5 11.7 16.5 15.7 27 4.1 10.6 6.6 22.6 6.7 35.5q1.5 0 3.1 0c0-13.3-2.7-25.7-6.8-36.6zm-92.6 135.2c0.8 0 1.8 0 3.1-0.1q1.8-0.1 4.2-0.3c1.6-0.1 3.4-0.4 5.4-0.6q1.5-0.3 3.1-0.6 0.8-0.2 1.7-0.3 0.8-0.2 1.7-0.4c1.2-0.3 2.4-0.5 3.7-0.9q1.9-0.5 3.9-1.1 2-0.7 4.2-1.4c1.4-0.5 2.9-1.1 4.4-1.7 1.5-0.6 3-1.3 4.5-2 1.6-0.8 3.1-1.6 4.7-2.4q1.2-0.7 2.4-1.4c0.8-0.5 1.7-0.9 2.5-1.4 1.6-1.1 3.3-2.1 4.9-3.3 3.3-2.3 6.6-5 9.9-8q4.9-4.5 9.6-10.1c6.1-7.5 11.7-16.5 15.7-27.1 4.1-10.5 6.6-22.5 6.7-35.5q-1.6 0-3.2 0c0 12.6-2.4 24.2-6.4 34.4-3.9 10.3-9.3 19-15.2 26.2q-4.6 5.4-9.3 9.8c-3.2 2.9-6.4 5.5-9.6 7.7-1.6 1.2-3.2 2.2-4.8 3.2-0.7 0.5-1.5 1-2.3 1.4q-1.2 0.7-2.3 1.3c-1.6 0.8-3.1 1.6-4.6 2.4-1.5 0.6-3 1.3-4.4 1.9-1.5 0.6-2.9 1.2-4.3 1.7q-2 0.7-4 1.3-2 0.6-3.8 1.1c-1.2 0.3-2.4 0.6-3.6 0.9q-0.8 0.2-1.6 0.3-0.9 0.2-1.7 0.3-1.5 0.3-3 0.6c-1.9 0.2-3.7 0.5-5.2 0.6q-2.4 0.2-4.1 0.3c-1.2 0.1-2.2 0.1-2.9 0.1q-2.4 0.1-2.4 0.1 0 1.5 0 3.1 0 0 2.4-0.1zm-2.4 0.1q0-1.6 0-3.1 0 0 0 0 0 1.5 0 3.1 0 0 0 0zm-91.2-60.9c5 11.9 12.3 22.9 21.4 32 9.2 9.1 20.1 16.5 32 21.4 12 5 24.9 7.5 37.8 7.5q0-1.6 0-3.1c-12.5 0-25-2.5-36.6-7.3-11.5-4.8-22.1-11.9-31-20.7-8.8-8.8-15.9-19.4-20.7-31-4.8-11.5-7.2-24-7.2-36.5q-1.6 0-3.2 0c0.1 12.9 2.6 25.8 7.5 37.7zm-7.5-37.7q1.6 0 3.2 0 0-0.1 0-0.1-1.6 0-3.2 0 0 0 0 0.1zm60.9-91.2c-11.9 4.9-22.8 12.3-32 21.4-9.1 9.1-16.4 20.1-21.4 32-4.9 11.9-7.4 24.8-7.5 37.7q1.6 0 3.2 0c0-12.5 2.4-25 7.2-36.5 4.8-11.6 11.9-22.2 20.7-31 8.9-8.9 19.5-16 31-20.7 11.6-4.8 24.1-7.3 36.6-7.3q0-1.5 0-3.1c-12.9 0-25.8 2.5-37.8 7.5zm37.8-7.5q0 1.6 0 3.1 0 0 0 0 0-1.5 0-3.1 0 0 0 0zm92 63.1c-4-10.5-9.6-19.5-15.7-27q-4.7-5.6-9.6-10.1c-3.3-3-6.6-5.7-9.9-8-1.6-1.2-3.3-2.2-4.9-3.3-0.8-0.5-1.7-0.9-2.5-1.4q-1.2-0.7-2.4-1.4c-1.6-0.8-3.1-1.6-4.7-2.4-1.5-0.7-3-1.4-4.5-2-1.5-0.6-3-1.2-4.4-1.7q-2.2-0.7-4.2-1.4-2-0.6-3.9-1.1c-1.3-0.4-2.5-0.6-3.7-0.9q-0.9-0.2-1.7-0.4-0.9-0.2-1.7-0.3-1.6-0.3-3.1-0.6c-2-0.2-3.8-0.5-5.4-0.6q-2.4-0.2-4.2-0.4c-1.3 0-2.3 0-3.1 0q-2.4-0.1-2.4-0.1 0 1.6 0 3.1 0 0 2.4 0.1c0.7 0 1.7 0 2.9 0.1q1.7 0.1 4.1 0.3c1.5 0.1 3.3 0.4 5.2 0.6q1.5 0.3 3 0.6 0.8 0.1 1.7 0.3 0.8 0.1 1.6 0.3c1.2 0.3 2.4 0.5 3.6 0.9q1.8 0.5 3.8 1.1 2 0.6 4 1.3c1.4 0.5 2.8 1.1 4.3 1.7 1.4 0.6 2.9 1.3 4.4 1.9 1.5 0.7 3 1.6 4.6 2.3q1.1 0.7 2.3 1.4c0.8 0.4 1.6 0.9 2.3 1.4 1.6 1 3.2 2 4.8 3.2 3.2 2.2 6.4 4.8 9.6 7.7q4.7 4.3 9.3 9.7c5.9 7.3 11.3 16 15.2 26.3 4 10.2 6.4 21.8 6.4 34.3q1.6 0 3.2 0c-0.1-12.9-2.6-24.9-6.7-35.5zm-89.6 131c0.7 0 1.7 0 2.9-0.1q1.7-0.1 4.1-0.3c1.5-0.1 3.3-0.4 5.2-0.6q1.5-0.3 3-0.6 0.8-0.1 1.7-0.3 0.8-0.1 1.6-0.3c1.2-0.3 2.4-0.6 3.6-0.9q1.8-0.5 3.8-1.1 2-0.6 4-1.3c1.4-0.5 2.8-1.1 4.3-1.7 1.4-0.6 2.9-1.3 4.4-1.9 1.5-0.8 3-1.6 4.6-2.4q1.1-0.6 2.3-1.3c0.8-0.4 1.6-0.9 2.3-1.4 1.6-1 3.2-2 4.8-3.2 3.2-2.2 6.4-4.8 9.6-7.7q4.7-4.4 9.3-9.8c5.9-7.2 11.3-15.9 15.2-26.2 4-10.2 6.4-21.8 6.4-34.4q-0.7 0-1.5 0c0 12.4-2.5 23.8-6.3 33.9-3.8 10-9.3 18.6-15.1 25.8q-4.4 5.3-9.1 9.6c-3.1 2.8-6.2 5.4-9.4 7.6-1.5 1.1-3.2 2.1-4.7 3.1-0.7 0.5-1.5 0.9-2.3 1.4q-1.2 0.6-2.3 1.3c-1.5 0.8-3 1.5-4.5 2.3-1.5 0.6-2.9 1.3-4.3 1.9-1.5 0.5-2.8 1.1-4.2 1.6q-2 0.7-4 1.3-1.9 0.6-3.7 1.1c-1.2 0.3-2.4 0.6-3.5 0.8q-0.8 0.2-1.6 0.4-0.9 0.2-1.6 0.3-1.6 0.3-3 0.5c-1.9 0.3-3.6 0.5-5.2 0.7q-2.3 0.1-4 0.3c-1.2 0-2.1 0-2.9 0.1q-2.3 0-2.3 0 0 0.8 0 1.6 0 0 2.4-0.1zm-2.4 0.1q0-0.8 0-1.6 0 0 0 0 0 0.8 0 1.6 0 0 0 0zm-88.3-59c4.8 11.6 11.9 22.2 20.7 31 8.9 8.8 19.5 15.9 31 20.7 11.6 4.8 24.1 7.3 36.6 7.3q0-0.8 0-1.6c-12.3 0-24.6-2.4-36-7.1-11.3-4.7-21.7-11.7-30.5-20.4-8.7-8.7-15.6-19.1-20.3-30.5-4.8-11.3-7.2-23.6-7.2-35.9q-0.8 0-1.5 0c0 12.5 2.4 25 7.2 36.5zm-7.2-36.5q0.7 0 1.5 0 0-0.1 0-0.1-0.8 0-1.5 0 0 0 0 0.1zm58.9-88.3c-11.5 4.7-22.1 11.8-31 20.7-8.8 8.8-15.9 19.4-20.7 31-4.8 11.5-7.2 24-7.2 36.5q0.7 0 1.5 0c0-12.3 2.4-24.6 7.2-35.9 4.7-11.4 11.6-21.8 20.3-30.5 8.8-8.7 19.2-15.7 30.5-20.4 11.4-4.7 23.7-7.1 36-7.1q0-0.8 0-1.6c-12.5 0-25 2.5-36.6 7.3zm36.6-7.3q0 0.8 0 1.6 0 0 0 0 0-0.8 0-1.6 0 0 0 0zm89.1 61.2c-3.9-10.3-9.3-19-15.2-26.3q-4.6-5.4-9.3-9.7c-3.2-2.9-6.4-5.5-9.6-7.7-1.6-1.2-3.2-2.2-4.8-3.2-0.7-0.5-1.5-1-2.3-1.4q-1.2-0.7-2.3-1.4c-1.6-0.7-3.1-1.6-4.6-2.3-1.5-0.6-3-1.3-4.4-1.9-1.5-0.6-2.9-1.2-4.3-1.7q-2-0.7-4-1.3-2-0.6-3.8-1.1c-1.2-0.4-2.4-0.6-3.6-0.9q-0.8-0.2-1.6-0.3-0.9-0.2-1.7-0.3-1.5-0.3-3-0.6c-1.9-0.2-3.7-0.5-5.2-0.6q-2.4-0.2-4.1-0.3c-1.2-0.1-2.2-0.1-2.9-0.1q-2.4-0.1-2.4-0.1 0 0.8 0 1.6 0 0 2.3 0c0.8 0.1 1.7 0.1 2.9 0.1q1.7 0.2 4 0.3c1.6 0.2 3.3 0.4 5.2 0.7q1.4 0.2 3 0.5 0.7 0.1 1.6 0.3 0.8 0.2 1.6 0.4c1.1 0.2 2.3 0.5 3.5 0.8q1.8 0.5 3.7 1.1 2 0.6 4 1.3c1.4 0.5 2.7 1.1 4.2 1.6 1.4 0.6 2.8 1.3 4.3 1.9 1.5 0.7 3 1.5 4.5 2.3q1.1 0.7 2.3 1.3c0.8 0.5 1.6 0.9 2.3 1.4 1.5 1 3.2 2 4.7 3.1 3.2 2.2 6.3 4.8 9.4 7.6q4.7 4.3 9.1 9.6c5.8 7.2 11.3 15.8 15.1 25.8 3.8 10.1 6.3 21.5 6.3 33.8q0.8 0 1.5 0c0-12.5-2.4-24.1-6.4-34.3zm-86.8 128.3c0.8-0.1 1.7-0.1 2.9-0.1q1.7-0.2 4-0.3c1.6-0.2 3.3-0.4 5.2-0.7q1.4-0.2 3-0.5 0.7-0.1 1.6-0.3 0.8-0.2 1.6-0.4c1.1-0.2 2.3-0.5 3.5-0.8q1.8-0.5 3.7-1.1 2-0.6 4-1.3c1.4-0.5 2.7-1.1 4.2-1.6 1.4-0.6 2.8-1.3 4.3-1.9 1.5-0.8 3-1.5 4.5-2.3q1.1-0.7 2.3-1.3c0.8-0.5 1.6-0.9 2.3-1.4 1.5-1 3.2-2 4.7-3.1 3.2-2.2 6.3-4.8 9.4-7.6q4.7-4.3 9.1-9.6c5.8-7.2 11.3-15.8 15.1-25.8 3.8-10.1 6.3-21.5 6.3-33.9q-0.4 0-0.8 0c0 12.3-2.4 23.6-6.2 33.6-3.8 10-9.2 18.5-15 25.6q-4.4 5.2-9 9.5c-3.1 2.8-6.2 5.4-9.4 7.5-1.5 1.2-3.1 2.1-4.6 3.1-0.7 0.5-1.5 0.9-2.3 1.4q-1.1 0.6-2.3 1.3c-1.5 0.8-3 1.5-4.4 2.2-1.5 0.7-2.9 1.4-4.3 2-1.5 0.5-2.8 1.1-4.2 1.6q-2 0.6-3.9 1.3-1.9 0.5-3.7 1c-1.2 0.4-2.4 0.6-3.5 0.9q-0.8 0.2-1.6 0.3-0.8 0.2-1.6 0.3-1.5 0.3-2.9 0.6c-1.9 0.2-3.6 0.4-5.1 0.6q-2.3 0.2-4 0.3c-1.2 0.1-2.1 0.1-2.9 0.1q-2.3 0-2.3 0 0 0.4 0 0.8 0 0 2.3 0zm-2.3 0q0-0.4 0-0.8 0 0 0 0 0 0.4 0 0.8 0 0 0 0zm-86.8-58c4.7 11.4 11.6 21.8 20.3 30.5 8.8 8.7 19.2 15.7 30.5 20.4 11.4 4.7 23.7 7.1 36 7.1q0-0.4 0-0.8c-12.2 0-24.4-2.4-35.7-7-11.2-4.7-21.6-11.6-30.2-20.3-8.6-8.6-15.6-18.9-20.2-30.2-4.7-11.2-7.1-23.4-7.1-35.6q-0.4 0-0.8 0c0 12.3 2.4 24.6 7.2 35.9zm-7.2-35.9q0.4 0 0.8 0 0-0.1 0-0.1-0.4 0-0.8 0 0 0 0 0.1zm58-86.9c-11.3 4.7-21.7 11.7-30.5 20.4-8.7 8.7-15.6 19.1-20.3 30.5-4.8 11.3-7.2 23.6-7.2 35.9q0.4 0 0.8 0c0-12.2 2.4-24.4 7.1-35.6 4.6-11.3 11.6-21.6 20.2-30.3 8.6-8.6 19-15.5 30.2-20.2 11.3-4.6 23.5-7 35.7-7.1q0-0.3 0-0.7c-12.3 0-24.6 2.4-36 7.1zm36-7.1q0 0.4 0 0.7 0 0 0 0 0-0.3 0-0.7 0 0 0 0zm87.7 60.1c-3.8-10-9.3-18.6-15.1-25.8q-4.4-5.3-9.1-9.6c-3.1-2.8-6.2-5.4-9.4-7.6-1.5-1.1-3.2-2.1-4.7-3.1-0.7-0.5-1.5-0.9-2.3-1.4q-1.2-0.6-2.3-1.3c-1.5-0.8-3-1.6-4.5-2.3-1.5-0.6-2.9-1.3-4.3-1.9-1.5-0.5-2.8-1.1-4.2-1.6q-2-0.7-4-1.3-1.9-0.6-3.7-1.1c-1.2-0.3-2.4-0.6-3.5-0.8q-0.8-0.2-1.6-0.4-0.9-0.2-1.6-0.3-1.6-0.3-3-0.5c-1.9-0.3-3.6-0.5-5.2-0.7q-2.3-0.1-4-0.3c-1.2 0-2.1 0-2.9-0.1q-2.3 0-2.3 0 0 0.4 0 0.7 0 0 2.3 0.1c0.8 0 1.7 0 2.9 0.1q1.7 0.1 4 0.3c1.5 0.2 3.2 0.4 5.1 0.6q1.4 0.3 2.9 0.6 0.8 0.1 1.6 0.2 0.8 0.2 1.6 0.4c1.1 0.3 2.3 0.5 3.5 0.9q1.8 0.5 3.7 1 1.9 0.6 3.9 1.3c1.4 0.5 2.7 1.1 4.2 1.6 1.4 0.6 2.8 1.3 4.3 1.9 1.4 0.7 2.9 1.5 4.4 2.3q1.2 0.6 2.3 1.3c0.8 0.5 1.6 0.9 2.3 1.4 1.5 1 3.1 1.9 4.6 3.1 3.2 2.1 6.3 4.7 9.4 7.5q4.6 4.3 9 9.5c5.8 7.1 11.2 15.6 15 25.6 3.8 10 6.2 21.3 6.2 33.5q0.4 0 0.8 0c0-12.3-2.5-23.7-6.3-33.8zm-85.4 127c0.8 0 1.7 0 2.9-0.1q1.7-0.1 4-0.3c1.5-0.2 3.2-0.4 5.1-0.6q1.4-0.3 2.9-0.6 0.8-0.1 1.6-0.3 0.8-0.1 1.6-0.3c1.1-0.3 2.3-0.5 3.5-0.9q1.8-0.5 3.7-1 1.9-0.7 3.9-1.3c1.4-0.5 2.7-1.1 4.2-1.6 1.4-0.6 2.8-1.3 4.3-2 1.4-0.7 2.9-1.4 4.4-2.2q1.2-0.7 2.3-1.3c0.8-0.5 1.6-0.9 2.3-1.4 1.5-1 3.1-1.9 4.6-3.1 3.2-2.1 6.3-4.7 9.4-7.5q4.6-4.3 9-9.5c5.8-7.1 11.2-15.6 15-25.6 3.8-10 6.2-21.3 6.2-33.6q-0.4 0-0.8 0c0 12.2-2.4 23.4-6.2 33.3-3.7 9.9-9.1 18.3-14.8 25.4q-4.3 5.2-8.9 9.4c-3.1 2.8-6.2 5.4-9.3 7.5-1.5 1.1-3.1 2.1-4.6 3.1-0.8 0.5-1.5 0.9-2.3 1.3q-1.1 0.7-2.2 1.3c-1.6 0.8-3 1.6-4.5 2.2-1.4 0.7-2.8 1.4-4.2 1.9-1.4 0.6-2.8 1.2-4.1 1.6q-2 0.7-3.9 1.3-1.9 0.6-3.7 1.1c-1.2 0.3-2.3 0.5-3.4 0.8q-0.9 0.2-1.7 0.4-0.8 0.1-1.5 0.3-1.6 0.2-3 0.5c-1.8 0.2-3.5 0.5-5 0.6q-2.3 0.2-4 0.3c-1.1 0.1-2.1 0.1-2.8 0.1q-2.3 0.1-2.3 0.1 0 0.4 0 0.7 0 0 2.3 0zm-2.3 0q0-0.3 0-0.7 0 0 0 0 0 0.4 0 0.7 0 0 0 0zm-86.1-57.5c4.6 11.3 11.6 21.6 20.2 30.2 8.6 8.7 19 15.6 30.2 20.3 11.3 4.6 23.5 7 35.7 7q0-0.3 0-0.7c-12.1 0-24.2-2.4-35.4-7.1-11.1-4.6-21.4-11.4-29.9-20-8.6-8.6-15.5-18.8-20.1-30-4.6-11.2-7-23.2-7-35.3q-0.4 0-0.8 0c0 12.2 2.4 24.4 7.1 35.6zm-7.1-35.6q0.4 0 0.8 0 0-0.1 0-0.1-0.4 0-0.8 0 0 0 0 0.1zm57.5-86.2c-11.2 4.7-21.6 11.6-30.2 20.2-8.6 8.7-15.6 19-20.2 30.3-4.7 11.2-7.1 23.4-7.1 35.6q0.4 0 0.8 0c0-12.1 2.4-24.2 7-35.3 4.6-11.2 11.5-21.4 20.1-30 8.5-8.6 18.8-15.4 29.9-20 11.2-4.7 23.3-7.1 35.4-7.1q0-0.4 0-0.8c-12.2 0.1-24.4 2.5-35.7 7.1zm35.7-7.1q0 0.4 0 0.8 0 0 0 0 0-0.4 0-0.8 0 0 0 0zm87 59.7c-3.8-10-9.2-18.5-15-25.6q-4.4-5.2-9-9.5c-3.1-2.8-6.2-5.4-9.4-7.5-1.5-1.2-3.1-2.1-4.6-3.1-0.7-0.5-1.5-0.9-2.3-1.4q-1.1-0.7-2.3-1.3c-1.5-0.8-3-1.6-4.4-2.3-1.5-0.6-2.9-1.3-4.3-1.9-1.5-0.5-2.8-1.1-4.2-1.6q-2-0.7-3.9-1.3-1.9-0.5-3.7-1c-1.2-0.4-2.4-0.6-3.5-0.9q-0.8-0.2-1.6-0.4-0.8-0.1-1.6-0.2-1.5-0.3-2.9-0.6c-1.9-0.2-3.6-0.4-5.1-0.6q-2.3-0.2-4-0.3c-1.2-0.1-2.1-0.1-2.9-0.1q-2.3-0.1-2.3-0.1 0 0.4 0 0.8 0 0 2.3 0.1c0.7 0 1.7 0 2.8 0.1q1.7 0.1 4 0.3c1.5 0.1 3.2 0.4 5 0.6q1.4 0.3 3 0.5 0.7 0.2 1.5 0.3 0.8 0.2 1.7 0.4c1.1 0.3 2.2 0.5 3.4 0.8q1.8 0.5 3.7 1.1 1.9 0.6 3.9 1.3c1.3 0.4 2.7 1 4.1 1.6 1.4 0.5 2.8 1.2 4.2 1.8 1.5 0.7 2.9 1.5 4.5 2.3q1.1 0.6 2.2 1.3c0.8 0.4 1.5 0.8 2.3 1.3 1.5 1 3.1 2 4.6 3.1 3.1 2.1 6.2 4.7 9.3 7.5q4.6 4.2 8.9 9.4c5.7 7.1 11.1 15.5 14.8 25.4 3.8 9.8 6.2 21.1 6.2 33.2q0.4 0 0.8 0c0-12.2-2.4-23.5-6.2-33.5zm-84.7 125.9c0.7 0 1.7 0 2.8-0.1q1.7-0.1 4-0.3c1.5-0.1 3.2-0.4 5-0.6q1.4-0.3 3-0.5 0.7-0.2 1.5-0.3 0.8-0.2 1.7-0.4c1.1-0.3 2.2-0.5 3.4-0.8q1.8-0.5 3.7-1.1 1.9-0.6 3.9-1.3c1.3-0.4 2.7-1 4.1-1.6 1.4-0.5 2.8-1.2 4.2-1.9 1.5-0.6 2.9-1.4 4.5-2.2q1.1-0.6 2.2-1.3c0.8-0.4 1.5-0.8 2.3-1.3 1.5-1 3.1-2 4.6-3.1 3.1-2.1 6.2-4.7 9.3-7.5q4.6-4.2 8.9-9.4c5.7-7.1 11.1-15.5 14.8-25.4 3.8-9.9 6.2-21.1 6.2-33.3q-0.4 0-0.8 0c0 12.1-2.4 23.2-6.1 33-3.8 9.8-9 18.2-14.7 25.1q-4.3 5.2-8.9 9.4c-3.1 2.8-6.1 5.3-9.2 7.4-1.5 1.2-3 2.1-4.5 3.1-0.8 0.5-1.6 0.9-2.3 1.3q-1.1 0.7-2.2 1.3c-1.5 0.7-3 1.5-4.4 2.2-1.5 0.6-2.9 1.3-4.2 1.9-1.4 0.5-2.8 1.1-4.1 1.6q-2 0.6-3.9 1.3-1.8 0.5-3.6 1c-1.2 0.3-2.3 0.5-3.4 0.8q-0.8 0.2-1.6 0.4-0.8 0.1-1.6 0.3-1.5 0.2-2.9 0.5c-1.8 0.2-3.5 0.4-5 0.6q-2.2 0.2-3.9 0.3c-1.2 0.1-2.1 0.1-2.8 0.1q-2.3 0-2.3 0 0 0.5 0 0.9 0 0 2.3-0.1zm-2.3 0.1q0-0.4 0-0.9 0 0 0 0 0 0.5 0 0.9 0 0 0 0zm-85.4-57.1c4.6 11.2 11.5 21.4 20.1 30 8.5 8.6 18.8 15.4 29.9 20 11.2 4.7 23.3 7.1 35.4 7.1q0-0.4 0-0.9c-12 0-24-2.3-35.1-6.9-11-4.6-21.2-11.4-29.7-19.9-8.5-8.5-15.3-18.6-19.8-29.7-4.6-11.1-7-23-7-35q-0.4 0-0.8 0c0 12.1 2.4 24.1 7 35.3zm-7-35.3q0.4 0 0.8 0 0-0.1 0-0.1-0.4 0-0.8 0 0 0 0 0.1zm57-85.4c-11.1 4.6-21.4 11.4-29.9 20-8.6 8.6-15.5 18.8-20.1 30-4.6 11.1-7 23.2-7 35.3q0.4 0 0.8 0c0-12 2.4-23.9 7-35 4.5-11.1 11.3-21.2 19.8-29.7 8.5-8.5 18.7-15.3 29.7-19.9 11.1-4.6 23.1-6.9 35.1-7q0-0.4 0-0.8c-12.1 0-24.2 2.4-35.4 7.1zm35.4-7.1q0 0.4 0 0.8 0 0 0 0 0-0.4 0-0.8 0 0 0 0zm86.2 59.2c-3.7-9.9-9.1-18.3-14.8-25.4q-4.3-5.2-8.9-9.4c-3.1-2.8-6.2-5.4-9.3-7.5-1.5-1.1-3.1-2.1-4.6-3.1-0.8-0.5-1.5-0.9-2.3-1.3q-1.1-0.7-2.2-1.3c-1.6-0.8-3-1.6-4.5-2.3-1.4-0.6-2.8-1.3-4.2-1.8-1.4-0.6-2.8-1.2-4.1-1.6q-2-0.7-3.9-1.3-1.9-0.6-3.7-1.1c-1.2-0.3-2.3-0.5-3.4-0.8q-0.9-0.2-1.7-0.4-0.8-0.1-1.5-0.3-1.6-0.2-3-0.5c-1.8-0.2-3.5-0.5-5-0.6q-2.3-0.2-4-0.3c-1.1-0.1-2.1-0.1-2.8-0.1q-2.3-0.1-2.3-0.1 0 0.4 0 0.8 0 0 2.3 0.1c0.7 0 1.6 0 2.8 0.1q1.7 0.1 3.9 0.3c1.5 0.1 3.2 0.4 5 0.6q1.4 0.3 2.9 0.5 0.8 0.2 1.6 0.3 0.8 0.2 1.6 0.4c1.1 0.3 2.2 0.5 3.4 0.8q1.8 0.5 3.6 1 1.9 0.7 3.9 1.3c1.3 0.5 2.7 1.1 4.1 1.6 1.3 0.6 2.7 1.2 4.2 1.9 1.4 0.7 2.9 1.5 4.4 2.2q1.1 0.6 2.2 1.3c0.7 0.4 1.5 0.8 2.3 1.3 1.5 1 3 1.9 4.5 3.1 3.1 2.1 6.1 4.6 9.2 7.4q4.6 4.2 8.9 9.3c5.7 7 10.9 15.4 14.7 25.2 3.7 9.8 6.1 20.9 6.1 32.9q0.4 0 0.8 0c0-12.1-2.4-23.4-6.2-33.2zm-83.9 124.8c0.7 0 1.6 0 2.8-0.1q1.7-0.1 3.9-0.3c1.5-0.2 3.2-0.4 5-0.6q1.4-0.3 2.9-0.5 0.8-0.2 1.6-0.3 0.8-0.2 1.6-0.4c1.1-0.3 2.2-0.5 3.4-0.8q1.8-0.5 3.6-1 1.9-0.7 3.9-1.3c1.3-0.5 2.7-1.1 4.1-1.6 1.3-0.6 2.7-1.3 4.2-1.9 1.4-0.7 2.9-1.5 4.4-2.2q1.1-0.6 2.2-1.3c0.7-0.4 1.5-0.8 2.3-1.3 1.5-1 3-1.9 4.5-3.1 3.1-2.1 6.1-4.6 9.2-7.4q4.6-4.2 8.9-9.4c5.7-6.9 10.9-15.3 14.7-25.1 3.7-9.8 6.1-20.9 6.1-33q-0.4 0-0.8 0c0 12-2.4 23-6.1 32.7-3.7 9.7-8.9 18-14.5 24.9q-4.3 5.2-8.8 9.3c-3.1 2.8-6.1 5.3-9.1 7.4-1.5 1.1-3.1 2-4.6 3-0.7 0.5-1.5 0.9-2.2 1.3q-1.1 0.6-2.2 1.3c-1.5 0.7-2.9 1.5-4.4 2.2-1.4 0.6-2.8 1.3-4.2 1.8-1.3 0.6-2.7 1.1-4 1.6q-2 0.7-3.8 1.3-1.9 0.5-3.6 1c-1.2 0.3-2.3 0.5-3.4 0.8q-0.8 0.2-1.6 0.4-0.8 0.1-1.5 0.3-1.5 0.2-2.9 0.5c-1.8 0.2-3.5 0.4-5 0.6q-2.2 0.2-3.9 0.3c-1.1 0.1-2 0-2.8 0.1q-2.2 0-2.2 0 0 0.4 0 0.8 0 0 2.3 0zm-2.3 0q0-0.4 0-0.8 0 0 0 0 0 0.4 0 0.8 0 0 0 0zm-84.6-56.5c4.5 11.1 11.3 21.2 19.8 29.7 8.5 8.5 18.7 15.3 29.7 19.9 11.1 4.6 23.1 6.9 35.1 6.9q0-0.4 0-0.8c-11.9 0-23.8-2.3-34.7-6.9-11-4.5-21.1-11.2-29.5-19.7-8.4-8.4-15.1-18.4-19.7-29.4-4.5-11-6.9-22.8-6.9-34.7q-0.4 0-0.8 0c0 12 2.4 23.9 7 35zm-7-35q0.4 0 0.8 0 0-0.1 0-0.1-0.4 0-0.8 0 0 0 0 0.1zm56.5-84.7c-11 4.6-21.2 11.4-29.7 19.9-8.5 8.5-15.3 18.6-19.8 29.7-4.6 11.1-7 23-7 35q0.4 0 0.8 0c0-11.9 2.4-23.7 6.9-34.7 4.6-11 11.3-21 19.7-29.4 8.4-8.5 18.5-15.2 29.5-19.7 10.9-4.6 22.8-6.9 34.7-6.9q0-0.4 0-0.9c-12 0.1-24 2.4-35.1 7zm35.1-7q0 0.5 0 0.9 0 0 0 0 0-0.4 0-0.9 0 0 0 0zm85.5 58.7c-3.8-9.8-9-18.2-14.7-25.2q-4.3-5.1-8.9-9.3c-3.1-2.8-6.1-5.3-9.2-7.4-1.5-1.2-3-2.1-4.5-3.1-0.8-0.5-1.6-0.9-2.3-1.3q-1.1-0.7-2.2-1.3c-1.5-0.7-3-1.5-4.4-2.2-1.5-0.7-2.9-1.3-4.2-1.9-1.4-0.5-2.8-1.1-4.1-1.6q-2-0.6-3.9-1.3-1.8-0.5-3.6-1c-1.2-0.3-2.3-0.5-3.4-0.8q-0.8-0.2-1.6-0.4-0.8-0.1-1.6-0.3-1.5-0.2-2.9-0.5c-1.8-0.2-3.5-0.5-5-0.6q-2.2-0.2-3.9-0.3c-1.2-0.1-2.1-0.1-2.8-0.1q-2.3-0.1-2.3-0.1 0 0.5 0 0.9 0 0 2.2 0c0.8 0 1.7 0 2.8 0.1q1.7 0.1 3.9 0.3c1.5 0.2 3.2 0.4 5 0.6q1.4 0.3 2.9 0.5 0.7 0.2 1.5 0.3 0.8 0.2 1.6 0.4c1.1 0.2 2.2 0.5 3.4 0.8q1.7 0.5 3.6 1 1.8 0.6 3.8 1.3c1.3 0.5 2.7 1 4 1.6 1.4 0.5 2.8 1.2 4.2 1.8 1.5 0.7 2.9 1.5 4.4 2.2q1.1 0.6 2.2 1.3c0.7 0.4 1.5 0.8 2.2 1.3 1.5 1 3.1 1.9 4.6 3 3 2.1 6 4.6 9.1 7.4q4.5 4.1 8.8 9.3c5.6 6.9 10.8 15.2 14.5 24.9 3.7 9.7 6.1 20.7 6.1 32.6q0.4 0 0.8 0c0-12-2.4-23.1-6.1-32.9zm-83.3 123.7c0.8-0.1 1.7 0 2.8-0.1q1.7-0.1 3.9-0.3c1.5-0.2 3.2-0.4 5-0.6q1.4-0.3 2.9-0.5 0.7-0.2 1.5-0.3 0.8-0.2 1.6-0.4c1.1-0.3 2.2-0.5 3.4-0.8q1.7-0.5 3.6-1 1.8-0.6 3.8-1.3c1.3-0.5 2.7-1 4-1.6 1.4-0.5 2.8-1.2 4.2-1.8 1.5-0.7 2.9-1.5 4.4-2.2q1.1-0.7 2.2-1.3c0.7-0.4 1.5-0.8 2.2-1.3 1.5-1 3.1-1.9 4.6-3 3-2.1 6-4.6 9.1-7.4q4.5-4.1 8.8-9.3c5.6-6.9 10.8-15.2 14.5-24.9 3.7-9.7 6.1-20.7 6.1-32.7q-0.4 0-0.8 0c0 11.9-2.4 22.8-6.1 32.4-3.6 9.7-8.8 17.9-14.3 24.7q-4.3 5.1-8.8 9.2c-3 2.7-6 5.2-9 7.3-1.5 1.1-3 2-4.5 3-0.7 0.5-1.5 0.9-2.2 1.3q-1.1 0.6-2.2 1.3c-1.5 0.7-2.9 1.5-4.3 2.1-1.4 0.7-2.8 1.3-4.2 1.9-1.3 0.5-2.7 1.1-4 1.5q-1.9 0.7-3.7 1.3-1.9 0.5-3.6 1c-1.2 0.3-2.3 0.6-3.4 0.8q-0.8 0.2-1.5 0.4-0.8 0.1-1.6 0.3-1.5 0.2-2.8 0.5c-1.9 0.2-3.5 0.4-5 0.6q-2.2 0.1-3.8 0.3c-1.1 0-2 0-2.8 0.1q-2.2 0-2.2 0 0 0.4 0 0.8 0 0 2.2 0zm-2.2 0q0-0.4 0-0.8 0 0 0 0 0 0.4 0 0.8 0 0 0 0zm-83.9-56c4.6 11 11.3 21 19.7 29.4 8.4 8.5 18.5 15.2 29.5 19.7 10.9 4.6 22.8 6.9 34.7 6.9q0-0.4 0-0.8c-11.8 0-23.6-2.3-34.4-6.8-10.9-4.5-20.9-11.2-29.2-19.5-8.4-8.4-15-18.4-19.5-29.2-4.5-10.9-6.9-22.6-6.9-34.4q-0.4 0-0.8 0c0 11.9 2.4 23.7 6.9 34.7zm-6.9-34.7q0.4 0 0.8 0 0-0.1 0-0.1-0.4 0-0.8 0 0 0 0 0.1zm56.1-83.9c-11 4.5-21.1 11.2-29.5 19.7-8.4 8.4-15.1 18.4-19.7 29.4-4.5 11-6.9 22.8-6.9 34.7q0.4 0 0.8 0c0-11.8 2.4-23.5 6.9-34.4 4.5-10.9 11.1-20.8 19.5-29.2 8.3-8.3 18.3-15 29.2-19.5 10.8-4.5 22.6-6.8 34.4-6.8q0-0.4 0-0.8c-11.9 0-23.8 2.3-34.7 6.9zm34.7-6.9q0 0.4 0 0.8 0 0 0 0 0-0.4 0-0.8 0 0 0 0zm84.7 58.1c-3.7-9.7-8.9-18-14.5-24.9q-4.3-5.2-8.8-9.3c-3.1-2.8-6.1-5.3-9.1-7.4-1.5-1.1-3.1-2-4.6-3-0.7-0.5-1.5-0.9-2.2-1.3q-1.1-0.7-2.2-1.3c-1.5-0.7-2.9-1.5-4.4-2.2-1.4-0.6-2.8-1.3-4.2-1.8-1.3-0.6-2.7-1.1-4-1.6q-2-0.7-3.8-1.3-1.9-0.5-3.6-1c-1.2-0.3-2.3-0.6-3.4-0.8q-0.8-0.2-1.6-0.4-0.8-0.1-1.5-0.3-1.5-0.2-2.9-0.5c-1.8-0.2-3.5-0.4-5-0.6q-2.2-0.2-3.9-0.3c-1.1-0.1-2-0.1-2.8-0.1q-2.2 0-2.2 0 0 0.4 0 0.8 0 0 2.2 0c0.8 0.1 1.7 0.1 2.8 0.1q1.6 0.1 3.8 0.3c1.5 0.2 3.1 0.4 5 0.6q1.3 0.3 2.8 0.5 0.8 0.2 1.6 0.3 0.7 0.2 1.5 0.4c1.1 0.2 2.2 0.4 3.4 0.8q1.7 0.5 3.6 1 1.8 0.6 3.7 1.3c1.3 0.4 2.7 1 4 1.5 1.4 0.6 2.8 1.2 4.2 1.9 1.4 0.6 2.8 1.4 4.3 2.1q1.1 0.7 2.2 1.3c0.7 0.4 1.5 0.8 2.2 1.3 1.5 1 3 1.9 4.5 3 3 2.1 6 4.6 9 7.3q4.5 4.1 8.8 9.2c5.5 6.8 10.7 15 14.3 24.7 3.7 9.6 6.1 20.5 6.1 32.3q0.4 0 0.8 0c0-11.9-2.4-22.9-6.1-32.6zm-82.5 122.6c0.8-0.1 1.7-0.1 2.8-0.1q1.6-0.2 3.8-0.3c1.5-0.2 3.1-0.4 5-0.6q1.3-0.3 2.8-0.5 0.8-0.2 1.6-0.3 0.7-0.2 1.5-0.4c1.1-0.2 2.2-0.5 3.4-0.8q1.7-0.5 3.6-1 1.8-0.6 3.7-1.3c1.3-0.4 2.7-1 4-1.5 1.4-0.6 2.8-1.2 4.2-1.9 1.4-0.6 2.8-1.4 4.3-2.1q1.1-0.7 2.2-1.3c0.7-0.4 1.5-0.8 2.2-1.3 1.5-1 3-1.9 4.5-3 3-2.1 6-4.6 9-7.3q4.5-4.1 8.8-9.2c5.5-6.8 10.7-15 14.3-24.7 3.7-9.6 6.1-20.5 6.1-32.4q0 0-0.8 0c-0.1 11.8-2.4 22.6-6 32.1-3.6 9.6-8.8 17.7-14.3 24.5q-4.2 5-8.6 9.1c-3 2.7-6 5.2-9 7.2-1.4 1.1-3 2-4.4 3-0.7 0.5-1.5 0.9-2.2 1.3q-1.1 0.6-2.2 1.2c-1.5 0.8-2.9 1.5-4.3 2.2-1.4 0.6-2.7 1.3-4.1 1.8-1.3 0.5-2.6 1.1-3.9 1.6q-2 0.6-3.8 1.2-1.8 0.5-3.5 1c-1.2 0.4-2.3 0.6-3.3 0.8q-0.8 0.2-1.6 0.4-0.8 0.1-1.5 0.3-1.5 0.2-2.9 0.5c-1.8 0.2-3.4 0.4-4.8 0.6q-2.2 0.1-3.9 0.3c-1.1 0-2 0-2.7 0q-2.2 0.1-2.2 0.1 0 0.8 0 0.8 0 0 2.2 0zm-2.2 0q0 0 0-0.8 0 0 0 0 0 0.8 0 0.8 0 0 0 0zm-83.1-55.5c4.5 10.8 11.1 20.8 19.5 29.2 8.3 8.3 18.3 15 29.2 19.5 10.8 4.5 22.6 6.8 34.4 6.8q0 0 0-0.8c-11.7 0-23.4-2.3-34.1-6.8-10.8-4.4-20.7-11.1-28.9-19.3-8.3-8.3-14.9-18.2-19.4-28.9-4.5-10.8-6.7-22.4-6.8-34.1q-0.8 0-0.8 0c0 11.8 2.4 23.5 6.9 34.4zm-6.9-34.4q0 0 0.8 0 0-0.1 0-0.1-0.8 0-0.8 0 0 0 0 0.1zm55.6-83.2c-10.9 4.5-20.9 11.2-29.2 19.5-8.4 8.4-15 18.3-19.5 29.2-4.5 10.9-6.9 22.6-6.9 34.4q0 0 0.8 0c0.1-11.7 2.3-23.3 6.8-34.1 4.5-10.7 11.1-20.6 19.4-28.9 8.2-8.3 18.1-14.9 28.9-19.3 10.7-4.5 22.4-6.8 34.1-6.8q0-0.8 0-0.8c-11.8 0-23.6 2.3-34.4 6.8zm34.4-6.8q0 0 0 0.8 0 0 0 0 0-0.8 0-0.8 0 0 0 0zm83.9 57.6c-3.6-9.7-8.8-17.9-14.3-24.7q-4.3-5.1-8.8-9.2c-3-2.7-6-5.2-9-7.3-1.5-1.1-3-2-4.5-3-0.7-0.5-1.5-0.9-2.2-1.3q-1.1-0.6-2.2-1.3c-1.5-0.7-2.9-1.5-4.3-2.1-1.4-0.7-2.8-1.3-4.2-1.9-1.3-0.5-2.7-1.1-4-1.5q-1.9-0.7-3.7-1.3-1.9-0.5-3.6-1c-1.2-0.4-2.3-0.6-3.4-0.8q-0.8-0.2-1.5-0.4-0.8-0.1-1.6-0.3-1.5-0.2-2.8-0.5c-1.9-0.2-3.5-0.4-5-0.6q-2.2-0.2-3.8-0.3c-1.1 0-2 0-2.8-0.1q-2.2 0-2.2 0 0 0 0 0.8 0 0 2.2 0.1c0.7 0 1.6 0 2.7 0q1.7 0.2 3.9 0.3c1.4 0.2 3 0.4 4.8 0.6q1.4 0.3 2.9 0.5 0.7 0.2 1.5 0.3 0.8 0.2 1.6 0.4c1 0.2 2.1 0.4 3.3 0.8q1.7 0.4 3.5 1 1.8 0.6 3.8 1.2c1.3 0.5 2.6 1 3.9 1.6 1.4 0.5 2.7 1.2 4.1 1.8 1.4 0.7 2.8 1.4 4.3 2.2q1.1 0.6 2.2 1.2c0.7 0.4 1.5 0.8 2.2 1.3 1.4 1 3 1.9 4.4 3 3 2 6 4.5 9 7.2q4.4 4.1 8.6 9.1c5.5 6.8 10.7 14.9 14.3 24.5 3.6 9.5 5.9 20.3 6 32q0.8 0 0.8 0c0-11.8-2.4-22.7-6.1-32.3z"/></svg>