<svg version="1.2" xmlns="http://www.w3.org/2000/svg" viewBox="0 0 620 1346" width="620" height="1346"><defs><linearGradient id="P" gradientUnits="userSpaceOnUse"/><linearGradient id="g1" x2="1" href="#P" gradientTransform="matrix(0,-1345.304,619.826,0,-1149.872,1345.301)"><stop stop-color="#343d6b"/><stop offset="1" stop-color="#5a6cb4"/></linearGradient><linearGradient id="g2" x2="1" href="#P" gradientTransform="matrix(10.711,-93.471,95.697,10.966,383.856,604.125)"><stop stop-color="#2e2e3d"/><stop offset="1" stop-color="#707b97"/></linearGradient><linearGradient id="g3" x2="1" href="#P" gradientTransform="matrix(-35.15,-86.129,87.956,-35.896,475.175,614.905)"><stop stop-color="#2e2e3d"/><stop offset="1" stop-color="#707b97"/></linearGradient><linearGradient id="g4" x2="1" href="#P" gradientTransform="matrix(-38.19,-55.638,65.875,-45.217,434.482,630.335)"><stop stop-color="#2e2e3d"/><stop offset="1" stop-color="#707b97"/></linearGradient><linearGradient id="g5" x2="1" href="#P" gradientTransform="matrix(-52.385,-95.303,96.951,-53.291,251.427,595.53)"><stop stop-color="#2e2e3d"/><stop offset="1" stop-color="#707b97"/></linearGradient><linearGradient id="g6" x2="1" href="#P" gradientTransform="matrix(-30.037,-32.495,31.242,-28.878,512.549,633.308)"><stop stop-color="#2e2e3d"/><stop offset="1" stop-color="#546182"/></linearGradient><linearGradient id="g7" x2="1" href="#P" gradientTransform="matrix(-36.274,-32.642,32.922,-36.586,171.71,632.222)"><stop stop-color="#2e2e3d"/><stop offset="1" stop-color="#546182"/></linearGradient><linearGradient id="g8" x2="1" href="#P" gradientTransform="matrix(-34.63,-23.835,19.689,-28.606,254.37,636.096)"><stop stop-color="#2e2e3d"/><stop offset="1" stop-color="#546182"/></linearGradient><linearGradient id="g9" x2="1" href="#P" gradientTransform="matrix(0,-20.207,400.341,0,312.712,644.77)"><stop stop-color="#2e2e3d"/><stop offset=".99" stop-color="#1c1c2c"/></linearGradient><linearGradient id="g10" x2="1" href="#P" gradientTransform="matrix(0,-121.935,88.04,0,232.436,761.21)"><stop offset=".01" stop-color="#ffff79"/><stop offset=".8" stop-color="#fead0b"/><stop offset=".98" stop-color="#a67108"/></linearGradient><linearGradient id="g11" x2="1" href="#P" gradientTransform="matrix(0,-103.972,53.434,0,303.469,770.445)"><stop offset=".01" stop-color="#ffff79"/><stop offset="1" stop-color="#fead0b"/></linearGradient><linearGradient id="g12" x2="1" href="#P" gradientTransform="matrix(0,-101.408,45.501,0,110.461,754.759)"><stop offset=".01" stop-color="#ffff79"/><stop offset="1" stop-color="#fead0b"/></linearGradient><linearGradient id="g13" x2="1" href="#P" gradientTransform="matrix(11.622,-24.343,18.837,8.993,210.34,775.565)"><stop stop-color="#818ca8"/><stop offset="1" stop-color="#dbe8ff"/></linearGradient><linearGradient id="g14" x2="1" href="#P" gradientTransform="matrix(11.622,-24.343,18.837,8.993,304.855,775.565)"><stop stop-color="#818ca8"/><stop offset="1" stop-color="#dbe8ff"/></linearGradient><linearGradient id="g15" x2="1" href="#P" gradientTransform="matrix(11.622,-24.343,18.837,8.993,399.37,775.565)"><stop stop-color="#818ca8"/><stop offset="1" stop-color="#dbe8ff"/></linearGradient><linearGradient id="g16" x2="1" href="#P" gradientTransform="matrix(11.622,-24.343,18.837,8.993,169.974,710.686)"><stop stop-color="#818ca8"/><stop offset="1" stop-color="#dbe8ff"/></linearGradient><linearGradient id="g17" x2="1" href="#P" gradientTransform="matrix(11.622,-24.343,18.837,8.993,264.489,710.686)"><stop stop-color="#818ca8"/><stop offset="1" stop-color="#dbe8ff"/></linearGradient><linearGradient id="g18" x2="1" href="#P" gradientTransform="matrix(11.622,-24.343,18.837,8.993,359.004,710.686)"><stop stop-color="#818ca8"/><stop offset="1" stop-color="#dbe8ff"/></linearGradient><linearGradient id="g19" x2="1" href="#P" gradientTransform="matrix(11.622,-24.343,18.837,8.993,444.56,710.686)"><stop stop-color="#818ca8"/><stop offset="1" stop-color="#dbe8ff"/></linearGradient></defs><style>.a{fill:url(#g1)}.b{fill:#2e2e3d}.c{fill:url(#g2)}.d{fill:url(#g3)}.e{fill:url(#g4)}.f{fill:url(#g5)}.g{fill:url(#g6)}.h{fill:url(#g7)}.i{fill:url(#g8)}.j{fill:url(#g9)}.k{fill:#ffc60a}.l{fill:#e2af09}.m{fill:#ffc60b}.n{fill:url(#g10)}.o{fill:#e1ae0b}.p{fill:#ffc70b}.q{fill:url(#g11)}.r{fill:#e6b009}.s{fill:#ffc409}.t{fill:url(#g12)}.u{fill:url(#g13)}.v{fill:url(#g14)}.w{fill:url(#g15)}.x{fill:url(#g16)}.y{fill:url(#g17)}.z{fill:url(#g18)}.A{fill:url(#g19)}</style><path class="a" d="m80.2 0h459.8c44.2 0 80 35.8 80 80v1185.3c0 44.2-35.8 80-80 80h-459.8c-44.2 0-80-35.8-80-80v-1185.3c0-44.2 35.8-80 80-80z"/><path class="b" d="m243.5 605.5c2.1 44.4 40.8 36 86.4 33.8 45.5-2.3 80.7 2.5 78.6-41.9-2.1-44.5-40.8-78.7-86.3-76.4-45.6 2.2-80.8 40.1-78.7 84.5z"/><path class="c" d="m406.1 546.9c1 22.2-7.2 42.8-21.5 58.1-12 12.9-28.4 22.1-47 25.3-0.1-22 1.3-50.5-0.1-80-0.8-17.5-2.6-34.5-4.3-50 21.3 0.4 46.7 3.5 62.2 10.6 6.3 10.6 10.1 22.9 10.7 36zm-10.7-36c-15.5-7.1-40.9-10.2-62.2-10.6-1.2-10.7-2.3-20.7-3.1-29.7 18.8 1.4 35.9 8.9 49.1 20.6 6.4 5.7 11.9 12.3 16.2 19.7zm-57.9 39.4c1.4 29.5 0 58 0.1 80q-5 0.8-10.2 1.1c-22.8 1.1-43.8-6.9-59.4-20.7-15.7-13.8-25.8-33.5-26.9-55.7-0.6-13.1 2-25.7 7.2-36.9 17.5-10.1 46.7-16.3 72.4-17.6 3.9-0.1 8.7-0.3 12.5-0.2 1.7 15.5 3.5 32.5 4.3 50zm-4.3-50c-3.8-0.1-8.6 0.1-12.5 0.2-25.7 1.3-54.9 7.5-72.4 17.6 3.6-7.8 8.5-14.9 14.3-21.1 14.2-15.3 34.4-25.3 57.2-26.5q5.2-0.2 10.3 0.1c0.8 9 1.9 19 3.1 29.7z"/><path class="d" d="m489.5 578c0.7 14.3-4.7 27.6-13.8 37.4-7.9 8.4-18.5 14.4-30.6 16.4-0.1-26 0.5-51.6-2.2-77.6 14.6 0 31.2 1.8 42 4.9 2.7 5.8 4.3 12.2 4.6 18.9zm-4.6-18.9c-10.8-3.1-27.4-4.9-42-4.9-0.9-9.3-2-17.9-2.6-25.5 12.2 0.9 23.3 5.7 31.9 13.3 5.3 4.8 9.7 10.6 12.7 17.1zm-39.8 72.7q-3.1 0.5-6.4 0.7c-14.7 0.7-28.3-4.4-38.4-13.3-10-9-16.6-21.7-17.3-36-0.3-6.7 0.7-13.2 2.8-19.2 17.8-7 38.1-9.7 57.1-9.8 2.7 26 2.1 51.6 2.2 77.6zm-2.2-77.6c-19 0.1-39.3 2.8-57.1 9.8 2.4-6.8 6.2-13 11.1-18.3 9.2-9.8 22.2-16.3 36.9-17q3.3-0.2 6.5 0c0.6 7.6 1.7 16.2 2.6 25.5z"/><path class="e" d="m452.9 629.6c0.7 16-5.5-3.5-15.7 7.4-9.5 10.2-24.7-1.8-39.6-0.2-1.1-30.4 0.9-7.4-1.5-37.7 17.4-0.4 37.6 1.8 50.2 6.6 3.8 7.2 6.2 15.3 6.6 23.9zm-6.6-23.9c-12.6-4.8-32.8-7-50.2-6.6-0.7-8.9-1.3-17.1-1.7-24.4 15 0.1 28.8 5.7 39.2 14.9 5.1 4.6 9.5 10 12.7 16.1zm-48.7 31.1c-1.1 0.1-3.4 2.2-4.6 2.3-16.4 0.8-26.8 9.2-38-0.8-11.2-9.9-19.9 13.1-20.6-2.9-0.4-8.6 1.1-16.9 4.2-24.4 17.2-8.6 38.4-11.5 57.5-11.9 2.4 30.3 0.4 7.3 1.5 37.7zm-1.5-37.7c-19.1 0.4-40.3 3.3-57.5 11.9 2.7-6.4 6.5-12.2 11.2-17.3 10.2-10.9 24.7-18.1 41.1-18.9q1.7-0.1 3.5-0.1c0.4 7.3 1 15.5 1.7 24.4z"/><path class="f" d="m267.4 553.7c0.7 16-5.2 30.8-15.5 41.7-10.2 11-24.7 18.2-41.1 19q-3.1 0.2-6.1 0c-1.3-15.8-4-36-5-57.3-0.5-10.5-0.5-20.8-0.5-30.4 20.5-1.9 42.9-1.2 62.6 5.1 3.2 6.7 5.2 14.1 5.6 21.9zm-5.6-21.9c-19.7-6.3-42.1-7-62.6-5.1 0-9.9 0.1-19.1 0-27.2q3-0.5 6.2-0.6c16.3-0.8 31.4 4.9 42.7 14.8 5.7 5.1 10.3 11.2 13.7 18.1zm-62.1 25.3c1 21.3 3.7 41.5 5 57.3-14-0.7-26.8-6.2-36.6-14.8-11.2-10-18.5-24.1-19.2-40-0.4-7.9 0.8-15.5 3.4-22.4 11.8-5.1 30.4-9 46.9-10.5 0 9.6 0 19.9 0.5 30.4zm-0.5-30.4c-16.5 1.5-35.1 5.4-46.9 10.5 2.7-7.2 6.8-13.8 12-19.3 8.9-9.6 21.1-16.3 34.9-18.4 0.1 8.1 0 17.3 0 27.2z"/><path class="g" d="m513.3 620.8c0.5 10.1 0.8 13.2 0.1 14.6-7.9 1.5-23.3 0.8-31.3 2.4 0.4-19.1 2.3-17.3-0.1-36.4 9.3 0.3 20.3 1.6 27.2 4.3 2.4 4.5 3.9 9.6 4.1 15.1zm-4.1-15.1c-6.9-2.7-17.9-4-27.2-4.3-0.7-5.5-1.4-10.7-1.9-15.2 8 0.9 15.3 4.2 21 9.3 3.3 2.8 6 6.3 8.1 10.2zm-27.1 32.1c-1.9 0.4-5 1.5-7.1 1.6-10.3 0.5-18 3.6-25.1-2.7-7.1-6.3-11.1-2.1-11.6-12.2-0.2-5.5 0.8-10.7 2.7-15.5 12.2-6.1 27.5-7.9 41-7.6 2.4 19.1 0.5 17.3 0.1 36.4zm-0.1-36.4c-13.5-0.3-28.8 1.5-41 7.6 1.7-4 4.1-7.7 7.1-10.9 6.5-7 15.6-11.5 26-12q3-0.2 6 0.1c0.5 4.5 1.2 9.7 1.9 15.2z"/><path class="h" d="m181.4 612.2c0.5 10.1-1.8 16.2-8.3 23.2-6.5 6.9-12.9 0.9-23.3 1.4-2.3 0.1-8.7-0.2-10.9-0.5-2.3-16.6-4.8-18.9-4.4-35.7 15-1.4 30-1 44.9 1.3 1.2 3.3 1.9 6.7 2 10.3zm-2-10.3c-14.9-2.3-29.9-2.7-44.9-1.3 0.1-8.2 0.6-15.9 0.9-22.2q3.3-0.7 6.8-0.9c10.3-0.5 19.9 3.1 27 9.4 4.6 4 8.1 9.2 10.2 15zm-40.5 34.4c-7.7-1-20.3 3.9-25.8-0.9-2.6-1.7-6.2-9.4-6.7-19.5-0.1-3.6 0.2-7.1 1.1-10.4 7.2-1.9 17.3-4.1 27-4.9-0.4 16.8 2.1 19.1 4.4 35.7zm-4.4-35.7c-9.7 0.8-19.8 3-27 4.9 1.5-6.1 4.5-11.5 8.7-16 5-5.4 11.6-9.3 19.2-11.1-0.3 6.3-0.8 14-0.9 22.2z"/><path class="i" d="m271.4 638.5c0.7 14.4-4.7-4.8-13.9 5-15.2-2.1-24.7-4.7-39.4-4-1.2-25.8 0 1.9-1.2-23.9 17.6-0.9 37.3 1 50.1 4.5 2.5 5.7 4.1 11.9 4.4 18.4zm-4.4-18.4c-12.8-3.5-32.5-5.4-50.1-4.5-0.4-9.6-0.9-18.5-1.2-26.3 14.7-0.8 28.3 4.4 38.3 13.3 5.5 4.8 9.9 10.8 13 17.5zm-48.9 19.4c-14.7 0.8-17 6.7-27.1-2.2-10.1-8.9-23.5 13.7-24.2-0.6-0.3-6.6-1.3-5.8 0.7-11.7 12.4-4.7 31.8-8.6 49.4-9.4 1.2 25.8 0-1.9 1.2 23.9zm-1.2-23.9c-17.6 0.8-37 4.7-49.4 9.4 2.4-7 6.3-13.3 11.2-18.7 9.2-9.9 22.3-16.3 37-17 0.3 7.8 0.8 16.7 1.2 26.3z"/><path class="j" d="m513.4 635.4c-1.4 3.3-89.6 9.4-200.2 9.4-110.5 0-200.1-4.2-200.1-9.4 0-2.2 43.1-10.3 53.2-5.9 6.9-6 91.1-7.3 103.9 0.4 10.8-2.9 49.8-3.2 64.6-1.1 7.9-2.3 65.1-7 104.1-0.3 65.5-1 75 5.7 74.5 6.9z"/><path class="k" d="m335.4 639.3l3 2.2 24.9 36.8-2.4-1.4z"/><path class="l" d="m360.9 676.9l2.4 1.4-42.4 35.7-3.4-0.6z"/><path class="m" d="m317.5 713.4l3.4 0.6 30.9 46.8-2.7 0.4z"/><path class="n" d="m335.4 639.3l25.5 37.6-43.4 36.5 31.6 47.8-76-47.8 39.6-37-39.8-37.1z"/><path class="m" d="m398.6 726.6l2.6 0.4 9.3 43-2.5 0.4z"/><path class="o" d="m431.3 701.3l2.1 0.8-32.2 24.9-2.6-0.4z"/><path class="p" d="m401.5 666.5l2.5 1.4 29.4 34.2-2.1-0.8z"/><path class="q" d="m401.5 666.5l29.8 34.8-32.7 25.3 9.4 43.8-30.1-49.9 34.3-20.3z"/><path class="p" d="m215.7 653.4l2.6 1.3 30 28.4-2.1-0.9z"/><path class="r" d="m246.2 682.2l2.1 0.9-25.8 30.4-2.6-0.3z"/><path class="s" d="m219.9 713.2l2.6 0.3 13.2 40.9-2.4 0.4z"/><path class="t" d="m215.7 653.4l30.5 28.8-26.3 31 13.4 41.6-32.6-43.9 28.3-26.3z"/><path class="u" d="m198.8 774.3c-1.1-2.7-1.6-5.6-1.5-8.6 3.4 3 8.4 8.1 13 10.3-1.5 3.7-2.1 5.5-3.1 8.5-3.8-2.5-6.7-6.1-8.4-10.2zm11.7 11.9q-1.7-0.7-3.3-1.7c1-3 1.6-4.8 3.1-8.5 7.2 3.7 16 5 24.1 5.5-2.1 2.1-4.6 3.8-7.3 4.9-5.1 2-11.1 2.1-16.6-0.2zm-13.2-20.5c0-2.7 0.6-5.4 1.7-8 1.2-2.8 3.9-5.6 7.3-8.3 5.2 0.1 11.6 0.9 15.8 2-5.5 13-9.5 19.9-10.3 21.5-0.7 1.4-1.2 2.5-1.5 3.1-4.6-2.2-9.6-7.3-13-10.3zm13 10.3c0.3-0.6 0.8-1.7 1.5-3.1 0.8-1.6 4.8-8.5 10.3-21.5 6.9 1.8 12.9 7.5 17.9 12.3 0.4 4.3 0.2 8.2-1 11-1.1 2.6-2.7 4.9-4.6 6.8-8.1-0.5-16.9-1.8-24.1-5.5zm-4-26.6c4.1-3.4 9.3-6.5 14-9 5.2-2.8 9.8-4.9 11.5-5.6-2.6 5.2-7.2 10.8-9.7 16.6-4.2-1.1-10.6-1.9-15.8-2zm15.8 2c2.5-5.8 7.1-11.4 9.7-16.6q0.7-0.3 0.7-0.3c0 0 2.2 5.6 4.2 12.9 1.4 5.1 2.8 11 3.3 16.3-5-4.8-11-10.5-17.9-12.3z"/><path class="v" d="m293.4 774.3c-1.1-2.7-1.7-5.6-1.6-8.6 3.5 3 8.4 8.1 13 10.3-1.5 3.7-2 5.5-3.1 8.5-3.8-2.5-6.7-6.1-8.3-10.2zm11.6 11.9q-1.7-0.7-3.3-1.7c1.1-3 1.6-4.8 3.1-8.5 7.2 3.7 16 5 24.2 5.5-2.1 2.1-4.6 3.8-7.4 4.9-5.1 2-11.1 2.1-16.6-0.2zm-13.2-20.5c0-2.7 0.6-5.4 1.7-8 1.2-2.8 3.9-5.6 7.3-8.3 5.2 0.1 11.6 0.9 15.8 2-5.5 13-9.5 19.9-10.3 21.5-0.6 1.4-1.2 2.5-1.5 3.1-4.6-2.2-9.5-7.3-13-10.3zm13 10.3c0.3-0.6 0.9-1.7 1.5-3.1 0.8-1.6 4.8-8.5 10.3-21.5 6.9 1.8 12.9 7.5 17.9 12.3 0.4 4.3 0.2 8.2-1 11-1.1 2.6-2.7 4.9-4.5 6.8-8.2-0.5-17-1.8-24.2-5.5zm-4-26.6c4.1-3.4 9.3-6.5 14-9 5.2-2.8 9.8-4.9 11.5-5.6-2.6 5.2-7.2 10.8-9.7 16.6-4.2-1.1-10.6-1.9-15.8-2zm15.8 2c2.5-5.8 7.1-11.4 9.7-16.6q0.7-0.3 0.7-0.3c0 0 2.2 5.6 4.2 12.9 1.4 5.1 2.8 11 3.3 16.3-5-4.8-11-10.5-17.9-12.3z"/><path class="w" d="m387.9 774.3c-1.1-2.7-1.7-5.6-1.6-8.6 3.5 3 8.4 8.1 13.1 10.3-1.6 3.7-2.1 5.5-3.2 8.5-3.8-2.5-6.7-6.1-8.3-10.2zm11.6 11.9q-1.7-0.7-3.3-1.7c1.1-3 1.6-4.8 3.2-8.5 7.1 3.7 16 5 24.1 5.5-2.1 2.1-4.6 3.8-7.3 4.9-5.2 2-11.2 2.1-16.7-0.2zm-13.2-20.5c0.1-2.7 0.6-5.4 1.7-8 1.2-2.8 3.9-5.6 7.3-8.3 5.2 0.1 11.6 0.9 15.8 2-5.5 13-9.5 19.9-10.3 21.5-0.6 1.4-1.2 2.5-1.4 3.1-4.7-2.2-9.6-7.3-13.1-10.3zm13.1 10.3c0.2-0.6 0.8-1.7 1.4-3.1 0.8-1.6 4.8-8.5 10.3-21.5 6.9 1.8 12.9 7.5 17.9 12.3 0.4 4.3 0.2 8.2-1 11-1.1 2.6-2.6 4.9-4.5 6.8-8.1-0.5-17-1.8-24.1-5.5zm-4.1-26.6c4.1-3.4 9.3-6.5 14-9 5.2-2.8 9.8-4.9 11.5-5.6-2.6 5.2-7.2 10.8-9.7 16.6-4.2-1.1-10.6-1.9-15.8-2zm15.8 2c2.5-5.8 7.1-11.4 9.7-16.6q0.7-0.3 0.7-0.3c0 0 2.2 5.6 4.2 12.9 1.4 5.1 2.8 11 3.3 16.3-5-4.8-11-10.5-17.9-12.3z"/><path class="x" d="m158.5 709.4c-1.1-2.7-1.7-5.6-1.6-8.6 3.5 3 8.4 8.2 13.1 10.4-1.6 3.6-2.1 5.4-3.1 8.4-3.9-2.5-6.8-6.1-8.4-10.2zm11.6 11.9q-1.7-0.7-3.2-1.7c1-3 1.5-4.8 3.1-8.4 7.1 3.6 16 5 24.1 5.4-2.1 2.1-4.6 3.8-7.3 4.9-5.2 2.1-11.1 2.2-16.7-0.2zm-13.2-20.5c0.1-2.7 0.6-5.4 1.7-8 1.2-2.8 3.9-5.6 7.3-8.3 5.2 0.1 11.6 1 15.8 2-5.5 13-9.5 19.9-10.3 21.5-0.6 1.4-1.2 2.5-1.4 3.2-4.7-2.2-9.6-7.4-13.1-10.4zm13.1 10.4c0.2-0.7 0.8-1.8 1.4-3.2 0.8-1.6 4.8-8.5 10.3-21.5 6.9 1.8 13 7.5 17.9 12.3 0.4 4.3 0.2 8.2-1 11-1.1 2.6-2.6 4.9-4.5 6.8-8.1-0.4-17-1.8-24.1-5.4zm-4.1-26.7c4.2-3.3 9.3-6.5 14-9 5.3-2.8 9.8-4.9 11.5-5.6-2.6 5.2-7.2 10.8-9.7 16.6-4.2-1-10.6-1.9-15.8-2zm15.8 2c2.5-5.8 7.1-11.4 9.7-16.6q0.7-0.3 0.7-0.3c0 0 2.2 5.7 4.2 12.9 1.5 5.1 2.8 11 3.3 16.3-4.9-4.8-11-10.5-17.9-12.3z"/><path class="y" d="m253 709.4c-1.1-2.7-1.7-5.6-1.6-8.6 3.5 3 8.4 8.2 13.1 10.4-1.6 3.6-2.1 5.4-3.1 8.4-3.9-2.5-6.8-6.1-8.4-10.2zm11.6 11.9q-1.7-0.7-3.2-1.7c1-3 1.5-4.8 3.1-8.4 7.2 3.6 16 5 24.1 5.4-2.1 2.1-4.6 3.8-7.3 4.9-5.2 2.1-11.1 2.2-16.7-0.2zm-13.2-20.5c0.1-2.7 0.6-5.4 1.7-8 1.2-2.8 3.9-5.6 7.3-8.3 5.2 0.1 11.6 1 15.8 2-5.5 13-9.5 19.9-10.2 21.5-0.7 1.4-1.3 2.5-1.5 3.2-4.7-2.2-9.6-7.4-13.1-10.4zm13.1 10.4c0.2-0.7 0.8-1.8 1.5-3.2 0.7-1.6 4.7-8.5 10.2-21.5 6.9 1.8 13 7.5 17.9 12.3 0.4 4.3 0.2 8.2-0.9 11-1.2 2.6-2.7 4.9-4.6 6.8-8.1-0.4-16.9-1.8-24.1-5.4zm-4.1-26.7c4.2-3.3 9.4-6.5 14-9 5.3-2.8 9.9-4.9 11.5-5.6-2.6 5.2-7.2 10.8-9.7 16.6-4.2-1-10.6-1.9-15.8-2zm15.8 2c2.5-5.8 7.1-11.4 9.7-16.6q0.7-0.3 0.7-0.3c0 0 2.2 5.7 4.2 12.9 1.5 5.1 2.8 11 3.3 16.3-4.9-4.8-11-10.5-17.9-12.3z"/><path class="z" d="m347.5 709.4c-1.1-2.7-1.6-5.6-1.6-8.6 3.5 3 8.5 8.2 13.1 10.4-1.6 3.6-2.1 5.4-3.1 8.4-3.9-2.5-6.7-6.1-8.4-10.2zm11.7 11.9q-1.8-0.7-3.3-1.7c1-3 1.5-4.8 3.1-8.4 7.2 3.6 16 5 24.1 5.4-2.1 2.1-4.6 3.8-7.3 4.9-5.2 2.1-11.1 2.2-16.6-0.2zm-13.3-20.5c0.1-2.7 0.6-5.4 1.8-8 1.1-2.8 3.8-5.6 7.2-8.3 5.2 0.1 11.6 1 15.8 2-5.5 13-9.5 19.9-10.2 21.5-0.7 1.4-1.2 2.5-1.5 3.2-4.6-2.2-9.6-7.4-13.1-10.4zm13.1 10.4c0.3-0.7 0.8-1.8 1.5-3.2 0.7-1.6 4.7-8.5 10.2-21.5 6.9 1.8 13 7.5 17.9 12.3 0.4 4.3 0.2 8.2-0.9 11-1.1 2.6-2.7 4.9-4.6 6.8-8.1-0.4-16.9-1.8-24.1-5.4zm-4.1-26.7c4.2-3.3 9.4-6.5 14-9 5.3-2.8 9.9-4.9 11.6-5.6-2.7 5.2-7.3 10.8-9.8 16.6-4.2-1-10.6-1.9-15.8-2zm15.8 2c2.5-5.8 7.1-11.4 9.8-16.6q0.6-0.3 0.7-0.3c0 0 2.1 5.7 4.2 12.9 1.4 5.1 2.7 11 3.2 16.3-4.9-4.8-11-10.5-17.9-12.3z"/><path class="A" d="m433.1 709.4c-1.1-2.7-1.7-5.6-1.6-8.6 3.5 3 8.4 8.2 13 10.4-1.5 3.6-2 5.4-3.1 8.4-3.8-2.5-6.7-6.1-8.3-10.2zm11.6 11.9q-1.7-0.7-3.3-1.7c1.1-3 1.6-4.8 3.1-8.4 7.2 3.6 16 5 24.2 5.4-2.1 2.1-4.6 3.8-7.4 4.9-5.1 2.1-11.1 2.2-16.6-0.2zm-13.2-20.5c0-2.7 0.6-5.4 1.7-8 1.2-2.8 3.9-5.6 7.3-8.3 5.2 0.1 11.6 1 15.8 2-5.5 13-9.5 19.9-10.3 21.5-0.6 1.4-1.2 2.5-1.5 3.2-4.6-2.2-9.5-7.4-13-10.4zm13 10.4c0.3-0.7 0.9-1.8 1.5-3.2 0.8-1.6 4.8-8.5 10.3-21.5 6.9 1.8 12.9 7.5 17.9 12.3 0.4 4.3 0.2 8.2-1 11-1.1 2.6-2.7 4.9-4.5 6.8-8.2-0.4-17-1.8-24.2-5.4zm-4-26.7c4.1-3.3 9.3-6.5 14-9 5.2-2.8 9.8-4.9 11.5-5.6-2.6 5.2-7.2 10.8-9.7 16.6-4.2-1-10.6-1.9-15.8-2zm15.8 2c2.5-5.8 7.1-11.4 9.7-16.6q0.7-0.3 0.7-0.3c0 0 2.2 5.7 4.2 12.9 1.4 5.1 2.8 11 3.3 16.3-5-4.8-11-10.5-17.9-12.3z"/></svg>