
        <svg xmlns="http://www.w3.org/2000/svg" xmlns:xlink="http://www.w3.org/1999/xlink" version="1.1" width="3162.263241741332" 
        height="1028.621800536485" viewBox="0 0 3162.263241741332 1028.621800536485">
			<rect fill="#52616b" width="3162.263241741332" height="1028.621800536485"/>
			<g transform="scale(8.113162087066575) translate(10, 10)">
				<defs id="SvgjsDefs1296"><linearGradient id="SvgjsLinearGradient1301"><stop id="SvgjsStop1302" stop-color="#147d6c" offset="0"></stop><stop id="SvgjsStop1303" stop-color="#1effff" offset="1"></stop></linearGradient></defs><g id="SvgjsG1297" featureKey="hmhgWD-0" transform="matrix(1.5538414373141753,0,0,1.5538414373141753,0,12)" fill="url(#SvgjsLinearGradient1301)"><title xmlns="http://www.w3.org/2000/svg">42 -Global Cooling- (ecology, nature, enviorment)</title><desc xmlns="http://www.w3.org/2000/svg">Created with Sketch.</desc><g xmlns="http://www.w3.org/2000/svg" stroke="none" stroke-width="1" fill="none" fill-rule="evenodd"><g transform="translate(-240.000000, -830.000000)" fill="url(#SvgjsLinearGradient1301)"><g transform="translate(240.000000, 830.000000)"><g><path d="M29.4004,17.2886 C30.1084,17.5796 30.7774,17.8096 31.0504,17.7596 C31.7114,17.5216 31.9574,16.7836 32.0314,16.4766 C32.1744,15.8866 32.1084,15.2766 31.8684,14.8166 C31.7734,14.9706 31.6754,15.1426 31.5964,15.2806 C31.1014,16.1476 30.4924,17.2156 29.4004,17.2886 M40.0004,30.9996 C39.6744,30.9996 39.3564,30.8416 39.1634,30.5496 C38.6834,29.8206 38.5244,29.0756 38.3964,28.4766 C38.3524,28.2726 38.2964,28.0066 38.2424,27.8666 C38.0744,27.8706 37.6094,27.9426 36.5174,28.4406 C35.1624,29.0666 34.3994,29.2986 33.7474,28.9186 C33.1514,28.5716 33.1004,27.9486 33.0724,27.6146 C33.0534,27.3816 33.0434,27.2616 32.9604,27.1726 C32.9414,27.2336 32.9224,27.2946 32.9064,27.3476 C32.7234,27.9436 32.4724,28.7616 31.6394,29.0276 C30.7744,29.3086 29.9794,28.6956 29.7184,28.4956 C28.8584,27.8326 28.5424,26.9606 28.2884,26.2606 C27.9194,25.2386 27.8434,25.0266 26.3274,25.3896 C23.5994,26.0406 22.3594,26.1776 21.7424,25.3376 C21.1674,24.5556 21.6714,23.7086 22.2064,22.8116 C22.9334,21.5906 23.8394,20.0716 23.1444,18.4096 C22.9424,17.9336 22.4054,16.6616 23.2304,15.8586 C24.1804,14.9346 25.7464,15.6486 27.9124,16.6346 C28.0684,16.7056 28.2404,16.7836 28.4214,16.8646 C28.3154,16.7126 28.2504,16.5306 28.2424,16.3326 C28.1264,13.5246 29.6324,10.7896 31.8224,9.8296 C33.3074,9.1776 34.8394,9.4856 36.0254,10.6726 C36.3044,10.9556 36.5114,10.9626 36.7384,10.8856 C37.6394,10.5826 38.8264,8.8636 39.0664,7.0156 C39.1514,6.3576 39.1664,5.1946 38.3714,4.5586 C37.8764,4.6186 36.5954,5.1686 35.7274,5.5416 C34.1594,6.2146 32.6474,6.8866 31.6314,6.8446 C29.7134,6.8136 28.1854,7.9926 26.5814,9.2186 C24.2694,10.9866 21.6494,12.9916 17.5644,11.3896 C17.2084,11.2486 16.9624,10.9176 16.9324,10.5366 C16.7494,8.1966 18.8004,7.1176 20.4494,6.2496 C21.7684,5.5566 23.0134,4.9006 23.2074,3.8286 C23.2454,3.6146 23.2614,3.4526 23.2664,3.3336 C22.7394,3.5276 21.5374,4.2526 18.8664,6.7156 C18.2834,7.2546 18.0444,7.4756 17.5274,7.3766 C17.0744,7.2886 16.7414,6.9026 16.7194,6.4416 C16.6994,5.9966 16.8774,5.4836 17.1944,4.6166 C17.3834,4.0996 17.5984,3.5126 17.6604,3.1436 C17.7514,2.5996 18.2644,2.2306 18.8114,2.3226 C19.3234,2.4076 19.6794,2.8686 19.6444,3.3756 C22.0124,1.4406 23.3824,0.9206 24.3854,1.4706 C25.1564,1.8936 25.4224,2.8066 25.1754,4.1826 C24.8084,6.2166 22.9874,7.1746 21.3804,8.0196 C20.0724,8.7086 19.2944,9.1786 19.0264,9.7706 C21.6424,10.4766 23.3794,9.1486 25.3664,7.6296 C27.0834,6.3176 29.0624,4.8086 31.6424,4.8446 L31.6484,4.8446 C32.2814,4.8446 33.7544,4.2126 34.9374,3.7036 C37.2384,2.7156 38.4784,2.2256 39.3424,2.7946 C40.6824,3.6776 41.3044,5.3096 41.0494,7.2726 C40.7644,9.4696 39.3124,12.1306 37.3764,12.7816 C36.3674,13.1226 35.3844,12.8716 34.6064,12.0816 C34.0044,11.4796 33.3554,11.3406 32.6264,11.6616 C32.2214,11.8386 31.8184,12.1556 31.4624,12.5776 C31.5394,12.5546 31.6194,12.5386 31.7034,12.5286 C32.0504,12.4876 32.5734,12.5546 33.0824,13.0996 C33.9764,14.0566 34.3184,15.5306 33.9754,16.9486 C33.6614,18.2426 32.8114,19.2526 31.7024,19.6486 C30.6614,20.0226 29.2614,19.4456 27.0844,18.4546 C26.4754,18.1776 25.5784,17.7686 24.9584,17.5626 C24.9674,17.5856 24.9774,17.6096 24.9874,17.6336 C26.0734,20.2286 24.7284,22.4866 23.9234,23.8356 C23.9214,23.8406 23.9184,23.8456 23.9154,23.8506 C24.3404,23.7826 24.9604,23.6596 25.8624,23.4436 C28.8634,22.7226 29.6344,24.1046 30.1694,25.5796 C30.3684,26.1286 30.5404,26.6036 30.9384,26.9096 C30.9404,26.9126 30.9434,26.9136 30.9454,26.9156 C30.9624,26.8616 30.9794,26.8086 30.9934,26.7616 C31.1674,26.1956 31.3834,25.4916 32.0634,25.1596 C32.3374,25.0246 32.7854,24.9126 33.3704,25.1356 C34.5134,25.5776 34.8694,26.3436 34.9944,26.9226 C35.1684,26.8526 35.3934,26.7566 35.6824,26.6226 C37.3974,25.8416 38.4114,25.6826 39.1864,26.0716 C40.0164,26.4896 40.2024,27.3596 40.3524,28.0586 C40.4544,28.5386 40.5614,29.0346 40.8344,29.4506 C41.1384,29.9116 41.0104,30.5316 40.5484,30.8356 C40.3794,30.9466 40.1884,30.9996 40.0004,30.9996"></path><path d="M11.5254,38.6147 C11.0864,38.6147 10.6864,38.3247 10.5634,37.8857 C10.4194,37.3717 10.7034,36.8347 11.2104,36.6657 L11.5884,36.5397 C12.0874,36.3737 12.6314,36.6237 12.8304,37.1117 C13.0294,37.5997 12.8154,38.1577 12.3404,38.3877 L12.1894,38.4617 C12.1214,38.4947 12.0504,38.5197 11.9774,38.5367 L11.7504,38.5897 C11.6754,38.6067 11.5994,38.6147 11.5254,38.6147"></path><path d="M19.667,57.6592 C19.297,57.6592 18.941,57.4522 18.768,57.0972 L16.75,52.9562 L13.496,52.5172 C13.396,52.5032 13.298,52.4742 13.207,52.4322 L7.599,49.8142 C7.47,49.7542 7.356,49.6672 7.264,49.5602 C6.926,49.1682 6.599,48.7682 6.282,48.3602 C6.192,48.2442 6.128,48.1092 6.097,47.9662 L5.024,43.1812 C4.96,42.8982 5.024,42.6002 5.197,42.3672 L8.227,38.2852 C8.323,38.1562 8.449,38.0522 8.594,37.9812 L11.316,36.6622 C11.384,36.6302 11.455,36.6052 11.527,36.5882 L18.13,35.0632 C18.402,34.9982 18.691,35.0542 18.923,35.2142 L21.71,37.1362 L25.12,38.2092 L28.531,38.0752 C28.766,38.0722 28.986,38.1362 29.17,38.2742 L34.518,42.2812 C34.601,42.3432 34.673,42.4172 34.732,42.5012 L36.814,45.4192 C37.135,45.8692 37.03,46.4932 36.581,46.8142 C36.13,47.1352 35.505,47.0312 35.186,46.5802 L33.194,43.7882 L28.255,40.0872 L25.024,40.2142 C24.913,40.2172 24.794,40.2032 24.685,40.1692 L20.966,38.9982 C20.871,38.9682 20.781,38.9242 20.699,38.8672 L18.151,37.1112 L12.087,38.5122 L9.687,39.6742 L7.076,43.1912 L7.999,47.3082 C8.208,47.5742 8.422,47.8352 8.641,48.0932 L13.915,50.5552 L17.549,51.0462 C17.88,51.0912 18.167,51.2982 18.314,51.5992 L20.565,56.2212 C20.807,56.7182 20.601,57.3162 20.104,57.5582 C19.963,57.6272 19.814,57.6592 19.667,57.6592"></path><path d="M1.4141,35.7031 C1.1221,35.7031 0.8341,35.5831 0.6411,35.3451 C0.2971,34.9201 0.3311,34.3201 0.7501,33.9701 C0.7581,33.9631 0.8201,33.9141 0.8281,33.9081 C1.3351,33.4051 1.8061,33.0501 2.2211,32.7371 C2.9491,32.1871 3.5241,31.7531 4.1271,30.6671 C4.5271,29.9471 4.4801,29.7671 4.3061,29.0971 C4.1331,28.4321 3.8951,27.5201 4.0041,25.9001 C4.1041,24.3881 4.0591,23.9981 4.0101,23.5861 C3.9501,23.0781 3.8891,22.5551 4.0031,20.7181 C4.1121,18.9791 3.8331,18.7731 3.2241,18.3231 C2.7801,17.9951 2.6861,17.3681 3.0141,16.9241 C3.3431,16.4801 3.9701,16.3861 4.4131,16.7141 C5.6071,17.5971 6.1491,18.4401 5.9991,20.8431 C5.8961,22.4991 5.9471,22.9321 5.9961,23.3511 C6.0531,23.8361 6.1121,24.3371 5.9991,26.0331 C5.9131,27.3291 6.0871,28.0011 6.2421,28.5931 C6.4971,29.5751 6.6101,30.3181 5.8751,31.6391 C5.0671,33.0951 4.2321,33.7241 3.4261,34.3331 C3.0271,34.6341 2.6511,34.9171 2.2511,35.3181 C2.1911,35.3771 2.1281,35.4301 2.0621,35.4811 C1.8731,35.6291 1.6431,35.7031 1.4141,35.7031"></path><path d="M50,25 C48.346,25 47,26.346 47,28 L47,46.26 C47,46.586 46.84,46.893 46.572,47.08 C44.611,48.449 43.667,50.778 44.108,53.156 C44.547,55.524 46.427,57.423 48.786,57.882 C50.591,58.232 52.425,57.777 53.813,56.632 C55.203,55.487 56,53.798 56,52 C56,50.044 55.038,48.205 53.427,47.08 C53.16,46.893 53,46.586 53,46.26 L53,28 C53,26.346 51.654,25 50,25 M49.986,59.998 C49.461,59.998 48.932,59.947 48.404,59.845 C45.246,59.231 42.729,56.69 42.141,53.521 C41.588,50.539 42.678,47.613 45,45.759 L45,28 C45,25.243 47.243,23 50,23 C52.757,23 55,25.243 55,28 L55,45.76 C56.888,47.274 58,49.569 58,52 C58,54.398 56.938,56.649 55.086,58.176 C53.642,59.366 51.843,59.998 49.986,59.998"></path><path d="M50,50 C48.897,50 48,50.897 48,52 C48,53.103 48.897,54 50,54 C51.103,54 52,53.103 52,52 C52,50.897 51.103,50 50,50 M50,56 C47.794,56 46,54.206 46,52 C46,49.794 47.794,48 50,48 C52.206,48 54,49.794 54,52 C54,54.206 52.206,56 50,56"></path><path d="M50,50 C49.448,50 49,49.552 49,49 L49,43 C49,42.448 49.448,42 50,42 C50.552,42 51,42.448 51,43 L51,49 C51,49.552 50.552,50 50,50"></path><path d="M30,60 C13.458,60 0,46.542 0,30 C0,13.458 13.458,0 30,0 C46.542,0 60,13.458 60,30 C60,30.552 59.552,31 59,31 C58.448,31 58,30.552 58,30 C58,14.561 45.439,2 30,2 C14.561,2 2,14.561 2,30 C2,45.439 14.561,58 30,58 C32.482,58 34.944,57.675 37.316,57.035 C37.852,56.892 38.399,57.208 38.542,57.74 C38.686,58.273 38.371,58.822 37.837,58.966 C35.295,59.652 32.658,60 30,60"></path></g></g></g></g></g><g id="SvgjsG1298" featureKey="1RRcwp-0" transform="matrix(3.626688281960606,0,0,3.626688281960606,111.04158846608846,10.706019446747007)" fill="#ffffff"><path d="M11.66 20 l-2.2 0 l-2.5 -4.4 l-2.48 4.4 l-2.22 0 l-1.72 -9.16 l2.38 0 l1.04 5.48 l1.92 -3.38 l2.16 0 l1.94 3.38 l1.04 -5.48 l2.36 0 z M19.06 20.22 l-0.02 0 c-0.58 0 -1.18 -0.14 -1.74 -0.4 c-0.52 -0.22 -1 -0.58 -1.44 -1.04 c-0.7 -0.76 -1.12 -1.76 -1.22 -2.8 c-0.02 -0.18 -0.04 -0.36 -0.04 -0.56 c0 -0.4 0.06 -0.82 0.16 -1.24 c0.18 -0.8 0.56 -1.54 1.1 -2.1 c0.4 -0.44 0.86 -0.78 1.44 -1.06 c0.54 -0.26 1.14 -0.38 1.76 -0.38 c0.64 0 1.22 0.12 1.76 0.38 c0.6 0.28 1.08 0.64 1.44 1.06 c0.52 0.56 0.92 1.28 1.12 2.1 c0.1 0.38 0.14 0.78 0.14 1.24 l0 0.46 l-6.72 0 l0.02 0.14 c0.26 1.24 1.2 2.14 2.24 2.14 l0.02 0 c0.58 -0.04 1.22 -0.4 1.6 -0.72 l0.22 -0.18 l1.66 1.44 l-0.3 0.26 c-0.22 0.2 -0.5 0.44 -0.8 0.6 l-0.02 0 c-0.72 0.42 -1.5 0.64 -2.38 0.66 z M19.06 12.719999999999999 c-0.78 0 -1.56 0.54 -1.98 1.38 l-0.08 0.16 l4.14 0 l-0.08 -0.16 c-0.46 -0.86 -1.22 -1.38 -2 -1.38 z M29.540000000000003 20.18 c-1.26 0 -2.46 -0.48 -3.38 -1.38 c-0.9 -0.92 -1.4 -2.12 -1.4 -3.38 s0.5 -2.46 1.4 -3.38 c0.9 -0.9 2.1 -1.38 3.38 -1.38 c0.84 0 1.6 0.3 2.26 0.9 l0.1 0.08 l0 -0.8 l2.42 0 l0 9.16 l-2.42 0 l0 -0.72 l-0.1 0.1 c-0.72 0.7 -1.54 0.8 -2.26 0.8 z M29.540000000000003 13 c-1.28 0 -2.36 1.12 -2.36 2.42 c0 1.32 1.08 2.42 2.36 2.42 s2.36 -1.1 2.36 -2.42 c0 -1.3 -1.08 -2.42 -2.36 -2.42 z M43.08 20 l-2.4 0 c-0.88 0 -1.7 -0.34 -2.3 -0.94 c-0.62 -0.62 -0.94 -1.42 -0.94 -2.3 l0 -3.8 l-1.28 0 l0 -2.06 l1.28 0 l0 -3.6 l2.38 0 l0 3.6 l2.66 0 l0 2.06 l-2.66 0 l0 3.76 c0 0.5 0.44 0.96 0.88 0.96 l1.74 0 z M53.440000000000005 20 l-2.52 0 l0 -4.9 c0 -1.08 -0.86 -1.92 -1.94 -1.92 c-1.04 0 -1.94 0.86 -1.94 1.92 l0 4.9 l-2.5 0 l0 -14.68 l2.5 0 l0 6.18 c0.62 -0.62 1.28 -0.84 1.94 -0.84 c1.2 0 2.32 0.46 3.16 1.28 c0.84 0.86 1.3 1.98 1.3 3.16 l0 4.9 z M59.50000000000001 20.22 l-0.02 0 c-0.58 0 -1.18 -0.14 -1.74 -0.4 c-0.52 -0.22 -1 -0.58 -1.44 -1.04 c-0.7 -0.76 -1.12 -1.76 -1.22 -2.8 c-0.02 -0.18 -0.04 -0.36 -0.04 -0.56 c0 -0.4 0.06 -0.82 0.16 -1.24 c0.18 -0.8 0.56 -1.54 1.1 -2.1 c0.4 -0.44 0.86 -0.78 1.44 -1.06 c0.54 -0.26 1.14 -0.38 1.76 -0.38 c0.64 0 1.22 0.12 1.76 0.38 c0.6 0.28 1.08 0.64 1.44 1.06 c0.52 0.56 0.92 1.28 1.12 2.1 c0.1 0.38 0.14 0.78 0.14 1.24 l0 0.46 l-6.72 0 l0.02 0.14 c0.26 1.24 1.2 2.14 2.24 2.14 l0.02 0 c0.58 -0.04 1.22 -0.4 1.6 -0.72 l0.22 -0.18 l1.66 1.44 l-0.3 0.26 c-0.22 0.2 -0.5 0.44 -0.8 0.6 l-0.02 0 c-0.72 0.42 -1.5 0.64 -2.38 0.66 z M59.50000000000001 12.719999999999999 c-0.78 0 -1.56 0.54 -1.98 1.38 l-0.08 0.16 l4.14 0 l-0.08 -0.16 c-0.46 -0.86 -1.22 -1.38 -2 -1.38 z M68.22 20 l-2.52 0 l0 -9.16 l2.52 0 l0 0.74 c0.72 -0.72 1.8 -0.96 2.52 -0.96 l0.6 0 l-0.6 2.5 l-0.38 0 c-1.18 0 -2.14 0.92 -2.14 2.02 l0 4.86 z"></path></g>
			</g>
		</svg>
	