<svg xmlns="http://www.w3.org/2000/svg" version="1.1" xmlns:xlink="http://www.w3.org/1999/xlink" xmlns:svgjs="http://svgjs.dev/svgjs" width="1000" height="1000" viewBox="0 0 1000 1000"><rect width="1000" height="1000" fill="#000000"></rect><g transform="matrix(0.7,0,0,0.7,149.5757575757575,397.8041700336439)"><svg viewBox="0 0 396 116" data-background-color="#ffffff" preserveAspectRatio="xMidYMid meet" height="292" width="1000" xmlns="http://www.w3.org/2000/svg" xmlns:xlink="http://www.w3.org/1999/xlink"><g id="tight-bounds" transform="matrix(1,0,0,1,0.24000000000003752,-0.002366555296930528)"><svg viewBox="0 0 395.5199999999999 116.00473311059388" height="116.00473311059388" width="395.5199999999999"><g><svg viewBox="0 0 395.5199999999999 116.00473311059388" height="116.00473311059388" width="395.5199999999999"><g transform="matrix(1,0,0,1,0,71.69557894142771)"><svg viewBox="0 0 395.5199999999999 44.30915416916616" height="44.30915416916616" width="395.5199999999999"><g id="textblocktransform"><svg viewBox="0 0 395.5199999999999 44.30915416916616" height="44.30915416916616" width="395.5199999999999" id="textblock"><g><svg viewBox="0 0 395.5199999999999 44.30915416916616" height="44.30915416916616" width="395.5199999999999"><g transform="matrix(1,0,0,1,0,0)"><svg width="395.5199999999999" viewBox="1.85 -37.1 333.38 37.35" height="44.30915416916616" data-palette-color="#113f67"><path d="M50.2-35L53.75-35 41.95 0 38.05 0 27.8-29.85 17.5 0 13.65 0 1.85-35 5.65-35 15.75-4.9 26.2-35 29.65-35 39.95-4.75 50.2-35ZM80.7-13.15L80.65-12.05 58.65-12.05Q58.95-7.95 61.8-5.43 64.65-2.9 69-2.9L69-2.9Q71.45-2.9 73.5-3.78 75.55-4.65 77.05-6.35L77.05-6.35 79.05-4.05Q77.3-1.95 74.67-0.85 72.05 0.25 68.9 0.25L68.9 0.25Q64.85 0.25 61.72-1.48 58.6-3.2 56.85-6.25 55.1-9.3 55.1-13.15L55.1-13.15Q55.1-17 56.77-20.05 58.45-23.1 61.37-24.8 64.3-26.5 67.95-26.5L67.95-26.5Q71.6-26.5 74.5-24.8 77.4-23.1 79.05-20.08 80.7-17.05 80.7-13.15L80.7-13.15ZM67.95-23.45Q64.15-23.45 61.57-21.03 59-18.6 58.65-14.7L58.65-14.7 77.3-14.7Q76.95-18.6 74.37-21.03 71.8-23.45 67.95-23.45L67.95-23.45ZM96.4-26.5Q101.55-26.5 104.3-23.93 107.05-21.35 107.05-16.3L107.05-16.3 107.05 0 103.65 0 103.65-4.1Q102.45-2.05 100.12-0.9 97.8 0.25 94.59 0.25L94.59 0.25Q90.2 0.25 87.59-1.85 85-3.95 85-7.4L85-7.4Q85-10.75 87.42-12.8 89.84-14.85 95.15-14.85L95.15-14.85 103.5-14.85 103.5-16.45Q103.5-19.85 101.59-21.63 99.7-23.4 96.05-23.4L96.05-23.4Q93.55-23.4 91.25-22.58 88.95-21.75 87.3-20.3L87.3-20.3 85.7-22.95Q87.7-24.65 90.5-25.58 93.3-26.5 96.4-26.5L96.4-26.5ZM95.15-2.55Q98.15-2.55 100.3-3.93 102.45-5.3 103.5-7.9L103.5-7.9 103.5-12.2 95.25-12.2Q88.5-12.2 88.5-7.5L88.5-7.5Q88.5-5.2 90.25-3.88 92-2.55 95.15-2.55L95.15-2.55ZM129.29-4.15L130.54-1.6Q129.54-0.7 128.07-0.23 126.59 0.25 124.99 0.25L124.99 0.25Q121.29 0.25 119.29-1.75 117.29-3.75 117.29-7.4L117.29-7.4 117.29-23.3 112.59-23.3 112.59-26.3 117.29-26.3 117.29-32.05 120.84-32.05 120.84-26.3 128.84-26.3 128.84-23.3 120.84-23.3 120.84-7.6Q120.84-5.25 122.02-4.03 123.19-2.8 125.39-2.8L125.39-2.8Q126.49-2.8 127.52-3.15 128.54-3.5 129.29-4.15L129.29-4.15ZM150.39-26.5Q155.34-26.5 158.27-23.63 161.19-20.75 161.19-15.25L161.19-15.25 161.19 0 157.64 0 157.64-14.9Q157.64-19 155.59-21.15 153.54-23.3 149.74-23.3L149.74-23.3Q145.49-23.3 143.02-20.78 140.54-18.25 140.54-13.8L140.54-13.8 140.54 0 136.99 0 136.99-37.1 140.54-37.1 140.54-21.7Q141.99-24 144.54-25.25 147.09-26.5 150.39-26.5L150.39-26.5ZM193.89-13.15L193.84-12.05 171.84-12.05Q172.14-7.95 174.99-5.43 177.84-2.9 182.19-2.9L182.19-2.9Q184.64-2.9 186.69-3.78 188.74-4.65 190.24-6.35L190.24-6.35 192.24-4.05Q190.49-1.95 187.86-0.85 185.24 0.25 182.09 0.25L182.09 0.25Q178.04 0.25 174.91-1.48 171.79-3.2 170.04-6.25 168.29-9.3 168.29-13.15L168.29-13.15Q168.29-17 169.96-20.05 171.64-23.1 174.56-24.8 177.49-26.5 181.14-26.5L181.14-26.5Q184.79-26.5 187.69-24.8 190.59-23.1 192.24-20.08 193.89-17.05 193.89-13.15L193.89-13.15ZM181.14-23.45Q177.34-23.45 174.76-21.03 172.19-18.6 171.84-14.7L171.84-14.7 190.49-14.7Q190.14-18.6 187.56-21.03 184.99-23.45 181.14-23.45L181.14-23.45ZM204.53-21.15Q205.78-23.8 208.26-25.15 210.74-26.5 214.38-26.5L214.38-26.5 214.38-23.05 213.53-23.1Q209.38-23.1 207.03-20.55 204.69-18 204.69-13.4L204.69-13.4 204.69 0 201.13 0 201.13-26.3 204.53-26.3 204.53-21.15ZM260.63-35L264.28-35 264.28 0 260.63 0 260.63-16.15 238.73-16.15 238.73 0 235.03 0 235.03-35 238.73-35 238.73-19.4 260.63-19.4 260.63-35ZM295.08-26.3L298.63-26.3 298.63 0 295.23 0 295.23-4.8Q293.83-2.4 291.38-1.07 288.93 0.25 285.78 0.25L285.78 0.25Q280.63 0.25 277.65-2.63 274.68-5.5 274.68-11.05L274.68-11.05 274.68-26.3 278.23-26.3 278.23-11.4Q278.23-7.25 280.28-5.1 282.33-2.95 286.13-2.95L286.13-2.95Q290.28-2.95 292.68-5.48 295.08-8 295.08-12.5L295.08-12.5 295.08-26.3ZM322.13-26.5Q325.82-26.5 328.82-24.83 331.82-23.15 333.52-20.1 335.23-17.05 335.23-13.15L335.23-13.15Q335.23-9.25 333.52-6.2 331.82-3.15 328.82-1.45 325.82 0.25 322.13 0.25L322.13 0.25Q318.82 0.25 316.2-1.15 313.57-2.55 311.98-5.2L311.98-5.2 311.98 0 308.57 0 308.57-37.1 312.13-37.1 312.13-21.3Q313.77-23.85 316.35-25.18 318.93-26.5 322.13-26.5L322.13-26.5ZM321.88-2.9Q324.63-2.9 326.88-4.17 329.13-5.45 330.4-7.8 331.68-10.15 331.68-13.15L331.68-13.15Q331.68-16.15 330.4-18.5 329.13-20.85 326.88-22.13 324.63-23.4 321.88-23.4L321.88-23.4Q319.07-23.4 316.85-22.13 314.63-20.85 313.35-18.5 312.07-16.15 312.07-13.15L312.07-13.15Q312.07-10.15 313.35-7.8 314.63-5.45 316.85-4.17 319.07-2.9 321.88-2.9L321.88-2.9Z" opacity="1" transform="matrix(1,0,0,1,0,0)" fill="#ffffff" class="wordmark-text-0" data-fill-palette-color="primary" id="text-0"></path></svg></g></svg></g></svg></g></svg></g><g transform="matrix(1,0,0,1,148.60737968191194,0)"><svg viewBox="0 0 98.30524063617604 61.23525106178764" height="61.23525106178764" width="98.30524063617604"><g><svg xmlns="http://www.w3.org/2000/svg" xmlns:xlink="http://www.w3.org/1999/xlink" version="1.1" x="8" y="0" viewBox="0.193 12.943 99.614 74.113" enable-background="new 0 0 100 100" xml:space="preserve" height="61.23525106178764" width="82.30524063617604" class="icon-icon-0" data-fill-palette-color="accent" id="icon-0"><g fill="#87c0cd" data-fill-palette-color="accent"><path d="M78.51 52.484c0-10.06-8.184-18.243-18.245-18.243-5.858 0-11.066 2.786-14.406 7.091-3.189-2.771-7.34-4.463-11.887-4.463-8.531 0-15.778 5.879-17.675 13.985C7.248 51.881 0.193 59.578 0.193 68.896c0 10.014 8.146 18.16 18.16 18.16h41.041c8.173 0 14.823-6.648 14.823-14.822 0-2.314-0.549-4.5-1.498-6.453C76.273 62.449 78.51 57.729 78.51 52.484zM69.132 72.234c0 5.369-4.368 9.736-9.737 9.736H18.354c-7.209 0-13.074-5.863-13.074-13.074 0-7.209 5.865-13.075 13.074-13.075 2.134 0 4.169 0.498 6.045 1.478 1.245 0.651 2.781 0.169 3.432-1.076 0.651-1.244 0.169-2.781-1.076-3.43-1.636-0.855-3.405-1.451-5.228-1.775 1.7-5.31 6.662-9.062 12.445-9.062 3.642 0 6.938 1.5 9.311 3.91 2.325 2.361 3.764 5.597 3.764 9.164 0 0.645-0.047 1.293-0.14 1.924-0.007 0.045-0.002 0.09-0.007 0.135-0.011 0.119-0.022 0.239-0.016 0.357 0.004 0.1 0.025 0.195 0.041 0.291 0.011 0.065 0.015 0.131 0.03 0.194 0.024 0.098 0.062 0.192 0.098 0.284 0.022 0.062 0.039 0.123 0.066 0.18 0.039 0.086 0.091 0.164 0.141 0.246 0.037 0.06 0.067 0.122 0.108 0.18 0.062 0.084 0.136 0.16 0.208 0.236 0.04 0.043 0.075 0.09 0.118 0.13 0.127 0.117 0.264 0.224 0.414 0.313 1.42 0.873 2.646 1.992 3.646 3.33 0.007 0.01 0.017 0.016 0.024 0.026 0.117 0.151 0.246 0.29 0.39 0.408 0.021 0.019 0.045 0.028 0.066 0.046 0.122 0.095 0.251 0.18 0.388 0.25 0.061 0.031 0.124 0.053 0.187 0.08 0.104 0.043 0.208 0.083 0.316 0.113 0.071 0.02 0.142 0.032 0.214 0.045 0.107 0.02 0.214 0.031 0.322 0.037 0.044 0.002 0.088 0.016 0.132 0.016 0.04 0 0.08-0.008 0.12-0.01 0.046-0.002 0.092-0.006 0.137-0.01 0.02-0.003 0.038-0.008 0.058-0.011 0.1-0.013 0.198-0.028 0.296-0.052 0.033-0.01 0.066-0.015 0.099-0.025 0.161-0.047 0.32-0.107 0.473-0.187 1.375-0.704 2.862-1.062 4.422-1.062 2.165 0 4.159 0.719 5.778 1.918 1.479 1.096 2.635 2.596 3.304 4.34C68.895 69.836 69.132 71.008 69.132 72.234zM59.395 57.41c-1.661 0-3.315 0.289-4.877 0.831-0.743-0.794-1.55-1.524-2.424-2.173 0.02-0.346 0.038-0.693 0.038-1.039 0-3.486-1.005-6.735-2.716-9.504 2.298-3.57 6.298-5.944 10.849-5.944 7.116 0 12.904 5.789 12.904 12.903 0 3.481-1.391 6.639-3.639 8.963C66.876 58.951 63.315 57.41 59.395 57.41z" fill="#ffffff" data-fill-palette-color="accent"></path><path d="M60.265 30.025c1.475 0 2.67-1.196 2.67-2.67V15.613c0-1.474-1.195-2.67-2.67-2.67s-2.67 1.196-2.67 2.67v11.742C57.595 28.829 58.79 30.025 60.265 30.025z" fill="#ffffff" data-fill-palette-color="accent"></path><path d="M40.606 36.603c0.521 0.521 1.205 0.782 1.888 0.782s1.367-0.261 1.888-0.782c1.043-1.043 1.043-2.733 0-3.776l-8.302-8.302c-1.042-1.043-2.734-1.043-3.776 0-1.043 1.043-1.043 2.732 0 3.775L40.606 36.603z" fill="#ffffff" data-fill-palette-color="accent"></path><path d="M79.923 68.369c-1.043-1.043-2.734-1.043-3.777 0-1.041 1.043-1.041 2.734 0.002 3.777l8.302 8.299c0.521 0.521 1.205 0.783 1.888 0.783 0.684 0 1.368-0.262 1.89-0.783 1.042-1.043 1.042-2.734-0.001-3.775L79.923 68.369z" fill="#ffffff" data-fill-palette-color="accent"></path><path d="M97.137 49.815L97.137 49.815l-11.739 0.002c-1.476 0-2.67 1.196-2.67 2.67 0 1.475 1.195 2.671 2.67 2.671l0 0 11.739-0.003c1.476 0 2.67-1.196 2.67-2.671S98.611 49.815 97.137 49.815z" fill="#ffffff" data-fill-palette-color="accent"></path><path d="M78.037 37.386c0.685 0 1.368-0.261 1.89-0.782l8.3-8.304c1.042-1.043 1.042-2.734-0.001-3.775-1.043-1.043-2.734-1.043-3.777 0l-8.3 8.304c-1.042 1.043-1.042 2.734 0.001 3.775C76.671 37.125 77.354 37.386 78.037 37.386z" fill="#ffffff" data-fill-palette-color="accent"></path></g></svg></g></svg></g><g><rect width="148.60737968191194" height="3.9958452500225077" y="56.23940581176514" x="246.912620318088" fill="#ffffff" data-fill-palette-color="accent"></rect><rect width="148.60737968191194" height="3.9958452500225077" y="56.23940581176514" x="0" fill="#ffffff" data-fill-palette-color="accent"></rect><rect width="148.60737968191194" height="3.9958452500225077" y="48.24771531172012" x="246.912620318088" fill="#ffffff" data-fill-palette-color="accent"></rect><rect width="148.60737968191194" height="3.9958452500225077" y="48.24771531172012" x="0" fill="#ffffff" data-fill-palette-color="accent"></rect></g></svg></g><defs></defs></svg><rect width="395.5199999999999" height="116.00473311059388" fill="none" stroke="none" visibility="hidden"></rect></g></svg></g></svg>