<svg version="1.2" xmlns="http://www.w3.org/2000/svg" viewBox="0 0 620 1346" width="620" height="1346"><defs><linearGradient id="P" gradientUnits="userSpaceOnUse"/><linearGradient id="g1" x2="1" href="#P" gradientTransform="matrix(0,-1345.304,619.826,0,-1149.873,1345.873)"><stop stop-color="#3a6fba"/><stop offset="1" stop-color="#9ebce6"/></linearGradient><linearGradient id="g2" x2="1" href="#P" gradientTransform="matrix(10.766,-93.947,96.184,11.022,382.231,606.818)"><stop stop-color="#ababab"/><stop offset="1" stop-color="#fefefe"/></linearGradient><linearGradient id="g3" x2="1" href="#P" gradientTransform="matrix(-35.329,-86.567,88.403,-36.078,474.014,617.653)"><stop stop-color="#ababab"/><stop offset="1" stop-color="#fefefe"/></linearGradient><linearGradient id="g4" x2="1" href="#P" gradientTransform="matrix(-38.384,-55.92,66.21,-45.447,433.114,633.161)"><stop stop-color="#ababab"/><stop offset="1" stop-color="#fefefe"/></linearGradient><linearGradient id="g5" x2="1" href="#P" gradientTransform="matrix(-52.652,-95.787,97.444,-53.562,249.128,598.179)"><stop stop-color="#ababab"/><stop offset="1" stop-color="#fefefe"/></linearGradient><linearGradient id="g6" x2="1" href="#P" gradientTransform="matrix(-30.19,-32.66,31.4,-29.025,511.579,636.149)"><stop stop-color="#ababab"/><stop offset="1" stop-color="#d0d0d0"/></linearGradient><linearGradient id="g7" x2="1" href="#P" gradientTransform="matrix(44.852,1.339,-1.084,36.316,131.486,602.213)"><stop stop-color="#d0d0d0"/><stop offset="1" stop-color="#a3a3a3"/></linearGradient><linearGradient id="g8" x2="1" href="#P" gradientTransform="matrix(-34.806,-23.956,19.789,-28.752,252.086,638.952)"><stop stop-color="#ababab"/><stop offset="1" stop-color="#d0d0d0"/></linearGradient><linearGradient id="g9" x2="1" href="#P" gradientTransform="matrix(0,-20.31,402.376,0,310.725,647.67)"><stop offset=".01" stop-color="#bababa"/><stop offset="1" stop-color="#ababab"/></linearGradient><linearGradient id="g10" x2="1" href="#P" gradientTransform="matrix(11.681,-24.467,18.933,9.039,204.683,718.217)"><stop stop-color="#818ca8"/><stop offset="1" stop-color="#dbe8ff"/></linearGradient><linearGradient id="g11" x2="1" href="#P" gradientTransform="matrix(11.681,-24.467,18.933,9.039,299.679,718.217)"><stop stop-color="#818ca8"/><stop offset="1" stop-color="#dbe8ff"/></linearGradient><linearGradient id="g12" x2="1" href="#P" gradientTransform="matrix(11.681,-24.467,18.933,9.039,394.675,718.217)"><stop stop-color="#818ca8"/><stop offset="1" stop-color="#dbe8ff"/></linearGradient></defs><style>.a{fill:url(#g1)}.b{fill:#ababab}.c{fill:url(#g2)}.d{fill:url(#g3)}.e{fill:url(#g4)}.f{fill:url(#g5)}.g{fill:url(#g6)}.h{fill:url(#g7)}.i{fill:url(#g8)}.j{fill:url(#g9)}.k{fill:url(#g10)}.l{fill:url(#g11)}.m{fill:url(#g12)}</style><path class="a" d="m80.2 0.6h459.8c44.2 0 80 35.8 80 80v1185.3c0 44.2-35.8 80-80 80h-459.8c-44.2 0-80-35.8-80-80v-1185.3c0-44.2 35.8-80 80-80z"/><path class="b" d="m241.2 608.2c2.1 44.6 41 36.2 86.8 34 45.8-2.3 81.1 2.5 79-42.2-2.1-44.6-41-79-86.8-76.7-45.8 2.2-81.2 40.2-79 84.9z"/><path class="c" d="m404.6 549.3c1 22.3-7.3 43-21.6 58.4-12.1 13-28.6 22.2-47.2 25.4-0.1-22.1 1.3-50.7-0.1-80.4-0.9-17.6-2.6-34.7-4.4-50.2 21.4 0.3 47 3.4 62.5 10.6 6.3 10.7 10.2 23 10.8 36.2zm-10.8-36.2c-15.5-7.2-41.1-10.3-62.5-10.6-1.2-10.8-2.3-20.9-3.1-29.8 18.9 1.3 36.1 8.9 49.4 20.6 6.4 5.7 11.9 12.4 16.2 19.8zm-58.1 39.6c1.4 29.7 0 58.3 0.1 80.4q-5.1 0.9-10.3 1.1c-22.9 1.2-44.1-6.9-59.8-20.8-15.7-13.9-25.9-33.6-26.9-55.9-0.7-13.2 2-25.9 7.2-37.1 17.5-10.2 46.9-16.4 72.7-17.7 4-0.2 8.8-0.3 12.6-0.2 1.8 15.5 3.5 32.6 4.4 50.2zm-4.4-50.2c-3.8-0.1-8.6 0-12.6 0.2-25.8 1.3-55.2 7.5-72.7 17.7 3.6-7.8 8.5-15 14.3-21.3 14.3-15.4 34.6-25.4 57.5-26.6q5.3-0.2 10.4 0.2c0.8 8.9 1.9 19 3.1 29.8z"/><path class="d" d="m488.4 580.5c0.7 14.4-4.7 27.8-13.9 37.7-7.9 8.4-18.5 14.4-30.7 16.4-0.1-26.1 0.5-51.9-2.2-77.9 14.7-0.1 31.4 1.8 42.2 4.9 2.7 5.8 4.3 12.2 4.6 18.9zm-4.6-18.9c-10.8-3.1-27.5-5-42.2-4.9-1-9.4-2-18.1-2.7-25.7 12.3 0.9 23.5 5.8 32.1 13.4 5.4 4.8 9.8 10.6 12.8 17.2zm-40 73q-3.1 0.6-6.4 0.7c-14.8 0.8-28.5-4.4-38.6-13.4-10.1-8.9-16.7-21.7-17.4-36.1-0.3-6.7 0.7-13.3 2.8-19.3 17.9-7.1 38.2-9.7 57.4-9.8 2.7 26 2.1 51.8 2.2 77.9zm-2.2-77.9c-19.2 0.1-39.5 2.7-57.4 9.8 2.4-6.9 6.2-13.1 11.1-18.4 9.2-9.9 22.3-16.4 37.1-17.1q3.3-0.2 6.5 0c0.7 7.6 1.7 16.3 2.7 25.7z"/><path class="e" d="m451.6 632.4c0.8 16.1-5.5-3.5-15.8 7.5-9.5 10.3-24.7-1.8-39.7-0.2-1.2-30.6 0.8-7.5-1.5-38 17.4-0.4 37.8 1.8 50.4 6.7 3.8 7.2 6.2 15.4 6.6 24zm-6.6-24c-12.6-4.9-33-7.1-50.4-6.7-0.7-8.8-1.4-17.1-1.8-24.5 15.1 0.1 28.9 5.8 39.4 15 5.2 4.6 9.5 10.1 12.8 16.2zm-48.9 31.3c-1.2 0.1-3.5 2.2-4.7 2.2-16.4 0.8-26.9 9.3-38.2-0.7-11.3-10-19.9 13.1-20.7-2.9-0.4-8.7 1.1-17 4.3-24.6 17.3-8.6 38.6-11.5 57.8-12 2.3 30.5 0.3 7.4 1.5 38zm-1.5-38c-19.2 0.5-40.5 3.4-57.8 12 2.7-6.4 6.5-12.2 11.2-17.3 10.3-11 24.8-18.3 41.3-19.1q1.7-0.1 3.5-0.1c0.4 7.4 1.1 15.7 1.8 24.5z"/><path class="f" d="m265.1 556.2c0.8 16-5.2 30.8-15.5 41.9-10.2 11-24.8 18.3-41.3 19.1q-3.1 0.1-6.2 0c-1.2-15.9-3.9-36.2-4.9-57.7-0.5-10.5-0.6-20.9-0.6-30.5 20.6-1.9 43.1-1.2 62.9 5.1 3.3 6.7 5.3 14.2 5.6 22.1zm-5.6-22.1c-19.8-6.3-42.3-7-62.9-5.1 0-10 0.2-19.2 0-27.3q3.1-0.5 6.2-0.7c16.5-0.8 31.7 5 42.9 15 5.8 5 10.5 11.2 13.8 18.1zm-62.3 25.4c1 21.5 3.7 41.8 4.9 57.7-14-0.8-26.8-6.3-36.7-15-11.2-9.9-18.6-24.1-19.4-40.2-0.3-7.9 0.9-15.5 3.5-22.5 11.8-5 30.6-9 47.1-10.5 0 9.6 0.1 20 0.6 30.5zm-0.6-30.5c-16.5 1.5-35.3 5.5-47.1 10.5 2.7-7.2 6.8-13.8 12-19.4 9-9.6 21.2-16.3 35.1-18.4 0.2 8.1 0 17.3 0 27.3z"/><path class="g" d="m512.4 623.5c0.4 10.2 0.7 13.4 0 14.7-7.9 1.6-23.4 0.9-31.4 2.5 0.4-19.3 2.3-17.4-0.1-36.6 9.3 0.2 20.4 1.6 27.3 4.3 2.4 4.5 3.9 9.7 4.2 15.1zm-4.2-15.1c-6.9-2.7-18-4.1-27.3-4.3-0.7-5.6-1.4-10.8-2-15.3 8.1 0.9 15.5 4.2 21.2 9.3 3.3 2.9 6 6.4 8.1 10.3zm-27.2 32.3c-1.9 0.4-5.1 1.5-7.1 1.6-10.4 0.5-18.1 3.6-25.3-2.7-7.1-6.3-11.1-2.2-11.6-12.3-0.3-5.5 0.7-10.8 2.7-15.6 12.2-6.1 27.6-7.9 41.2-7.6 2.4 19.2 0.5 17.3 0.1 36.6zm-0.1-36.6c-13.6-0.3-29 1.5-41.2 7.6 1.7-4 4.1-7.8 7.1-11 6.5-7 15.7-11.5 26.1-12q3.1-0.2 6 0.1c0.6 4.5 1.3 9.7 2 15.3z"/><path class="h" d="m178.8 614.9c0.4 10.2-1.9 16.3-8.4 23.3-6.5 7-13 1-23.4 1.5-2.4 0.1-8.7-0.2-11-0.5-2.3-16.7-4.8-19.1-4.4-35.9 15-1.4 30.2-1 45.1 1.3 1.2 3.3 1.9 6.7 2.1 10.3zm-2.1-10.3c-14.9-2.3-30.1-2.7-45.1-1.3 0.1-8.3 0.6-16 0.9-22.3q3.3-0.8 6.8-1c10.4-0.5 20.1 3.2 27.2 9.5 4.6 4.1 8.2 9.2 10.2 15.1zm-40.7 34.6c-7.7-1-20.4 3.9-25.9-1-2.6-1.6-6.2-9.4-6.7-19.6-0.2-3.6 0.2-7.1 1-10.4 7.3-1.9 17.5-4.1 27.2-4.9-0.4 16.8 2.1 19.2 4.4 35.9zm-4.4-35.9c-9.7 0.8-19.9 3-27.2 4.9 1.5-6.1 4.6-11.6 8.8-16.1 5-5.4 11.7-9.4 19.3-11.1-0.3 6.3-0.8 14-0.9 22.3z"/><path class="i" d="m269.2 641.4c0.7 14.4-4.7-4.9-14 5-15.3-2.1-24.8-4.7-39.5-4-1.3-26 0 1.9-1.3-24.1 17.8-0.8 37.5 1.1 50.3 4.6 2.6 5.7 4.2 11.9 4.5 18.5zm-4.5-18.5c-12.8-3.5-32.5-5.4-50.3-4.6-0.4-9.6-0.8-18.5-1.2-26.4 14.8-0.8 28.4 4.4 38.6 13.4 5.4 4.9 9.9 10.8 12.9 17.6zm-49 19.5c-14.8 0.7-17.2 6.7-27.3-2.3-10.1-8.9-23.6 13.9-24.3-0.6-0.3-6.6-1.3-5.8 0.7-11.7 12.4-4.8 31.9-8.6 49.6-9.5 1.3 26 0-1.9 1.3 24.1zm-1.3-24.1c-17.7 0.9-37.2 4.7-49.6 9.5 2.4-7 6.3-13.4 11.3-18.8 9.2-9.9 22.3-16.4 37.1-17.1 0.4 7.9 0.8 16.8 1.2 26.4z"/><path class="j" d="m512.4 638.2c-1.4 3.4-90.1 9.5-201.2 9.5-111.1 0-201.2-4.3-201.2-9.5 0-2.1 43.4-10.3 53.6-5.9 6.9-6 91.5-7.3 104.4 0.4 10.8-2.9 50-3.2 64.9-1.1 8-2.2 65.5-7 104.6-0.3 65.9-1 75.4 5.8 74.9 6.9z"/><path class="k" d="m193.1 717c-1.1-2.8-1.6-5.7-1.6-8.7 3.5 3 8.5 8.2 13.2 10.4-1.6 3.7-2.1 5.4-3.2 8.5-3.8-2.5-6.7-6.1-8.4-10.2zm11.7 11.9q-1.7-0.7-3.3-1.7c1.1-3.1 1.6-4.8 3.2-8.5 7.2 3.6 16.1 5 24.2 5.5-2.1 2.1-4.6 3.8-7.3 4.9-5.2 2.1-11.2 2.2-16.8-0.2zm-13.3-20.6c0.1-2.7 0.7-5.4 1.8-8.1 1.2-2.7 3.9-5.6 7.3-8.3 5.2 0.1 11.7 1 15.9 2-5.6 13.1-9.6 20-10.3 21.6-0.7 1.4-1.3 2.6-1.5 3.2-4.7-2.2-9.7-7.4-13.2-10.4zm13.2 10.4c0.2-0.6 0.8-1.8 1.5-3.2 0.7-1.6 4.7-8.5 10.3-21.6 6.9 1.8 13 7.5 18 12.4 0.4 4.3 0.2 8.3-1 11-1.1 2.7-2.7 5-4.6 6.9-8.1-0.5-17-1.9-24.2-5.5zm-4.1-26.8c4.2-3.4 9.4-6.5 14.1-9 5.2-2.9 9.8-4.9 11.5-5.7-2.6 5.3-7.2 10.9-9.7 16.7-4.2-1-10.7-1.9-15.9-2zm15.9 2c2.5-5.8 7.1-11.4 9.7-16.7q0.7-0.3 0.7-0.3c0 0 2.2 5.7 4.3 13 1.4 5.1 2.8 11.1 3.3 16.4-5-4.9-11.1-10.6-18-12.4z"/><path class="l" d="m288.1 717c-1.1-2.8-1.6-5.7-1.6-8.7 3.5 3 8.5 8.2 13.2 10.4-1.6 3.7-2.1 5.4-3.2 8.5-3.8-2.5-6.7-6.1-8.4-10.2zm11.7 11.9q-1.7-0.7-3.3-1.7c1.1-3.1 1.6-4.8 3.2-8.5 7.2 3.6 16 5 24.2 5.5-2.1 2.1-4.6 3.8-7.3 4.9-5.2 2.1-11.2 2.2-16.8-0.2zm-13.3-20.6c0.1-2.7 0.7-5.4 1.8-8.1 1.2-2.7 3.9-5.6 7.3-8.3 5.2 0.1 11.7 1 15.9 2-5.6 13.1-9.6 20-10.3 21.6-0.7 1.4-1.3 2.6-1.5 3.2-4.7-2.2-9.7-7.4-13.2-10.4zm13.2 10.4c0.2-0.6 0.8-1.8 1.5-3.2 0.7-1.6 4.7-8.5 10.3-21.6 6.9 1.8 13 7.5 18 12.4 0.4 4.3 0.2 8.3-1 11-1.1 2.7-2.7 5-4.6 6.9-8.2-0.5-17-1.9-24.2-5.5zm-4.1-26.8c4.2-3.4 9.4-6.5 14.1-9 5.2-2.9 9.8-4.9 11.5-5.7-2.6 5.3-7.2 10.9-9.7 16.7-4.2-1-10.7-1.9-15.9-2zm15.9 2c2.5-5.8 7.1-11.4 9.7-16.7q0.7-0.3 0.7-0.3c0 0 2.2 5.7 4.3 13 1.4 5.1 2.8 11.1 3.3 16.4-5-4.9-11.1-10.6-18-12.4z"/><path class="m" d="m383.1 717c-1.1-2.8-1.6-5.7-1.6-8.7 3.5 3 8.5 8.2 13.2 10.4-1.6 3.7-2.1 5.4-3.2 8.5-3.8-2.5-6.7-6.1-8.4-10.2zm11.7 11.9q-1.7-0.7-3.3-1.7c1.1-3.1 1.6-4.8 3.2-8.5 7.2 3.6 16 5 24.2 5.5-2.1 2.1-4.6 3.8-7.3 4.9-5.2 2.1-11.2 2.2-16.8-0.2zm-13.3-20.6c0.1-2.7 0.7-5.4 1.8-8.1 1.2-2.7 3.9-5.6 7.3-8.3 5.2 0.1 11.7 1 15.9 2-5.6 13.1-9.6 20-10.4 21.6-0.6 1.4-1.2 2.6-1.4 3.2-4.7-2.2-9.7-7.4-13.2-10.4zm13.2 10.4c0.2-0.6 0.8-1.8 1.4-3.2 0.8-1.6 4.8-8.5 10.4-21.6 6.9 1.8 13 7.5 17.9 12.4 0.4 4.3 0.3 8.3-0.9 11-1.1 2.7-2.7 5-4.6 6.9-8.2-0.5-17-1.9-24.2-5.5zm-4.1-26.8c4.2-3.4 9.4-6.5 14-9 5.3-2.9 9.9-4.9 11.6-5.7-2.6 5.3-7.2 10.9-9.7 16.7-4.2-1-10.7-1.9-15.9-2zm15.9 2c2.5-5.8 7.1-11.4 9.7-16.7q0.7-0.3 0.7-0.3c0 0 2.2 5.7 4.3 13 1.4 5.1 2.8 11.1 3.2 16.4-4.9-4.9-11-10.6-17.9-12.4z"/></svg>